<?xml version="1.0" standalone="no"?>
<!DOCTYPE svg PUBLIC "-//W3C//DTD SVG 1.1//EN" "http://www.w3.org/Graphics/SVG/1.1/DTD/svg11.dtd" >
<svg xmlns="http://www.w3.org/2000/svg">
<metadata></metadata>
<defs>
<font id="pauzafotbook" horiz-adv-x="1011" >
<font-face units-per-em="2048" ascent="1434" descent="-614" />
<missing-glyph horiz-adv-x="471" />
<glyph unicode="&#xfb01;" horiz-adv-x="1087" d="M88 926v12q0 29 18.5 47.5t47.5 18.5h77v143q0 59 22.5 111.5t61.5 91.5t91.5 61.5t111.5 22.5h43q27 0 46.5 -18.5t19.5 -47.5v-12q0 -29 -19.5 -47.5t-46.5 -18.5h-43q-59 0 -101 -42t-42 -101v-143h471q27 0 46 -18.5t19 -47.5v-872q0 -29 -19.5 -47.5t-45.5 -18.5 h-12q-29 0 -47.5 18.5t-18.5 47.5v794h-393v-794q0 -29 -18.5 -47.5t-47.5 -18.5h-12q-29 0 -47.5 18.5t-18.5 47.5v794h-77q-29 0 -47.5 18.5t-18.5 47.5zM760 1348v14q0 29 21.5 50.5t49.5 21.5h15q29 0 50.5 -21.5t21.5 -50.5v-14q0 -29 -22 -50.5t-50 -21.5h-15 q-29 0 -50 21.5t-21 50.5z" />
<glyph unicode="&#xfb02;" horiz-adv-x="1124" d="M88 926v12q0 29 18.5 47.5t47.5 18.5h77v143q0 59 22.5 111.5t61.5 91.5t91.5 61.5t111.5 22.5h330q29 0 47 -18.5t18 -47.5v-1153q0 -29 21.5 -50.5t50.5 -21.5h6q29 0 47.5 -18.5t18.5 -46.5v-12q0 -29 -18.5 -47.5t-47.5 -18.5h-6q-45 0 -84 16.5t-68.5 46t-46 68.5 t-16.5 84v1075h-252q-59 0 -101 -42t-42 -101v-143h186q27 0 45.5 -18.5t18.5 -47.5v-12q0 -29 -18.5 -47.5t-45.5 -18.5h-186v-794q0 -29 -18.5 -47.5t-47.5 -18.5h-12q-29 0 -47.5 18.5t-18.5 47.5v794h-77q-29 0 -47.5 18.5t-18.5 47.5z" />
<glyph horiz-adv-x="2048" />
<glyph horiz-adv-x="2048" />
<glyph unicode="&#xd;" horiz-adv-x="530" />
<glyph unicode=" "  horiz-adv-x="471" />
<glyph unicode="&#x09;" horiz-adv-x="471" />
<glyph unicode="&#xa0;" horiz-adv-x="471" />
<glyph unicode="!" horiz-adv-x="421" d="M121 82v14q0 35 23.5 58.5t58.5 23.5h16q35 0 58.5 -22.5t23.5 -57.5v-16q0 -35 -23.5 -58.5t-58.5 -23.5h-16q-35 0 -58.5 23.5t-23.5 58.5zM139 352v658q0 29 18.5 47t47.5 18h12q27 0 46.5 -18.5t19.5 -46.5v-658q0 -29 -19.5 -47t-46.5 -18h-12q-29 0 -47.5 18.5 t-18.5 46.5z" />
<glyph unicode="&#x22;" horiz-adv-x="620" d="M80 713l88 248q10 25 33.5 37t50.5 1l10 -4q27 -10 39 -33.5t2 -50.5l-88 -247q-10 -25 -33.5 -37.5t-50.5 -1.5l-12 4q-25 10 -37 33.5t-2 50.5zM330 713l88 248q10 25 33.5 37t50.5 1l12 -4q25 -10 37 -33.5t2 -50.5l-88 -247q-10 -25 -33.5 -37.5t-50.5 -1.5l-10 4 q-27 10 -39.5 33.5t-1.5 50.5z" />
<glyph unicode="#" horiz-adv-x="927" d="M70 315v13q0 29 18 47t47 18h78v215h-78q-29 0 -47 19.5t-18 46.5v12q0 29 18 47.5t47 18.5h78v186q0 29 18.5 47.5t47.5 18.5h12q29 0 47 -18.5t18 -47.5v-186h215v186q0 29 18.5 47.5t47.5 18.5h12q29 0 47.5 -18.5t18.5 -47.5v-186h78q29 0 47 -18.5t18 -47.5v-12 q0 -27 -18.5 -46.5t-46.5 -19.5h-78v-215h78q29 0 47 -18.5t18 -46.5v-13q0 -27 -18.5 -46t-46.5 -19h-78v-184q0 -29 -18.5 -47.5t-47.5 -18.5h-12q-29 0 -47.5 18.5t-18.5 47.5v184h-215v-184q0 -29 -18.5 -47.5t-46.5 -18.5h-12q-29 0 -47.5 18.5t-18.5 47.5v184h-78 q-29 0 -47 19.5t-18 45.5zM356 393h215v215h-215v-215z" />
<glyph unicode="$" horiz-adv-x="757" d="M70 235.5q6 22.5 28 36.5l17 9q27 16 53.5 3.5t38.5 -42.5q4 -10 14 -25.5t26.5 -31t38 -28t50.5 -18.5v359l-113 63q-41 25 -65.5 50.5t-36.5 52t-15.5 54t-1.5 56.5q4 86 68 148.5t164 76.5v88q0 27 10 46.5t43 19.5t43 -19.5t10 -46.5v-88q47 -6 81 -22t56.5 -34.5 t35 -37t16.5 -28.5q12 -31 -0.5 -53.5t-36.5 -32.5l-12 -5q-27 -10 -42.5 -1.5t-29.5 24.5q-10 10 -21.5 26.5t-46.5 26.5v-260l113 -63q72 -41 106.5 -107.5t30.5 -150.5q-2 -45 -22.5 -88t-53 -80t-77.5 -65t-97 -40v-92q0 -29 -10 -47.5t-43 -18.5t-43 18.5t-10 47.5v86 q-55 6 -99 26.5t-77 48t-54.5 58.5t-31.5 55q-10 23 -4 45.5zM248 768q-4 -39 17.5 -58.5t62.5 -41.5l8 -6v198q-39 -10 -63.5 -35.5t-24.5 -56.5zM442 152q45 23 74 60.5t31 76.5q4 51 -30 88t-75 61v-286z" />
<glyph unicode="%" horiz-adv-x="1017" d="M121 733v150q0 66 45 110.5t110 44.5q66 0 111 -45t45 -110v-150q0 -63 -45 -108t-111 -45t-110.5 45t-44.5 108zM231 733q0 -18 13.5 -30.5t31.5 -12.5t32 12.5t14 30.5v150q0 18 -13.5 31.5t-32.5 13.5q-18 0 -31.5 -13.5t-13.5 -31.5v-150zM258 36.5q-10 22.5 0 45.5 l383 924q10 23 31.5 33t46.5 -1l8 -4q23 -8 33 -30.5t0 -45.5l-381 -925q-10 -23 -31.5 -33t-44.5 0l-12 4q-23 10 -33 32.5zM586 156v149q0 63 45 108.5t110 45.5q66 0 111 -45t45 -109v-149q0 -66 -45 -111t-111 -45t-110.5 45t-44.5 111zM696 156q0 -18 13.5 -31.5 t31.5 -13.5t31.5 13t13.5 32v149q0 18 -13 30.5t-32 12.5q-18 0 -31.5 -12t-13.5 -31v-149z" />
<glyph unicode="&#x26;" horiz-adv-x="1347" d="M158 410q0 82 21.5 140t58 104t88 83t110.5 78q-27 31 -54.5 65.5t-51 73.5t-37.5 83t-14 93q0 63 23.5 120t66.5 96.5t101 63.5t128 24q68 0 126 -24t100 -64.5t65.5 -97t23.5 -120.5q0 -88 -45 -150.5t-114 -109.5q-20 -14 -41 -26l-36 -22.5t-32 -22.5l336 -418 q37 59 58.5 127.5t21.5 138.5q0 29 18.5 47.5t46.5 18.5h13q27 0 46 -18.5t19 -47.5q0 -98 -32.5 -199.5t-98.5 -179.5l121 -145q16 -20 17 -46t-17 -46l-8 -9q-18 -20 -51 -20t-50 20l-112 140q-23 -20 -54.5 -50t-77.5 -56.5t-109.5 -46t-151.5 -19.5q-104 0 -184.5 30.5 t-132.5 86t-78.5 133t-26.5 172.5zM309 414q0 -131 66.5 -210t202.5 -79q41 0 76.5 6t70.5 21.5t74 43t86 68.5l-365 453q-47 -33 -85 -60.5t-66.5 -61.5t-44 -77t-15.5 -104zM432 1133q0 -25 7 -49.5t22.5 -52t40 -61.5t59.5 -77q10 6 22.5 14t24.5 19q14 8 31 20 q51 35 91 77t40 105q0 74 -49 123t-123 49t-120 -47t-46 -120z" />
<glyph unicode="'" horiz-adv-x="370" d="M80 713l88 248q10 25 33.5 37t50.5 1l10 -4q27 -10 39 -33.5t2 -50.5l-88 -247q-10 -25 -33.5 -37.5t-50.5 -1.5l-12 4q-25 10 -37 33.5t-2 50.5z" />
<glyph unicode="(" horiz-adv-x="507" d="M121 502q0 133 20.5 238.5t50 184.5t63.5 130t62 75q20 16 48 15.5t45 -21.5l8 -10q18 -20 17 -47t-23 -45q-23 -18 -48.5 -65.5t-47 -115t-37 -153.5t-15.5 -186t15.5 -187.5t37 -155t47 -114.5t48.5 -65t23.5 -45t-17.5 -48l-8 -10q-16 -20 -44 -21t-49 15 q-29 25 -62.5 76t-63 130t-50 184.5t-20.5 240.5z" />
<glyph unicode=")" horiz-adv-x="507" d="M76 -66q2 27 22 46q20 18 47 65t49.5 114.5t38 154.5t15.5 188q0 100 -15.5 186t-38 153.5t-49 115t-47.5 65.5q-20 18 -22 45t16 47l8 10q18 20 45 21.5t48 -15.5q27 -25 61.5 -75.5t64 -129.5t50 -184.5t20.5 -238.5q0 -135 -20.5 -240.5t-50 -184.5t-64.5 -130 t-61 -76q-20 -16 -47 -15t-46 21l-8 10q-18 20 -16 47z" />
<glyph unicode="*" horiz-adv-x="665" d="M74 1012l4 10q8 18 24.5 28.5t38.5 2.5l142 -49v157q0 18 14 31.5t35 13.5h10q23 0 35 -13t12 -36v-153l148 51q20 6 39.5 -4.5t23.5 -30.5l2 -8q4 -23 -5 -40.5t-30 -23.5l-141 -47l88 -121q14 -18 11 -38.5t-19 -32.5l-8 -7q-16 -12 -38 -6t-34 23l-88 119l-88 -123 q-14 -16 -33.5 -19.5t-36.5 6.5l-8 9q-16 14 -20.5 32.5t8.5 34.5l90 123l-144 49q-23 8 -31.5 25.5t-0.5 36.5z" />
<glyph unicode="+" horiz-adv-x="1097" d="M109 494v14q0 29 18 47t47 18h303v304q0 29 18.5 47t47.5 18h12q29 0 47.5 -18.5t18.5 -46.5v-304h303q29 0 47 -18t18 -47v-12q0 -29 -18.5 -47.5t-46.5 -18.5h-303v-303q0 -29 -18.5 -47.5t-47.5 -18.5h-14q-27 0 -45.5 18.5t-18.5 45.5v305h-305q-27 0 -45 18.5 t-18 45.5z" />
<glyph unicode="," horiz-adv-x="370" d="M80 -113l88 248q10 27 33.5 39t50.5 2l10 -4q27 -10 39 -34.5t2 -49.5l-88 -248q-10 -27 -33.5 -39t-50.5 -2l-12 4q-25 10 -37 34t-2 50z" />
<glyph unicode="-" horiz-adv-x="733" d="M80 496v12q0 29 18.5 47t46.5 18h443q29 0 47 -18t18 -47v-12q0 -29 -18.5 -47.5t-46.5 -18.5h-443q-29 0 -47 18.5t-18 47.5z" />
<glyph unicode="." horiz-adv-x="352" d="M86 82v14q0 35 23.5 58.5t58.5 23.5h14q35 0 59.5 -23.5t24.5 -58.5v-14q0 -35 -23.5 -58.5t-58.5 -23.5h-16q-35 0 -58.5 23.5t-23.5 58.5z" />
<glyph unicode="/" horiz-adv-x="663" d="M53 -88l434 1227q10 27 34 39t50 2l13 -4q25 -10 37 -34t2 -50l-435 -1227q-10 -27 -33.5 -39t-50.5 -2l-12 4q-25 10 -37 33.5t-2 50.5z" />
<glyph unicode="0" horiz-adv-x="886" d="M121 322v395q0 68 25.5 126t69.5 101t102.5 68.5t123.5 25.5q68 0 126.5 -25.5t102.5 -68.5t69.5 -101.5t25.5 -125.5v-395q0 -66 -25.5 -124.5t-69.5 -102.5t-102.5 -69.5t-124.5 -25.5q-68 0 -126 25.5t-102 69.5t-69.5 102.5t-25.5 124.5zM264 322q0 -74 52.5 -126.5 t125.5 -52.5q76 0 128.5 52.5t52.5 126.5v395q0 74 -52.5 126t-128.5 52q-74 0 -126 -52t-52 -126v-395z" />
<glyph unicode="1" horiz-adv-x="608" d="M123 835.5q2 26.5 24 43.5l181 145q16 14 43 14h12q29 0 47.5 -18.5t18.5 -46.5v-907q0 -29 -18.5 -47.5t-47.5 -18.5h-12q-29 0 -47.5 18.5t-18.5 47.5v755l-67 -53q-23 -18 -49.5 -15t-43.5 23l-8 10q-16 23 -14 49.5z" />
<glyph unicode="2" horiz-adv-x="886" d="M102 66v12q0 18 11.5 31.5t23.5 25.5l412 451q23 27 39 59.5t16 71.5q0 74 -52 126t-126 52q-37 0 -67.5 -13.5t-53 -34t-37 -46t-18.5 -49.5q-4 -27 -20.5 -46.5t-45.5 -19.5h-12q-29 0 -48.5 18.5t-17.5 47.5q4 63 33 116.5t74 91t100.5 58t112.5 20.5q68 0 126 -25.5 t101 -68.5t69 -101.5t26 -125.5q0 -72 -30 -130.5t-73 -107.5l-299 -336h373q27 0 46 -18.5t19 -46.5v-12q0 -29 -19.5 -47.5t-45.5 -18.5h-551q-27 0 -46.5 18.5t-19.5 47.5z" />
<glyph unicode="3" horiz-adv-x="886" d="M127 281q-4 29 16.5 50t49.5 21h12q25 0 43 -18.5t22 -46.5q10 -59 57.5 -101.5t118.5 -42.5q35 0 67 14.5t56.5 37t40 51t15.5 59.5v10q0 33 -14.5 64t-38 54.5t-56.5 37.5t-70 14h-47q-29 0 -47 18.5t-18 47.5v12q0 27 18.5 46.5t46.5 19.5h43q27 0 52.5 10t46 28.5 t33 42t12.5 52.5q0 59 -39 96t-98 37q-47 0 -75 -11.5t-43.5 -26.5t-22.5 -31.5t-9 -28.5q-10 -31 -39 -41.5t-55 6.5l-17 10q-23 14 -25.5 36.5t5.5 47.5q8 27 26.5 58.5t52.5 59t82 46t115 18.5q59 0 111.5 -21.5t90.5 -58t60.5 -87t22.5 -109.5q0 -53 -22.5 -105.5 t-65.5 -93.5q43 -33 85 -97t42 -142q0 -68 -25.5 -126.5t-69.5 -102.5t-102.5 -69.5t-126.5 -25.5q-63 0 -118.5 22.5t-97.5 60.5t-68.5 89t-32.5 109z" />
<glyph unicode="4" horiz-adv-x="886" d="M115 309l329 695q12 25 40 31.5t51 -5.5l10 -6q25 -14 31 -40t-5 -50l-274 -576h209v150q0 29 18.5 47t46.5 18h13q27 0 46 -18t19 -47v-150h78q27 0 46.5 -18t19.5 -47v-12q0 -29 -19.5 -47.5t-46.5 -18.5h-78v-149q0 -29 -19.5 -47.5t-45.5 -18.5h-13q-29 0 -47 18.5 t-18 47.5v149h-330q-35 0 -55.5 32t-5.5 62z" />
<glyph unicode="5" horiz-adv-x="886" d="M133 221.5q4 22.5 27 36.5l16 10q25 16 51.5 6t40.5 -41q6 -10 18.5 -25t33 -29.5t48 -25t62.5 -10.5q37 0 69.5 14.5t57.5 39t38 57.5t13 70v53q0 74 -50 126t-124 52q-53 0 -94 -27.5t-64 -74.5q-8 -16 -23 -28.5t-36 -12.5h-12q-29 0 -47.5 19.5t-18.5 45.5v488 q0 29 18.5 47t47.5 18h432q29 0 47 -18.5t18 -46.5v-13q0 -29 -18 -47t-47 -18h-354v-228q35 18 71.5 28.5t79.5 10.5q68 0 125 -25.5t100 -68.5t68 -101.5t25 -125.5v-53q0 -68 -25 -126.5t-69 -102.5t-102 -69.5t-126 -25.5q-59 0 -108.5 17.5t-86 44t-61 57.5t-35.5 57 q-10 23 -6 45.5z" />
<glyph unicode="6" horiz-adv-x="886" d="M121 322v36q0 16 5 54.5t19 70.5l250 523q10 25 38 31.5t50 -7.5l11 -4q25 -14 31.5 -39.5t-5.5 -50.5l-143 -291q8 4 28.5 10.5t61.5 6.5q63 0 118.5 -23t95.5 -62.5t62.5 -95t22.5 -123.5v-36q0 -68 -25.5 -126.5t-69.5 -101.5t-102.5 -68.5t-124.5 -25.5 q-68 0 -126 25.5t-102 68.5t-69.5 101.5t-25.5 126.5zM264 322q0 -74 52.5 -126.5t125.5 -52.5q76 0 128.5 52.5t52.5 126.5v36q0 74 -52.5 126.5t-128.5 52.5q-74 0 -126 -52.5t-52 -126.5v-36z" />
<glyph unicode="7" horiz-adv-x="886" d="M121 805v160q0 29 18.5 47t46.5 18h514q29 0 47.5 -18.5t18.5 -46.5v-50q0 -12 -2 -18l-295 -860q-10 -27 -35.5 -34t-52.5 3l-16 6q-16 8 -26.5 32t-0.5 50l270 793h-344v-82q0 -29 -19.5 -47.5t-45.5 -18.5h-13q-29 0 -47 18.5t-18 47.5z" />
<glyph unicode="8" horiz-adv-x="886" d="M121 322v6q0 78 32.5 142.5t90.5 109.5q-41 37 -65.5 86t-24.5 106q0 55 22.5 103.5t61 85t91 57t111.5 20.5t111.5 -20.5t91.5 -57t61.5 -85t22.5 -103.5t-22.5 -104.5t-63.5 -85.5q57 -45 91 -110.5t34 -143.5v-6q0 -66 -25.5 -124.5t-69.5 -102.5t-102.5 -69.5 t-124.5 -25.5q-68 0 -126 25.5t-102 69.5t-69.5 102.5t-25.5 124.5zM264 322q0 -74 52.5 -126.5t127.5 -52.5q74 0 125.5 52.5t53.5 126.5v6q0 37 -13.5 69.5t-38 56t-57.5 38t-70 14.5q-76 0 -128 -52.5t-52 -125.5v-6zM297 762q0 -55 42 -94t101 -39t101.5 39t42.5 94 q0 57 -42 96t-102 39q-59 0 -101 -39t-42 -96z" />
<glyph unicode="9" horiz-adv-x="886" d="M121 682v35q0 68 25.5 126t69.5 102t102.5 69.5t123.5 25.5q68 0 126.5 -25.5t102.5 -69.5t69.5 -102.5t25.5 -125.5v-35q0 -18 -5 -56t-20 -71l-249 -522q-10 -25 -38 -32t-51 7l-10 4q-25 14 -32 40t6 50l143 291q-8 -4 -28.5 -10t-61.5 -6q-63 0 -118.5 22.5 t-95.5 63.5t-62.5 96t-22.5 123zM264 682q0 -76 52.5 -128t127.5 -52q74 0 126.5 52t52.5 128v35q0 74 -52.5 127t-126.5 53q-76 0 -128 -53t-52 -127v-35z" />
<glyph unicode=":" horiz-adv-x="352" d="M86 82v14q0 35 23.5 58.5t58.5 23.5h14q35 0 59.5 -23.5t24.5 -58.5v-14q0 -35 -23.5 -58.5t-58.5 -23.5h-16q-35 0 -58.5 23.5t-23.5 58.5zM86 494v16q0 35 23.5 58.5t58.5 23.5h14q35 0 59.5 -23.5t24.5 -58.5v-16q0 -35 -23.5 -58.5t-58.5 -23.5h-16q-35 0 -58.5 23.5 t-23.5 58.5z" />
<glyph unicode=";" horiz-adv-x="387" d="M96 -113l88 248q10 27 34 39t50 2l11 -4q27 -10 39 -34.5t1 -49.5l-88 -248q-10 -27 -33.5 -39t-50.5 -2l-12 4q-25 10 -37 34t-2 50zM143 494v16q0 35 23.5 58.5t58.5 23.5h17q35 0 58.5 -23.5t23.5 -58.5v-16q0 -35 -24 -58.5t-58 -23.5h-17q-35 0 -58.5 23.5 t-23.5 58.5z" />
<glyph unicode="&#x3c;" horiz-adv-x="1185" d="M111 446q-68 55 0 111l342 277q23 18 49 15t43 -24l8 -10q16 -23 15 -49.5t-23 -42.5l-203 -150h723q29 0 47 -18t18 -47v-12q0 -29 -18 -47.5t-47 -18.5h-723l203 -149q23 -16 23.5 -43t-15.5 -50l-8 -10q-16 -20 -43 -23t-49 15z" />
<glyph unicode="=" horiz-adv-x="815" d="M121 352v13q0 29 18.5 47t46.5 18h443q29 0 47 -18.5t18 -46.5v-13q0 -29 -18.5 -47t-46.5 -18h-443q-29 0 -47 18.5t-18 46.5zM121 639v12q0 29 18.5 47.5t46.5 18.5h443q29 0 47 -18.5t18 -47.5v-12q0 -29 -18.5 -47.5t-46.5 -18.5h-443q-29 0 -47 18.5t-18 47.5z" />
<glyph unicode="&#x3e;" horiz-adv-x="1185" d="M90 496v12q0 29 18.5 47t47.5 18h725l-203 150q-23 16 -25 43t15 49l8 10q16 20 42.5 23.5t49.5 -14.5l342 -277q68 -55 0 -111l-342 -276q-23 -18 -49.5 -15t-42.5 23l-8 10q-16 23 -14.5 49.5t24.5 43.5l203 149h-725q-29 0 -47.5 18.5t-18.5 47.5z" />
<glyph unicode="?" horiz-adv-x="737" d="M43 752q0 68 25.5 126t68.5 102t101.5 69.5t126.5 25.5t126 -25.5t102 -69.5t69.5 -102t25.5 -126q0 -66 -25.5 -124.5t-69.5 -102.5t-102.5 -69.5t-125.5 -25.5v-78q0 -29 -18.5 -47t-47.5 -18h-12q-27 0 -46.5 18.5t-19.5 46.5v156q0 29 19.5 47t46.5 18h78 q76 0 128 52.5t52 126.5q0 76 -52.5 128t-127.5 52q-74 0 -126.5 -52.5t-52.5 -127.5q0 -27 -18 -46.5t-47 -19.5h-12q-29 0 -47.5 19.5t-18.5 46.5zM205 82v14q0 35 23.5 58.5t58.5 23.5h14q35 0 58.5 -22.5t23.5 -57.5v-16q0 -35 -23.5 -58.5t-58.5 -23.5h-14 q-35 0 -58.5 23.5t-23.5 58.5z" />
<glyph unicode="@" horiz-adv-x="1656" d="M147 -143v1218q0 74 28 139.5t77 114.5t114.5 77t139.5 28h717q59 0 111 -22.5t91 -61.5t61.5 -91.5t22.5 -111.5l-2 -862q0 -59 -22.5 -111.5t-61.5 -90.5t-91 -60.5t-111 -22.5h-152q-29 0 -47 18.5t-18 47.5v38q-25 -31 -58 -53q-29 -20 -70.5 -35.5t-99.5 -15.5 q-57 0 -106 24.5t-86 63.5t-57.5 89t-20.5 104v471q0 51 19.5 97t54 81t80 54.5t98.5 19.5h327q27 0 46.5 -19.5t19.5 -48.5v-793h68q59 0 102 41t43 101v862q0 59 -41 101t-100 42h-717q-45 0 -84 -17.5t-68.5 -46t-46 -67.5t-16.5 -84v-1218q0 -29 21.5 -50.5t49.5 -21.5 h795q29 0 47.5 -18.5t18.5 -47.5v-12q0 -29 -18.5 -47t-47.5 -18h-795q-45 0 -83.5 16t-68.5 46t-46.5 69t-16.5 84zM649 270q0 -23 12.5 -45t31 -40.5t43 -30t48.5 -11.5q45 0 85 14.5t71 42t49.5 66.5t18.5 90v504h-250q-45 0 -77 -31.5t-32 -76.5v-482z" />
<glyph unicode="A" horiz-adv-x="944" d="M31 84l375 1300q16 51 71 52q53 0 70 -52l375 -1300q3 -9 3 -18q-1 -16 -11 -32q-16 -24 -42 -30l-12 -2q-8 -2 -15 -2q-18 0 -33 10q-21 14 -30 41l-104 379h-404l-104 -379q-6 -27 -28 -41q-16 -10 -34 -10q-8 0 -16 2l-12 2q-27 6 -42 30q-10 15 -10 32q0 9 3 18z M313 573h326l-135 492l-27 117l-28 -117z" />
<glyph unicode="B" horiz-adv-x="1226" d="M211 66v1302q0 29 18.5 47.5t46.5 18.5h365q74 0 139.5 -28t114.5 -77t76.5 -114.5t27.5 -139.5q0 -39 -9 -80t-26.5 -76.5t-41 -63.5t-52.5 -40q43 -12 79 -43t63.5 -74t43 -94t15.5 -102v-215q0 -59 -22.5 -111.5t-61.5 -91.5t-91 -61.5t-112 -22.5h-508 q-29 0 -47 18.5t-18 47.5zM354 143h430q59 0 101.5 42t42.5 102v215q0 45 -17.5 84t-46 67.5t-67.5 46t-84 17.5h-359v-574zM354 860h287q45 0 84 16.5t67.5 46t46 68.5t17.5 84t-17.5 84t-46 67.5t-67.5 46t-84 17.5h-287v-430z" />
<glyph unicode="C" horiz-adv-x="1077" d="M156 287v788q0 74 27.5 139.5t76.5 114.5t114.5 77t139.5 28h365q29 0 47 -18.5t18 -47.5v-12q0 -29 -18.5 -47.5t-46.5 -18.5h-365q-45 0 -84 -17.5t-68.5 -46t-46 -67.5t-16.5 -84v-788q0 -59 42 -101.5t101 -42.5h437q29 0 47 -18.5t18 -46.5v-12q0 -29 -18.5 -47.5 t-46.5 -18.5h-437q-59 0 -111 22.5t-91 61.5t-61.5 91t-22.5 112z" />
<glyph unicode="D" horiz-adv-x="1226" d="M211 66v1302q0 29 18.5 47.5t46.5 18.5h437q74 0 139.5 -28t114.5 -77t76.5 -114.5t27.5 -139.5v-788q0 -59 -22.5 -111.5t-61.5 -91.5t-91 -61.5t-112 -22.5h-508q-29 0 -47 18.5t-18 47.5zM354 143h430q59 0 101.5 42t42.5 102v788q0 45 -17.5 84t-46 67.5t-67.5 46 t-84 17.5h-359v-1147z" />
<glyph unicode="E" horiz-adv-x="1112" d="M211 66v1302q0 29 18.5 47.5t46.5 18.5h658q29 0 47 -18.5t18 -47.5v-12q0 -29 -18 -47.5t-47 -18.5h-580v-430h508q29 0 47.5 -18.5t18.5 -46.5v-13q0 -29 -18.5 -47t-47.5 -18h-508v-574h580q29 0 47 -18.5t18 -46.5v-12q0 -29 -18 -47.5t-47 -18.5h-658 q-29 0 -47 18.5t-18 47.5z" />
<glyph unicode="F" horiz-adv-x="1071" d="M211 66v1302q0 29 18.5 47.5t46.5 18.5h658q29 0 47 -18.5t18 -47.5v-12q0 -29 -18 -47.5t-47 -18.5h-580v-430h437q29 0 47 -18.5t18 -46.5v-13q0 -29 -18.5 -47t-46.5 -18h-437v-651q0 -29 -18.5 -47.5t-46.5 -18.5h-13q-29 0 -47 18.5t-18 47.5z" />
<glyph unicode="G" horiz-adv-x="1173" d="M156 287v788q0 74 27.5 139.5t76.5 114.5t114.5 77t139.5 28h436q29 0 47.5 -18.5t18.5 -47.5v-12q0 -29 -18.5 -47.5t-47.5 -18.5h-436q-45 0 -84 -17.5t-68.5 -46t-46 -67.5t-16.5 -84v-788q0 -59 42 -101.5t101 -42.5h430v574h-221q-29 0 -47 18.5t-18 46.5v13 q0 29 18.5 47t46.5 18h299q29 0 47.5 -18.5t18.5 -46.5v-729q0 -29 -18.5 -47.5t-47.5 -18.5h-71h-437q-59 0 -111 22.5t-91 61.5t-61.5 91t-22.5 112z" />
<glyph unicode="H" horiz-adv-x="1282" d="M211 66v1302q0 29 18.5 47.5t46.5 18.5h13q29 0 47 -18.5t18 -47.5v-508h574v508q0 29 18.5 47.5t46.5 18.5h13q29 0 47 -18.5t18 -47.5v-1302q0 -29 -18.5 -47.5t-46.5 -18.5h-13q-29 0 -47 18.5t-18 47.5v651h-574v-651q0 -29 -18.5 -47.5t-46.5 -18.5h-13 q-29 0 -47 18.5t-18 47.5z" />
<glyph unicode="I" horiz-adv-x="565" d="M211 66v1302q0 29 18.5 47.5t46.5 18.5h13q29 0 47 -18.5t18 -47.5v-1302q0 -29 -18.5 -47.5t-46.5 -18.5h-13q-29 0 -47 18.5t-18 47.5z" />
<glyph unicode="J" horiz-adv-x="811" d="M47 66v12q0 29 18.5 47t47.5 18h77q59 0 111.5 22.5t91.5 61.5t61.5 91.5t22.5 111.5v938q0 29 18.5 47.5t47.5 18.5h12q29 0 47.5 -18.5t18.5 -47.5v-938q0 -90 -34 -168t-92.5 -136t-137 -92t-167.5 -34h-77q-29 0 -47.5 18.5t-18.5 47.5z" />
<glyph unicode="K" horiz-adv-x="1099" d="M211 66v1302q0 29 18.5 47.5t46.5 18.5h13q29 0 47 -18.5t18 -47.5v-580l596 625q18 20 45 20.5t47 -18.5l9 -8q20 -18 20 -45t-18 -47l-469 -494l475 -708q14 -23 11 -49.5t-26 -43.5l-10 -8q-18 -13 -39 -13q-5 0 -11 1q-26 4 -40 27l-461 688l-129 -135v-514 q0 -29 -18.5 -47.5t-46.5 -18.5h-13q-29 0 -47 18.5t-18 47.5z" />
<glyph unicode="L" horiz-adv-x="1060" d="M211 66v1302q0 29 18.5 47.5t46.5 18.5h13q29 0 47 -18.5t18 -47.5v-1225h580q29 0 47 -18.5t18 -46.5v-12q0 -29 -18 -47.5t-47 -18.5h-658q-29 0 -47 18.5t-18 47.5z" />
<glyph unicode="M" horiz-adv-x="1390" d="M211 66v1302q0 29 18.5 47.5t46.5 18.5h7q23 0 37 -13.5t24 -29.5l320 -480l30 -57l33 57l317 480q12 16 26.5 29.5t35.5 13.5h8q27 0 46.5 -18.5t19.5 -47.5v-1302q0 -29 -19.5 -47.5t-46.5 -18.5h-12q-29 0 -47.5 18.5t-18.5 47.5v1046l4 35l-18 -35l-236 -358 q-6 -10 -30.5 -33t-61.5 -23q-35 0 -59.5 22.5t-30.5 33.5l-237 358l-19 39l6 -39v-1046q0 -29 -18.5 -47.5t-46.5 -18.5h-13q-29 0 -47 18.5t-18 47.5z" />
<glyph unicode="N" horiz-adv-x="1282" d="M211 66v1302q0 29 18.5 47.5t46.5 18.5h13q39 0 57 -37l567 -1026l25 -68l-10 68v997q0 29 18.5 47.5t46.5 18.5h13q29 0 47 -18.5t18 -47.5v-1302q0 -29 -18.5 -47.5t-46.5 -18.5h-9q-18 0 -34.5 9t-26.5 28l-565 1020l-25 69l8 -69v-991q0 -29 -18.5 -47.5t-46.5 -18.5 h-13q-29 0 -47 18.5t-18 47.5z" />
<glyph unicode="O" horiz-adv-x="1171" d="M156 358v717q0 74 27.5 139.5t76.5 114.5t114.5 77t139.5 28h143q74 0 139.5 -28t115 -77t77 -114.5t27.5 -139.5v-717q0 -74 -27.5 -139t-77 -114.5t-115 -77t-139.5 -27.5h-143q-74 0 -139.5 27.5t-114.5 77t-76.5 115t-27.5 138.5zM299 358q0 -45 16.5 -83.5t46 -68.5 t68.5 -46.5t84 -16.5h143q45 0 84 16.5t68 46.5t46 68.5t17 83.5v717q0 45 -17 84t-46 67.5t-68 46t-84 17.5h-143q-45 0 -84 -17.5t-68.5 -46t-46 -67.5t-16.5 -84v-717z" />
<glyph unicode="P" horiz-adv-x="1157" d="M211 66v1302q0 29 18.5 47.5t46.5 18.5h437q74 0 139.5 -28t114.5 -77t76.5 -114.5t27.5 -139.5v-143q0 -74 -27.5 -139.5t-76.5 -114.5t-115 -77t-139 -28h-359v-507q0 -29 -18.5 -47.5t-46.5 -18.5h-13q-29 0 -47 18.5t-18 47.5zM354 717h359q45 0 84 16.5t67.5 46 t46 68.5t17.5 84v143q0 45 -17.5 84t-46 67.5t-67.5 46t-84 17.5h-359v-573z" />
<glyph unicode="Q" horiz-adv-x="1253" d="M156 358v717q0 74 27.5 139.5t76.5 114.5t114.5 77t139.5 28h143q74 0 139.5 -28t115 -77t77 -114.5t27.5 -139.5v-717q0 -88 -37 -157l160 -152q20 -18 20 -45t-18 -47l-8 -8q-18 -20 -45 -21h-1q-27 0 -47 19l-149 139q-47 -41 -106.5 -63.5t-127.5 -22.5h-143 q-74 0 -139.5 27.5t-114.5 77t-76.5 115t-27.5 138.5zM299 358q0 -45 16.5 -83.5t46 -68.5t68.5 -46.5t84 -16.5h143q70 0 129 43l-127 121q-20 18 -21 45t19 47l9 11q18 18 44.5 19t47.5 -17l108 -105q6 25 6 51v717q0 45 -17 84t-46 67.5t-68 46t-84 17.5h-143 q-45 0 -84 -17.5t-68.5 -46t-46 -67.5t-16.5 -84v-717z" />
<glyph unicode="R" horiz-adv-x="1183" d="M211 66v1302q0 29 18.5 47.5t46.5 18.5h437q74 0 139.5 -28t114.5 -77t76.5 -114.5t27.5 -139.5v-143q0 -70 -24.5 -132.5t-68.5 -109.5t-103.5 -77.5t-126.5 -37.5l311 -462q14 -23 11 -49.5t-26 -43.5l-10 -8q-18 -13 -39 -13q-5 0 -11 1q-26 4 -40 27l-366 546h-224 v-507q0 -29 -18.5 -47.5t-46.5 -18.5h-13q-29 0 -47 18.5t-18 47.5zM354 717h359q45 0 84 16.5t67.5 46t46 68.5t17.5 84v143q0 45 -17.5 84t-46 67.5t-67.5 46t-84 17.5h-359v-573z" />
<glyph unicode="S" horiz-adv-x="1060" d="M86 211q0 27 18 47l9 8q18 20 45.5 21.5t46.5 -19.5l45 -41q41 -39 98.5 -61.5t126.5 -22.5h41q59 0 111.5 16.5t91.5 46.5t61.5 68.5t22.5 83.5q0 47 -23.5 86t-64.5 70l-463 334q-70 49 -109 110.5t-39 141.5q0 74 34 135t92.5 105t136 69t168.5 25h4q98 0 183 -35 t146 -92l41 -39q18 -18 19.5 -45t-19.5 -47l-8 -9q-18 -20 -45 -21t-47 19l-45 41q-39 39 -97.5 61.5t-127.5 22.5h-4q-59 0 -111.5 -13t-91.5 -38t-61.5 -59.5t-22.5 -79.5q0 -47 23.5 -77t64.5 -60l463 -334q68 -49 107.5 -119t39.5 -152q0 -74 -33.5 -139t-92 -114.5 t-137.5 -77t-167 -27.5h-41q-98 0 -183 35t-145 92l-41 39q-20 18 -20 45z" />
<glyph unicode="T" horiz-adv-x="983" d="M61 1356v12q0 29 18.5 47.5t47.5 18.5h729q29 0 47.5 -18.5t18.5 -47.5v-12q0 -29 -18.5 -47.5t-47.5 -18.5h-293v-1224q0 -29 -18.5 -47.5t-46.5 -18.5h-13q-29 0 -47 18.5t-18 47.5v1224h-293q-29 0 -47.5 18.5t-18.5 47.5z" />
<glyph unicode="U" horiz-adv-x="1241" d="M190 430v938q0 29 18.5 47.5t47.5 18.5h12q29 0 47.5 -18.5t18.5 -47.5v-938q0 -59 22.5 -111.5t61.5 -91.5t91 -61.5t112 -22.5q59 0 111 22.5t91 61.5t61.5 91.5t22.5 111.5v938q0 29 18.5 47.5t47.5 18.5h12q29 0 47.5 -18.5t18.5 -47.5v-938q0 -90 -34 -168 t-92.5 -136t-137 -92t-166.5 -34q-90 0 -168 34t-136.5 92t-92.5 136t-34 168z" />
<glyph unicode="V" horiz-adv-x="927" d="M23 1352q-3 9 -3 18q0 17 10 32q15 23 42 30l12 2q8 2 15 2q19 0 35 -10q22 -14 28 -42l278 -1015l29 -117l27 119l278 1013q8 28 30 42q15 10 33 10q7 0 15 -2l12 -2q26 -6 42 -30q10 -15 10 -31q0 -9 -3 -19l-374 -1301q-16 -51 -70 -51q-55 0 -72 51z" />
<glyph unicode="W" horiz-adv-x="1361" d="M39 1352q-2 9 -2 18q0 18 9 33q13 22 42 29l10 2q8 2 16 2q20 0 36 -10q22 -14 28 -42l213 -1011l8 -133l19 88l178 608q10 39 34.5 53.5t53.5 14.5t50.5 -13.5t33.5 -54.5l184 -608l19 -88l6 133l215 1011q4 28 28 42q17 10 34 10q8 0 16 -2l12 -2q27 -6 40 -29 q10 -18 10 -38q0 -6 -1 -13l-274 -1301q-6 -25 -25.5 -38t-46.5 -13q-53 0 -70 51l-231 783l-229 -783q-16 -51 -72 -51q-25 0 -45.5 13.5t-24.5 37.5z" />
<glyph unicode="X" horiz-adv-x="1054" d="M34 61q-1 5 0 10q0 22 13 40l399 606l-399 606q-13 18 -13 38q0 5 1 11q4 26 26 41l11 8q18 12 37 12q6 0 12 -1q26 -5 43 -27l368 -559l367 559q16 23 43 28q6 1 12 1q20 0 37 -13l10 -8q23 -15 27 -41q1 -6 1 -12q0 -19 -11 -37l-402 -606l402 -606q11 -18 11 -38 q0 -5 -1 -11q-4 -26 -27 -44l-10 -6q-18 -12 -37 -12q-6 0 -12 1q-26 5 -43 28l-367 557l-368 -557q-16 -23 -43 -28q-6 -1 -13 -1q-20 0 -36 12l-11 6q-23 16 -27 43z" />
<glyph unicode="Y" horiz-adv-x="1026" d="M21 1372q4 25 26 41l10 8q18 12 37 12q6 0 12 -1q27 -5 44 -27l368 -559l367 559q16 23 43 28q6 1 11 1q20 0 38 -13l10 -8q23 -16 27 -41q1 -6 1 -12q0 -19 -11 -37l-414 -631v-626q0 -29 -19.5 -47.5t-46.5 -18.5h-12q-29 0 -47.5 18.5t-18.5 47.5v628l-413 629 q-13 18 -13 38q0 5 1 11z" />
<glyph unicode="Z" horiz-adv-x="1093" d="M121 1356v12q0 29 18.5 47.5t46.5 18.5h721q14 0 31 -9l10 -6q25 -15 31 -41q2 -9 2 -17q0 -17 -8 -32l-658 -1186h600q29 0 47.5 -18.5t18.5 -46.5v-12q0 -29 -18.5 -47.5t-47.5 -18.5h-716q-20 0 -35 8l-10 8q-25 14 -31 40q-2 9 -2 17q0 16 8 31l657 1186h-600 q-29 0 -47 18.5t-18 47.5z" />
<glyph unicode="[" horiz-adv-x="522" d="M121 -221v1446q0 29 18.5 47t46.5 18h228q29 0 47 -18.5t18 -46.5v-13q0 -29 -18.5 -47t-46.5 -18h-150v-1290h150q29 0 47 -18.5t18 -47.5v-12q0 -29 -18.5 -47.5t-46.5 -18.5h-228q-29 0 -47 18.5t-18 47.5z" />
<glyph unicode="\" horiz-adv-x="663" d="M53 1092q-10 27 2.5 50t36.5 34l12 4q27 10 50.5 -2.5t33.5 -38.5l435 -1227q10 -27 -2.5 -50.5t-36.5 -33.5l-13 -4q-27 -10 -50 2t-34 39z" />
<glyph unicode="]" horiz-adv-x="522" d="M43 -209q0 29 18.5 47.5t47.5 18.5h149v1290h-149q-29 0 -47.5 18.5t-18.5 46.5v13q0 29 18.5 47t47.5 18h227q29 0 47 -18.5t18 -46.5v-1446q0 -29 -18 -47.5t-47 -18.5h-227q-29 0 -47.5 18.5t-18.5 47.5v12z" />
<glyph unicode="^" horiz-adv-x="1044" d="M151.5 945q-4.5 24 12.5 46l309 443q4 6 14.5 19t38.5 13q29 0 39 -13t15 -19l311 -443q14 -23 10 -46t-24 -38q-20 -14 -44 -10t-40 27l-267 379l-266 -379q-14 -23 -38.5 -27t-45.5 10q-20 14 -24.5 38z" />
<glyph unicode="_" horiz-adv-x="940" d="M0 -203q0 25 17.5 42.5t43.5 17.5h818q27 0 44 -17.5t17 -42.5t-17.5 -42t-43.5 -17h-818q-27 0 -44 17.5t-17 41.5z" />
<glyph unicode="`" horiz-adv-x="985" d="M256 1483.5q0 25.5 18 42.5q16 16 42 15t42 -19l199 -207q16 -18 16 -44t-16 -42q-18 -16 -43 -15.5t-43 19.5l-197 207q-18 18 -18 43.5z" />
<glyph unicode="a" horiz-adv-x="995" d="M104 250v72q0 51 19.5 97t53.5 81t80 54t97 19h324v144q0 59 -42 101t-101 42h-293q-29 0 -47.5 18.5t-18.5 47.5v12q0 29 18.5 47.5t47.5 18.5h293q59 0 111 -23t91 -61.5t61.5 -91t22.5 -111.5v-651q0 -29 -18.5 -47.5t-46.5 -18.5h-402q-51 0 -97 19.5t-80 53 t-53.5 80t-19.5 97.5zM248 250q0 -45 31.5 -76t74.5 -31h324v287h-324q-43 0 -74.5 -31.5t-31.5 -76.5v-72z" />
<glyph unicode="b" horiz-adv-x="1032" d="M184 66v1302q0 29 18.5 47.5t47.5 18.5h12q29 0 47.5 -18.5t18.5 -47.5v-364h286q59 0 111.5 -23t91.5 -61.5t61.5 -91t22.5 -111.5v-467q0 -51 -19.5 -97.5t-54 -80t-81 -53t-97.5 -19.5h-399q-29 0 -47.5 18.5t-18.5 47.5zM328 143h321q45 0 77 31t32 76v467 q0 59 -42 101t-102 42h-286v-717z" />
<glyph unicode="c" horiz-adv-x="870" d="M129 215v502q0 59 22.5 111.5t61.5 91t91 61.5t112 23h293q29 0 47 -18.5t18 -47.5v-12q0 -29 -18.5 -47.5t-46.5 -18.5h-293q-59 0 -101.5 -42t-42.5 -101v-502q0 -29 21.5 -50.5t50.5 -21.5h365q29 0 47 -18.5t18 -46.5v-12q0 -29 -18.5 -47.5t-46.5 -18.5h-365 q-45 0 -84 16.5t-68.5 46t-46 68.5t-16.5 84z" />
<glyph unicode="d" horiz-adv-x="1032" d="M131 250v467q0 59 22.5 111.5t61.5 91t91 61.5t112 23h287v364q0 29 18 47.5t47 18.5h12q29 0 47.5 -18.5t18.5 -47.5v-1302q0 -29 -18.5 -47.5t-47.5 -18.5h-401q-51 0 -97 19.5t-80 53t-53.5 80t-19.5 97.5zM274 250q0 -45 32 -76t75 -31h324v717h-287 q-59 0 -101.5 -42t-42.5 -101v-467z" />
<glyph unicode="e" d="M129 287v358q0 74 28.5 139.5t77 114.5t114 77t138.5 28h37q74 0 139.5 -28t114.5 -77t77 -114.5t28 -139.5v-149q-2 -29 -20.5 -47.5t-45.5 -18.5h-545v-143q0 -59 42 -101.5t102 -42.5h364q29 0 47.5 -18.5t18.5 -46.5v-12q0 -29 -18.5 -47.5t-47.5 -18.5h-364 q-59 0 -111.5 22.5t-91.5 61.5t-61.5 91t-22.5 112zM272 573h467v72q0 45 -17 84t-46 67.5t-68 46t-84 17.5h-37q-45 0 -83.5 -17.5t-68.5 -46t-46.5 -67.5t-16.5 -84v-72z" />
<glyph unicode="f" horiz-adv-x="724" d="M88 926v12q0 29 18.5 47.5t47.5 18.5h77v143q0 59 22.5 111.5t61.5 91.5t91.5 61.5t111.5 22.5h78q29 0 47.5 -18.5t18.5 -47.5v-12q0 -29 -18.5 -47.5t-47.5 -18.5h-78q-59 0 -101 -42t-42 -101v-143h221q29 0 47.5 -18.5t18.5 -47.5v-12q0 -29 -18.5 -47.5t-47.5 -18.5 h-221v-794q0 -29 -18.5 -47.5t-47.5 -18.5h-12q-29 0 -47.5 18.5t-18.5 47.5v794h-77q-29 0 -47.5 18.5t-18.5 47.5z" />
<glyph unicode="g" horiz-adv-x="1013" d="M131 215v502q0 59 22.5 111.5t61.5 91t91 61.5t112 23h346q29 0 47 -18.5t18 -47.5v-1010q0 -59 -22.5 -111.5t-61 -91t-91 -61t-111.5 -22.5h-275q-29 0 -47 18t-18 47v12q0 29 18.5 47.5t46.5 18.5h275q59 0 101 42t42 101v72h-340q-45 0 -84 16.5t-68.5 46t-46 68.5 t-16.5 84zM274 215q0 -29 21.5 -50.5t50.5 -21.5h340v717h-268q-59 0 -101.5 -42t-42.5 -101v-502z" />
<glyph unicode="h" horiz-adv-x="1075" d="M184 66v1302q0 29 18.5 47.5t47.5 18.5h12q29 0 47.5 -18.5t18.5 -47.5v-364h286q59 0 111.5 -23t91.5 -61.5t61.5 -91t22.5 -111.5v-651q0 -29 -18.5 -47.5t-46.5 -18.5h-13q-29 0 -47 18.5t-18 47.5v651q0 59 -42 101t-102 42h-286v-794q0 -29 -18.5 -47.5t-47.5 -18.5 h-12q-29 0 -47.5 18.5t-18.5 47.5z" />
<glyph unicode="i" horiz-adv-x="497" d="M160 1337v13q0 35 23.5 58.5t58.5 23.5h14q35 0 58.5 -24t23.5 -58v-13q0 -35 -23.5 -58.5t-58.5 -23.5h-14q-35 0 -58.5 24t-23.5 58zM178 66v872q0 29 18.5 47.5t47.5 18.5h12q27 0 46.5 -18.5t19.5 -47.5v-872q0 -29 -19.5 -47.5t-46.5 -18.5h-12q-29 0 -47.5 18.5 t-18.5 47.5z" />
<glyph unicode="j" horiz-adv-x="577" d="M-31 -281q0 29 18.5 47.5t47.5 18.5h78q59 0 101 42t42 101v1010q0 29 18.5 47.5t47.5 18.5h12q29 0 47 -18.5t18 -47.5v-1010q0 -59 -22.5 -111.5t-61.5 -91t-91 -61t-111 -22.5h-78q-29 0 -47.5 18t-18.5 47v12zM240 1339v13q0 35 23.5 58.5t58.5 23.5h12 q35 0 58.5 -24t23.5 -58v-13q0 -35 -23.5 -58.5t-58.5 -23.5h-12q-35 0 -58.5 24t-23.5 58z" />
<glyph unicode="k" horiz-adv-x="968" d="M184 66v1302q0 29 18.5 47.5t47.5 18.5h12q29 0 47.5 -18.5t18.5 -47.5v-733l460 354q23 16 49.5 13t43.5 -25l6 -8q13 -19 13 -41v-8q-3 -26 -26 -43l-251 -195l270 -580q8 -16 8 -32q0 -9 -3 -18q-7 -25 -32 -38l-10 -6q-16 -9 -32 -9q-10 0 -20 3q-26 8 -36 33 l-260 557l-180 -139v-387q0 -29 -18.5 -47.5t-47.5 -18.5h-12q-29 0 -47.5 18.5t-18.5 47.5z" />
<glyph unicode="l" horiz-adv-x="530" d="M178 215v1153q0 29 18.5 47.5t47.5 18.5h12q29 0 47.5 -18.5t18.5 -47.5v-1153q0 -29 21.5 -50.5t49.5 -21.5h6q29 0 47.5 -18.5t18.5 -46.5v-12q0 -29 -18.5 -47.5t-47.5 -18.5h-6q-45 0 -84 16.5t-68.5 46t-46 68.5t-16.5 84z" />
<glyph unicode="m" horiz-adv-x="1361" d="M184 66v872q0 29 18.5 47.5t47.5 18.5h651q59 0 111.5 -23t91.5 -61.5t61.5 -91t22.5 -111.5v-651q0 -29 -18.5 -47.5t-47.5 -18.5h-12q-29 0 -47.5 18.5t-18.5 47.5v651q0 59 -41.5 101t-101.5 42h-143v-794q0 -29 -18.5 -47.5t-47.5 -18.5h-12q-29 0 -47.5 18.5 t-18.5 47.5v794h-286v-794q0 -29 -18.5 -47.5t-47.5 -18.5h-12q-29 0 -47.5 18.5t-18.5 47.5z" />
<glyph unicode="n" horiz-adv-x="1075" d="M184 66v872q0 29 18.5 47.5t47.5 18.5h364q59 0 111.5 -23t91.5 -61.5t61.5 -91t22.5 -111.5v-651q0 -29 -18.5 -47.5t-46.5 -18.5h-13q-29 0 -47 18.5t-18 47.5v651q0 59 -42 101t-102 42h-286v-794q0 -29 -18.5 -47.5t-47.5 -18.5h-12q-29 0 -47.5 18.5t-18.5 47.5z " />
<glyph unicode="o" d="M129 358v287q0 74 28.5 139.5t77 114.5t114 77t138.5 28h37q74 0 139.5 -28t114.5 -77t77 -114.5t28 -139.5v-287q0 -74 -29 -139t-78 -114.5t-113.5 -77t-138.5 -27.5h-37q-74 0 -139 27.5t-114.5 77t-77 115t-27.5 138.5zM272 358q0 -45 16.5 -83.5t46.5 -68.5 t68.5 -46.5t83.5 -16.5h37q45 0 84 16.5t68 46.5t46 68.5t17 83.5v287q0 45 -17 84t-46 67.5t-68 46t-84 17.5h-37q-45 0 -83.5 -17.5t-68.5 -46t-46.5 -67.5t-16.5 -84v-287z" />
<glyph unicode="p" d="M184 -293v1231q0 29 18.5 47.5t47.5 18.5h346q59 0 111.5 -23t91.5 -61.5t61.5 -91t22.5 -111.5v-502q0 -45 -17.5 -84t-46 -68.5t-67.5 -46t-84 -16.5h-340v-293q0 -29 -18.5 -47t-47.5 -18h-12q-29 0 -47.5 18t-18.5 47zM328 143h340q31 0 51 21.5t20 50.5v502 q0 59 -42 101t-101 42h-268v-717z" />
<glyph unicode="q" d="M129 215v502q0 59 22.5 111.5t61.5 91t91 61.5t112 23h346q29 0 47 -18.5t18 -47.5v-1231q0 -29 -18 -47t-47 -18h-12q-27 0 -46.5 18t-19.5 47v293h-340q-45 0 -84 16.5t-68.5 46t-46 68.5t-16.5 84zM272 215q0 -29 21.5 -50.5t50.5 -21.5h340v717h-268 q-59 0 -101.5 -42t-42.5 -101v-502z" />
<glyph unicode="r" horiz-adv-x="839" d="M184 66v872q0 29 18.5 47.5t47.5 18.5h8q27 0 46.5 -18.5t19.5 -47.5l-2 -61l43 34q33 29 94 61t141 32h164q29 0 47 -18.5t18 -47.5v-12q0 -29 -18 -47.5t-47 -18.5h-164q-55 0 -100 -18.5t-80 -45t-58.5 -55t-33.5 -49.5v-626q0 -29 -18.5 -47.5t-47.5 -18.5h-12 q-29 0 -47.5 18.5t-18.5 47.5z" />
<glyph unicode="s" horiz-adv-x="907" d="M93 226q5 26 28 42l10 6q23 16 48.5 11.5t41.5 -27.5l39 -55q39 -59 117 -60h145q43 0 77 21.5t50 56.5q12 23 3 54.5t-31 48.5l-410 254q-35 23 -55.5 45t-30.5 44.5t-12 44t-2 44.5q0 49 25.5 94t65.5 79t91 54.5t102 20.5h111q72 0 134 -33t101 -90l37 -54 q16 -23 11 -49t-27 -43l-10 -6q-23 -16 -48.5 -11t-41.5 27l-39 56q-43 59 -117 59h-111q-41 0 -75.5 -21.5t-51.5 -56.5q-10 -23 -2 -48t31 -40l410 -254q35 -23 55 -48t30.5 -52t12.5 -53.5t2 -46.5q0 -49 -25.5 -93.5t-65.5 -76t-91.5 -51t-102.5 -19.5h-145 q-72 0 -134.5 33t-101.5 90l-37 53q-12 18 -12 37q0 7 1 13z" />
<glyph unicode="t" horiz-adv-x="763" d="M82 926v12q0 29 18.5 47.5t46.5 18.5h78v364q0 29 18.5 47.5t47.5 18.5h12q29 0 47.5 -18.5t18.5 -47.5v-364h221q29 0 47 -18.5t18 -47.5v-12q0 -29 -18.5 -47.5t-46.5 -18.5h-221v-573q0 -59 42 -101.5t101 -42.5h78q29 0 47 -18.5t18 -46.5v-12q0 -29 -18.5 -47.5 t-46.5 -18.5h-78q-59 0 -111.5 22.5t-91.5 61.5t-61.5 91t-22.5 112v573h-78q-29 0 -47 18.5t-18 47.5z" />
<glyph unicode="u" horiz-adv-x="1075" d="M174 287v651q0 29 18.5 47.5t47.5 18.5h12q29 0 47 -18.5t18 -47.5v-651q0 -59 42 -101.5t102 -42.5h287v795q0 29 18 47.5t47 18.5h12q29 0 47.5 -18.5t18.5 -47.5v-872q0 -29 -18.5 -47.5t-47.5 -18.5h-364q-59 0 -111.5 22.5t-91.5 61.5t-61.5 91t-22.5 112z" />
<glyph unicode="v" horiz-adv-x="761" d="M29 911q-3 10 -3 19q0 16 8 30q13 24 38 33l12 4q11 3 21 3q15 0 29 -7q24 -12 32 -39l211 -721l8 -61l10 61l209 721q8 28 32 40q14 7 28 7q11 0 22 -4l12 -4q24 -9 38 -33q8 -14 9 -29q0 -10 -4 -20l-276 -870q-8 -25 -30.5 -34t-49.5 -9q-23 0 -47.5 9t-32.5 34z" />
<glyph unicode="w" horiz-adv-x="1052" d="M27 911q-1 7 -1 14q0 19 8 35q11 22 36 33l12 4q11 3 21 3q15 0 31 -7q26 -12 30 -39l137 -682l6 -36l15 43l122 319q16 47 34 82t52 35q35 0 49.5 -35t32.5 -82l123 -319l13 -41l8 34l135 682q5 28 31 40q15 7 30 7q11 0 21 -4l12 -4q27 -11 38 -33q7 -15 7 -31 q0 -9 -2 -18l-182 -860q-6 -27 -34 -41q-22 -11 -35 -11q-4 0 -7 1l-25 8q-31 6 -53 72l-157 422l-5 28l-6 -30l-159 -420q-27 -66 -54 -72l-24 -8q-6 -2 -13 -2q-16 0 -34 12q-24 16 -31 41z" />
<glyph unicode="x" horiz-adv-x="854" d="M72 61q-1 5 -1 10q0 22 13 40l260 393l-260 391q-16 23 -11 49.5t27 42.5l11 6q18 12 37 12q6 0 12 -1q26 -5 43 -27l227 -344l229 344q16 23 43 28q6 1 12 1q20 0 38 -13l10 -6q23 -17 27 -43q1 -6 1 -11q0 -20 -12 -38l-262 -391l262 -393q12 -18 12 -37q0 -6 -1 -12 q-5 -26 -27 -44l-10 -6q-18 -12 -36 -12q-6 0 -12 1q-26 5 -42 28l-232 346l-229 -346q-16 -23 -43 -28q-6 -1 -13 -1q-20 0 -36 12l-11 6q-22 16 -26 43z" />
<glyph unicode="y" horiz-adv-x="790" d="M43 909q-5 12 -5 24q0 13 6 25q11 25 36 35l10 6q13 5 25 5q14 0 27 -6q24 -11 34 -35l236 -637l14 -70l8 70l199 630q10 27 33 40q13 8 27 8q11 0 22 -5l12 -4q27 -8 39 -31q7 -15 7 -30q0 -10 -3 -21l-352 -1122q-14 -43 -42 -74.5t-65 -51t-79 -23.5q-9 -1 -19 -1 q-33 0 -66 11l-6 2q-27 8 -39 31.5t-4 50.5l4 12q8 25 32 38t50 5l6 -2q29 -10 54.5 3t36.5 42l73 238z" />
<glyph unicode="z" horiz-adv-x="923" d="M106 926v12q0 29 18.5 47.5t47.5 18.5h559q9 2 16 2q22 0 39 -13l11 -6q23 -17 27 -43q1 -5 0 -10q0 -21 -11 -39l-500 -752h445q29 0 47 -18.5t18 -46.5v-12q0 -29 -18.5 -47.5t-46.5 -18.5h-565h-5q-5 -1 -10 -1q-19 0 -33 13l-10 6q-23 16 -28 43q-1 6 -1 12 q0 20 13 38l497 749h-444q-29 0 -47.5 18.5t-18.5 47.5z" />
<glyph unicode="{" horiz-adv-x="559" d="M90 498q0 33 43 49q39 14 62.5 59t23.5 88v326q0 92 49 163.5t129 102.5q25 10 49.5 -1t34.5 -38l4 -12q10 -25 -1 -49.5t-38 -34.5q-39 -16 -61.5 -51t-22.5 -80v-326q0 -57 -26.5 -115.5t-89.5 -80.5q33 -8 54.5 -30t35.5 -49.5t20 -59t6 -60.5v-315q0 -45 23 -80 t61 -51q27 -10 38.5 -35t0.5 -49l-4 -13q-10 -27 -34.5 -38t-49.5 -1q-80 31 -129 102.5t-49 164.5v315q0 43 -24.5 87t-61.5 60q-23 10 -33 20.5t-10 31.5z" />
<glyph unicode="|" horiz-adv-x="495" d="M176 -221v1446q0 29 18.5 47t47.5 18h12q29 0 47 -18.5t18 -46.5v-1446q0 -29 -18 -47.5t-47 -18.5h-12q-29 0 -47.5 18.5t-18.5 47.5z" />
<glyph unicode="}" horiz-adv-x="559" d="M80 -231q-10 25 2 49t37 35q39 16 62.5 51t23.5 80v315q0 29 6 60.5t19.5 59t36 49t52.5 30.5q-33 12 -54 33.5t-34.5 48t-19.5 56.5t-6 58v326q0 45 -23.5 80t-62.5 51q-25 10 -37 34.5t-2 49.5l4 12q10 27 34.5 38t49.5 1q80 -31 130 -102.5t50 -163.5v-326 q0 -43 22.5 -88t61.5 -59q43 -16 43 -49q0 -20 -10 -30.5t-33 -21.5q-37 -16 -60.5 -60t-23.5 -87v-315q0 -92 -50 -164t-130 -103q-25 -10 -49.5 1.5t-34.5 37.5z" />
<glyph unicode="~" horiz-adv-x="1054" d="M102.5 544.5q1.5 24.5 24.5 41.5q10 8 26.5 24.5t41 31.5t58.5 27.5t81 12.5q59 0 110.5 -17.5t98.5 -39t90 -39t86 -17.5q57 0 82.5 18.5t36.5 26.5q23 18 44 25.5t42 -10.5l14 -15q20 -18 19 -45.5t-23 -44.5q-41 -35 -87 -64.5t-128 -29.5q-53 0 -103.5 17.5t-98.5 39 t-92 39t-85 17.5q-55 0 -83 -19.5t-44 -31.5q-20 -18 -41.5 -21.5t-40.5 16.5l-12 13q-18 20 -16.5 44.5z" />
<glyph unicode="&#xa1;" horiz-adv-x="651" d="M266 1049v16q0 35 23.5 58.5t58.5 23.5h14q35 0 59.5 -23.5t24.5 -58.5v-16q0 -35 -23.5 -58.5t-57.5 -23.5h-17q-35 0 -58.5 23.5t-23.5 58.5zM285 -221v944q0 29 18.5 47t46.5 18h12q27 0 46.5 -18t19.5 -47v-944q0 -29 -19.5 -47.5t-46.5 -18.5h-12q-29 0 -47 18.5 t-18 47.5z" />
<glyph unicode="&#xa2;" horiz-adv-x="905" d="M129 430v502q0 59 22.5 111.5t61.5 91.5t91 61.5t112 22.5h28v153q0 25 17.5 43.5t42.5 18.5t42 -18.5t17 -43.5v-153h180q29 0 47.5 -18.5t18.5 -47.5v-12q0 -29 -18.5 -47.5t-47.5 -18.5h-180v-717h180q29 0 47.5 -18t18.5 -47v-12q0 -29 -18.5 -47.5t-47.5 -18.5h-180 v-154q0 -27 -17.5 -44t-41.5 -17q-25 0 -42.5 17.5t-17.5 43.5v154h-100q-45 0 -84 16.5t-68.5 46t-46 68.5t-16.5 84zM272 430q0 -29 21.5 -50.5t50.5 -21.5h100v717h-28q-59 0 -101.5 -42t-42.5 -101v-502z" />
<glyph unicode="&#xa3;" horiz-adv-x="1064" d="M96 729q0 25 17.5 42t44.5 17h84v287q0 74 27.5 139.5t76.5 113.5t114.5 77t139.5 29q111 0 190.5 -55.5t120.5 -123.5q12 -23 7 -45t-27 -36l-17 -11q-27 -16 -52 -7t-42 38q-6 12 -22.5 28.5t-39 32t-52 25.5t-66.5 10q-45 0 -84 -17.5t-68.5 -46t-46 -67.5t-16.5 -84 v-287h221q25 0 43.5 -17t18.5 -42t-18.5 -42t-43.5 -17h-221v-527h508q27 0 46 -18.5t19 -46.5v-12q0 -29 -19 -47.5t-46 -18.5h-586q-29 0 -47 18.5t-18 47.5v604h-84q-27 0 -44.5 17.5t-17.5 41.5z" />
<glyph unicode="&#xa4;" horiz-adv-x="1433" d="M137 -121v367h94v55h-51v844h1073v-844h-53v-55h96v-367h-1159zM193 -66h1048v254h-1048v-254zM236 358h962v732h-962v-732zM289 246h854v55h-854v-55zM305 727q0 43 3 94t7 99q6 53 13 106h780q4 -53 10 -106q4 -47 7 -98.5t3 -94.5q0 -45 -3 -96t-7 -99 q-6 -53 -10 -106h-780q-6 53 -13 106q-4 47 -7 98.5t-3 96.5zM362 727q0 -37 2.5 -76t5.5 -74.5t5 -61.5t4 -34h676q2 8 4 34t5 61.5t5 74.5t2 76t-2 76t-5 73.5t-5 60.5t-4 34h-676q-2 -8 -4 -34t-5 -60.5t-5.5 -73.5t-2.5 -76zM891 55v54h252v-54h-252z" />
<glyph unicode="&#xa5;" horiz-adv-x="1026" d="M21 1371.5q4 25.5 26 41.5l10 8q23 16 49.5 11t43.5 -27l368 -559l367 559q16 23 42.5 28t49.5 -12l10 -8q23 -16 27 -41.5t-10 -48.5l-273 -416h156q27 0 44 -17.5t17 -41.5q0 -25 -17.5 -42.5t-43.5 -17.5h-234l-63 -96v-119h297q27 0 44 -18t17 -43t-17.5 -41 t-43.5 -16h-297v-389q0 -29 -19.5 -47.5t-46.5 -18.5h-12q-29 0 -47.5 18.5t-18.5 47.5v387h-299q-27 0 -44 17t-17 42q0 27 17.5 43t43.5 16h299v123l-63 94h-236q-27 0 -44 17.5t-17 42.5t17.5 42t43.5 17h158l-272 416q-16 23 -12 48.5z" />
<glyph unicode="&#xa6;" horiz-adv-x="1433" d="M90 842q25 43 48.5 87t52 84t62.5 75.5t79 60.5l291 -365q-31 -41 -63 -73.5t-68 -55.5q66 -111 162 -211t204 -172q23 37 56.5 69t78.5 60l350 -301q-35 -49 -87 -92t-103 -76q-59 -37 -125 -67q-166 68 -318.5 149.5t-281.5 216.5q-127 131 -204 286t-134 325zM190 834 q29 -78 61 -153t70.5 -146.5t87 -138t109.5 -128.5q111 -104 239 -174.5t269 -126.5q51 27 99.5 55.5t88.5 65.5l-229 193q-33 -29 -53.5 -63t-38.5 -75q-137 80 -233.5 169t-159 169t-94 139.5t-39.5 79.5q92 37 137 86l-191 236q-39 -41 -66.5 -90t-56.5 -98z" />
<glyph unicode="&#xa7;" horiz-adv-x="1120" d="M177 602q1 76 44 152q35 61 69 82.5t52 37.5q-41 20 -67.5 51t-43 67t-22.5 75t-6 80q0 66 27.5 119t76.5 90t114.5 57.5t139.5 20.5q111 0 190.5 -55.5t120.5 -123.5q12 -23 8.5 -45t-26.5 -36l-16 -11q-29 -16 -54.5 -7t-42.5 38q-6 12 -22.5 28.5t-39 32t-52 25.5 t-66.5 10q-90 0 -152.5 -35.5t-62.5 -107.5q0 -41 7 -74t25.5 -60.5t52.5 -49t87 -37.5l191 -62q39 -12 90 -44t89 -85t51 -129t-19 -176q-12 -39 -33 -65.5t-40.5 -44t-37.5 -28.5t-27 -18q31 -23 56.5 -55.5t43 -72.5t28 -82.5t10.5 -81.5q0 -66 -28 -126.5t-77 -108.5 t-114.5 -76.5t-139.5 -28.5q-111 0 -190.5 55t-120.5 123q-12 23 -7 45t27 37l17 10q27 16 52.5 7t41.5 -38q6 -12 21.5 -28.5t39 -32t53 -25.5t66.5 -10q45 0 84 17.5t67.5 45t46 63.5t17.5 71q0 33 -3 66.5t-17.5 64t-43 56.5t-77.5 42l-232 72q-66 20 -118 68 t-80.5 111.5t-27.5 139.5zM330 645q-23 -72 12 -136.5t107 -86.5l118 -39q35 -10 71 -7t66.5 19.5t53.5 43t35 61.5q10 35 7 70.5t-19.5 66.5t-43 53.5t-61.5 34.5l-121 37q-35 12 -70.5 8t-66.5 -19.5t-53.5 -43t-34.5 -62.5z" />
<glyph unicode="&#xa8;" horiz-adv-x="817" d="M158 1356v12q0 29 18.5 47.5t46.5 18.5h13q29 0 47 -18.5t18 -47.5v-12q0 -29 -18.5 -47.5t-46.5 -18.5h-13q-29 0 -47 18.5t-18 47.5zM516 1356v12q0 29 18.5 47.5t47.5 18.5h12q29 0 47 -18.5t18 -47.5v-12q0 -29 -18 -47.5t-47 -18.5h-12q-29 0 -47.5 18.5t-18.5 47.5 z" />
<glyph unicode="&#xa9;" horiz-adv-x="1755" d="M160 717q0 147 56 278t153.5 228.5t228.5 154t279 56.5q147 0 278 -56.5t228.5 -154t153.5 -228.5t56 -278t-56 -278.5t-153.5 -228.5t-228.5 -153.5t-278 -56.5t-278.5 56.5t-229 153.5t-153.5 228t-56 279zM283 717q0 -123 47 -231.5t127 -188.5t188.5 -127t231.5 -47 t231.5 47t188 127t126.5 188.5t47 231.5t-47 231.5t-126.5 188.5t-188.5 127t-231 47q-123 0 -231.5 -47t-188.5 -127t-127 -188.5t-47 -231.5zM578 481v426q0 49 18 93t51 76t77 51.5t93 19.5h234q23 0 37 -15.5t14 -37.5v-7q0 -23 -14.5 -38t-36.5 -15h-234 q-53 0 -90 -36.5t-37 -90.5v-426q0 -35 23.5 -58.5t58.5 -23.5h279q23 0 37 -14t14 -37v-8q0 -23 -14.5 -38t-36.5 -15h-279q-41 0 -77 15t-61.5 42t-40.5 61.5t-15 75.5z" />
<glyph unicode="&#xaa;" horiz-adv-x="860" d="M115 465q0 25 17.5 41t41.5 16h455q25 0 42 -17t17 -40q0 -25 -17.5 -41t-41.5 -16h-455q-25 0 -42 17t-17 40zM115 831v58q0 84 58 142.5t142 58.5h258v114q0 47 -33.5 81t-80.5 34h-234q-23 0 -38 15.5t-15 37.5v8q0 23 15.5 38.5t37.5 15.5h234q47 0 89 -18.5 t72.5 -49.5t49 -73t18.5 -89v-520q0 -23 -15.5 -38t-37.5 -15h-320q-84 0 -142 58.5t-58 141.5zM229 831q0 -35 26 -60.5t60 -25.5h258v230h-258q-35 0 -60.5 -25.5t-25.5 -60.5v-58z" />
<glyph unicode="&#xab;" horiz-adv-x="1138" d="M82 549.5q0 25.5 18 44.5l318 317q18 16 43 17t43 -17q16 -16 16 -41.5t-18 -42.5l-277 -278l277 -277q16 -16 17 -41.5t-17 -42.5q-16 -18 -42 -17t-42 17l-318 318q-18 18 -18 43.5zM541 549.5q0 25.5 18 44.5l318 317q18 16 43 17t43 -17q16 -16 16 -41.5t-18 -42.5 l-277 -278l277 -277q16 -16 17 -41.5t-17 -42.5q-16 -18 -42 -17t-42 17l-318 318q-18 18 -18 43.5z" />
<glyph unicode="&#xac;" horiz-adv-x="1069" d="M104 496v12q0 29 18.5 47t47.5 18h733q27 0 44.5 -19t17.5 -46v-303q0 -29 -19.5 -47.5t-46.5 -18.5h-12q-29 0 -47.5 18.5t-18.5 47.5v225h-651q-29 0 -47.5 18.5t-18.5 47.5z" />
<glyph unicode="&#xad;" horiz-adv-x="733" d="M80 496v12q0 29 18.5 47t46.5 18h443q29 0 47 -18t18 -47v-12q0 -29 -18.5 -47.5t-46.5 -18.5h-443q-29 0 -47 18.5t-18 47.5z" />
<glyph unicode="&#xae;" horiz-adv-x="1755" d="M160 717q0 147 56 278t153.5 228.5t228.5 154t279 56.5q147 0 278 -56.5t228.5 -154t153.5 -228.5t56 -278t-56 -278.5t-153.5 -228.5t-228.5 -153.5t-278 -56.5t-278.5 56.5t-229 153.5t-153.5 228t-56 279zM283 717q0 -123 47 -231.5t127 -188.5t188.5 -127t231.5 -47 t231.5 47t188 127t126.5 188.5t47 231.5t-47 231.5t-126.5 188.5t-188.5 127t-231 47q-123 0 -231.5 -47t-188.5 -127t-127 -188.5t-47 -231.5zM610 340v754q0 23 15.5 38t38.5 15h278q49 0 93 -19.5t77 -51.5t51.5 -76t18.5 -93v-14q0 -90 -56.5 -155.5t-142.5 -80.5 l188 -282q14 -23 8.5 -44.5t-23 -32.5t-39 -10t-36.5 21l-231 344h-127v-313q0 -23 -15.5 -38t-37.5 -15h-6q-23 0 -38.5 15t-15.5 38zM723 766h219q53 0 90 37t37 90v14q0 53 -37 90t-90 37h-219v-268z" />
<glyph unicode="&#xaf;" horiz-adv-x="1058" d="M203 1303q0 25 17.5 42t43.5 17h531q27 0 44 -17t17 -42t-17.5 -42.5t-43.5 -17.5h-531q-27 0 -44 17.5t-17 42.5z" />
<glyph unicode="&#xb0;" horiz-adv-x="733" d="M102 772q0 55 20.5 103.5t56.5 85t84 57t104 20.5q55 0 103 -20.5t84 -57t56.5 -85t20.5 -103.5t-20.5 -103t-56.5 -84t-84 -56.5t-103 -20.5t-103.5 20.5t-84.5 56.5t-56.5 84t-20.5 103zM211 772q0 -66 45 -111t111 -45t107.5 45t41.5 111t-43 111t-108 45 q-66 0 -110 -45t-44 -111z" />
<glyph unicode="&#xb1;" horiz-adv-x="925" d="M104 66v12q0 29 18.5 47t47.5 18h586q29 0 47 -18.5t18 -46.5v-12q0 -29 -18.5 -47.5t-46.5 -18.5h-586q-29 0 -47.5 18.5t-18.5 47.5zM104 567v13q0 29 18.5 47t47.5 18h221v221q0 29 18.5 47.5t47.5 18.5h12q29 0 47.5 -18.5t18.5 -47.5v-221h221q29 0 47 -18.5 t18 -46.5v-13q0 -29 -18.5 -47t-46.5 -18h-221v-221q0 -29 -18.5 -47.5t-47.5 -18.5h-12q-29 0 -47.5 18.5t-18.5 47.5v221h-221q-29 0 -47.5 18.5t-18.5 46.5z" />
<glyph unicode="&#xb2;" horiz-adv-x="528" d="M102 584v4q0 10 6.5 18t12.5 17l186 202q12 14 23.5 28.5t11.5 31.5q0 27 -20.5 46t-49.5 19q-27 0 -46 -16t-21 -39q-4 -41 -43 -41h-12q-18 0 -31 12.5t-13 28.5q0 31 13.5 57.5t36 46t53.5 31.5t65 12q74 0 121 -47t47 -112q0 -35 -18 -62.5t-33 -44.5l-104 -121 l-23 -20l39 2h121q16 0 26.5 -12.5t10.5 -30.5v-10q0 -18 -10.5 -30.5t-26.5 -12.5h-279q-18 0 -30.5 12t-12.5 31z" />
<glyph unicode="&#xb3;" horiz-adv-x="520" d="M113 686q-2 14 8 24.5t22 10.5h7q10 0 18 -9.5t12 -21.5q4 -29 26.5 -48t55.5 -19t58.5 23.5t25.5 51.5v4q0 31 -24.5 55.5t-59.5 24.5h-22q-12 0 -21.5 9.5t-9.5 21.5v6q0 12 9 21.5t22 9.5h20q25 0 46.5 18.5t21.5 44.5q0 29 -17.5 45.5t-46.5 16.5q-45 0 -56 -17.5 t-15 -27.5q-4 -16 -17.5 -20.5t-25.5 3.5l-9 5q-10 6 -12 17t2 21q8 25 38 55.5t93 30.5q55 0 94 -36.5t39 -92.5q0 -57 -41 -94q20 -16 40 -45.5t20 -66.5q0 -63 -44 -107.5t-108 -44.5q-59 0 -101 39t-48 92z" />
<glyph unicode="&#xb4;" horiz-adv-x="985" d="M412 1270.5q0 25.5 18 44.5l197 207q18 18 42.5 19t43.5 -15q16 -16 16 -42t-16 -44l-199 -207q-16 -18 -42 -19.5t-42 15.5q-18 16 -18 41.5z" />
<glyph unicode="&#xb5;" horiz-adv-x="1071" d="M170 -293v1231q0 29 18.5 47.5t47.5 18.5h12q29 0 47 -18.5t18 -47.5v-586q0 -45 18.5 -83t49.5 -65.5t68.5 -44t74.5 -16.5q45 0 85 16.5t70 46.5t47 68.5t17 83.5v580q0 29 18.5 47.5t47.5 18.5h12q29 0 47.5 -18.5t18.5 -47.5v-938q0 -29 -18.5 -47.5t-47.5 -18.5h-12 q-29 0 -47.5 18.5t-18.5 47.5v90q-82 -90 -219 -90q-53 0 -89 11.5t-60.5 26.5t-38.5 29.5t-23 20.5v-381q0 -29 -18.5 -47t-46.5 -18h-12q-29 0 -47.5 18t-18.5 47z" />
<glyph unicode="&#xb6;" horiz-adv-x="1157" d="M86 1075q0 74 27.5 139.5t77 114.5t115 77t138.5 28h437q29 0 47 -18.5t18 -47.5v-1589q0 -29 -18.5 -47.5t-46.5 -18.5h-13q-29 0 -47 18.5t-18 47.5v1511h-144v-1511q0 -29 -18 -47.5t-47 -18.5h-12q-29 0 -47.5 18.5t-18.5 47.5v938h-72q-74 0 -139 27.5t-114.5 76.5 t-77 114.5t-27.5 139.5z" />
<glyph unicode="&#xb7;" horiz-adv-x="495" d="M145 522v17q0 39 28 66.5t67 27.5h14q41 0 67.5 -27.5t26.5 -66.5v-15q0 -41 -26.5 -67.5t-65.5 -26.5h-16q-39 0 -67 26.5t-28 65.5z" />
<glyph unicode="&#xb8;" horiz-adv-x="1058" d="M358.5 -300q-0.5 26 18.5 44l196 207q18 18 43 18t43 -16q16 -16 16.5 -41t-16.5 -43l-198 -207q-16 -18 -42 -19t-42 15q-18 16 -18.5 42z" />
<glyph unicode="&#xb9;" horiz-adv-x="475" d="M118 930.5q1 17.5 13 27.5l78 66q4 4 15.5 10t27.5 6h29q41 0 41 -36v-429q0 -37 -41 -36h-17q-16 0 -29.5 10t-13.5 26v332l-24 -20q-14 -10 -32 -9t-28 13l-8 8q-12 14 -11 31.5z" />
<glyph unicode="&#xba;" horiz-adv-x="876" d="M137 922v229q0 59 22.5 111.5t61.5 91.5t91.5 61.5t111.5 22.5h29q59 0 111 -22.5t91 -61.5t61.5 -91.5t22.5 -111.5v-229q0 -59 -22.5 -111.5t-61.5 -91.5t-91 -61.5t-111 -22.5h-29q-59 0 -111.5 22.5t-91.5 61.5t-61.5 91t-22.5 112zM145 465q0 25 17.5 41t42.5 16 h467q25 0 42 -17t17 -40q0 -25 -17.5 -41t-41.5 -16h-467q-25 0 -42.5 17t-17.5 40zM252 922q0 -72 50 -122t122 -50h29q72 0 122 50t50 122v229q0 35 -13.5 66.5t-37 55t-54.5 37t-67 13.5h-29q-72 0 -122 -50t-50 -122v-229z" />
<glyph unicode="&#xbb;" horiz-adv-x="1138" d="M158 869q0 26 16 42q18 18 43 17.5t43 -17.5l318 -317q18 -18 18 -44t-18 -44l-318 -318q-16 -16 -41.5 -17t-42.5 17q-18 16 -17 42t17 42l277 277l-277 278q-18 16 -18 42zM616.5 869q-0.5 26 16.5 42q18 18 42.5 17.5t43.5 -17.5l317 -317q18 -18 18.5 -44t-18.5 -44 l-317 -318q-16 -16 -42 -17t-42 17q-18 16 -17.5 42t17.5 42l276 277l-276 278q-18 16 -18.5 42z" />
<glyph unicode="&#xbc;" horiz-adv-x="1013" d="M118 930.5q1 17.5 13 27.5l78 66q4 4 15.5 10t27.5 6h29q41 0 41 -36v-429q0 -37 -41 -36h-17q-16 0 -29.5 10t-13.5 26v332l-24 -20q-14 -10 -32 -9t-28 13l-8 8q-12 14 -11 31.5zM233 36.5q-10 22.5 0 45.5l383 924q10 23 32 33t46 -1l8 -4q23 -8 33 -30.5t0 -45.5 l-381 -925q-10 -23 -31.5 -33t-43.5 0l-13 4q-23 10 -33 32.5zM588 170l123 309q6 16 21.5 21.5t31.5 -2.5l16 -4q16 -8 23.5 -22.5t-0.5 -31.5l-103 -247h86v63q0 18 12.5 28.5t28.5 10.5h17q18 0 30.5 -10.5t12.5 -28.5v-63h31q16 0 26 -12.5t10 -28.5v-9q0 -18 -10 -30.5 t-26 -12.5h-31v-63q0 -16 -12.5 -26.5t-30.5 -10.5h-17q-16 0 -28.5 10t-12.5 27v63h-157q-23 0 -38.5 17.5t-2.5 52.5z" />
<glyph unicode="&#xbd;" horiz-adv-x="1056" d="M118 930.5q1 17.5 13 27.5l78 66q4 4 15.5 10t27.5 6h29q41 0 41 -36v-429q0 -37 -41 -36h-17q-16 0 -29.5 10t-13.5 26v332l-24 -20q-14 -10 -32 -9t-28 13l-8 8q-12 14 -11 31.5zM233 36.5q-10 22.5 0 45.5l383 924q10 23 32 33t46 -1l8 -4q23 -8 33 -30.5t0 -45.5 l-381 -925q-10 -23 -31.5 -33t-43.5 0l-13 4q-23 10 -33 32.5zM594 43v4q0 10 6 18.5t12 16.5l187 203q12 14 23.5 28.5t11.5 30.5q0 27 -20.5 46.5t-49.5 19.5q-27 0 -46.5 -16.5t-21.5 -39.5q-4 -41 -43 -41h-12q-18 0 -30.5 12.5t-12.5 28.5q0 31 13.5 57.5t36 46t53 32 t65.5 12.5q74 0 121 -47t47 -113q0 -35 -18.5 -62.5t-32.5 -43.5l-105 -121l-22 -21l39 2h120q16 0 26.5 -12t10.5 -31v-10q0 -18 -10 -30.5t-27 -12.5h-278q-18 0 -30.5 12.5t-12.5 30.5z" />
<glyph unicode="&#xbe;" horiz-adv-x="1013" d="M90 686q-2 14 8.5 24.5t22.5 10.5h6q10 0 18.5 -9.5t12.5 -21.5q4 -29 26.5 -48t55.5 -19t58.5 23.5t25.5 51.5v4q0 31 -25 55.5t-59 24.5h-23q-12 0 -21.5 9.5t-9.5 21.5v6q0 12 9.5 21.5t21.5 9.5h21q25 0 46 18.5t21 44.5q0 29 -17.5 45.5t-45.5 16.5 q-45 0 -56.5 -17.5t-15.5 -27.5q-4 -16 -17.5 -20.5t-25.5 3.5l-8 5q-10 6 -12.5 17t2.5 21q8 25 37.5 55.5t93.5 30.5q55 0 94 -36.5t39 -92.5q0 -57 -41 -94q20 -16 39.5 -45.5t19.5 -66.5q0 -63 -44 -107.5t-107 -44.5q-59 0 -101.5 39t-48.5 92zM254 36.5 q-10 22.5 0 45.5l383 924q10 23 31.5 33t46.5 -1l8 -4q23 -8 33 -30.5t0 -45.5l-381 -925q-10 -23 -31.5 -33t-44.5 0l-12 4q-23 10 -33 32.5zM590 170l123 309q6 16 21.5 21.5t31.5 -2.5l16 -4q16 -8 23.5 -22.5t-0.5 -31.5l-103 -247h86v63q0 18 12.5 28.5t28.5 10.5h17 q18 0 30.5 -10.5t12.5 -28.5v-63h31q16 0 26 -12.5t10 -28.5v-9q0 -18 -10 -30.5t-26 -12.5h-31v-63q0 -16 -12.5 -26.5t-30.5 -10.5h-17q-16 0 -28.5 10t-12.5 27v63h-157q-23 0 -38 17.5t-3 52.5z" />
<glyph unicode="&#xbf;" horiz-adv-x="950" d="M92 59q0 82 30 145.5t81 104.5l176 133q23 18 46.5 53t23.5 72v156q0 29 18 47t47 18h12q27 0 46.5 -18t19.5 -47v-156q0 -76 -37 -137t-76 -92l-166 -127q-29 -23 -53 -62.5t-24 -89.5q0 -82 59 -142t154 -60q45 0 82.5 16t66.5 43t45 58.5t16 60.5t18.5 47t47.5 18h12 q29 0 44.5 -19t15.5 -48q0 -63 -29 -120.5t-77 -101.5t-111.5 -71t-130.5 -27q-80 0 -145.5 28t-113 76t-73 110.5t-25.5 131.5zM430 1049v16q0 35 23.5 58.5t58.5 23.5h14q35 0 58.5 -23.5t23.5 -58.5v-16q0 -35 -23.5 -58.5t-58.5 -23.5h-14q-35 0 -58.5 23.5t-23.5 58.5z " />
<glyph unicode="&#xc0;" horiz-adv-x="944" d="M31 84l375 1300q16 51 71 52q53 0 70 -52l375 -1300q8 -27 -7.5 -50.5t-42.5 -29.5l-12 -2q-27 -6 -48 8.5t-30 40.5l-104 379h-404l-104 -379q-6 -27 -28.5 -41t-49.5 -8l-12 2q-27 6 -42 29.5t-7 50.5zM313 573h326l-135 492l-27 117l-28 -117zM322 1774.5 q0 25.5 18 42.5q16 16 42 15t42 -20l199 -206q16 -18 16 -44t-16 -42q-18 -16 -43 -15.5t-43 19.5l-197 207q-18 18 -18 43.5z" />
<glyph unicode="&#xc1;" horiz-adv-x="944" d="M31 84l375 1300q16 51 71 52q53 0 70 -52l375 -1300q8 -27 -7.5 -50.5t-42.5 -29.5l-12 -2q-27 -6 -48 8.5t-30 40.5l-104 379h-404l-104 -379q-6 -27 -28.5 -41t-49.5 -8l-12 2q-27 6 -42 29.5t-7 50.5zM313 573h326l-135 492l-27 117l-28 -117zM410 1561.5 q0 25.5 18 44.5l197 206q18 18 42.5 19.5t43.5 -14.5q16 -16 16 -42t-16 -44l-199 -207q-16 -18 -42 -19.5t-42 15.5q-18 16 -18 41.5z" />
<glyph unicode="&#xc2;" horiz-adv-x="944" d="M31 84l375 1300q16 51 71 52q53 0 70 -52l375 -1300q8 -27 -7.5 -50.5t-42.5 -29.5l-12 -2q-27 -6 -48 8.5t-30 40.5l-104 379h-404l-104 -379q-6 -27 -28.5 -41t-49.5 -8l-12 2q-27 6 -42 29.5t-7 50.5zM238.5 1550q-5.5 25 11.5 45l168 187q4 6 18.5 19.5t34.5 13.5 q23 0 36 -13.5t17 -19.5l166 -187q16 -20 12 -44.5t-24 -39.5q-20 -16 -44 -10t-40 25l-123 143l-123 -143q-16 -18 -39.5 -24.5t-44.5 9.5q-20 14 -25.5 39zM313 573h326l-135 492l-27 117l-28 -117z" />
<glyph unicode="&#xc3;" horiz-adv-x="944" d="M31 84l375 1300q16 51 71 52q53 0 70 -52l375 -1300q8 -27 -7.5 -50.5t-42.5 -29.5l-12 -2q-27 -6 -48 8.5t-30 40.5l-104 379h-404l-104 -379q-6 -27 -28.5 -41t-49.5 -8l-12 2q-27 6 -42 29.5t-7 50.5zM196.5 1611q14.5 21 32.5 38q53 47 123 47q57 0 100.5 -21.5 t94.5 -40.5q27 -10 51 -10q27 0 39 6t31 23q16 10 33.5 16t33.5 -10l10 -8q16 -16 14.5 -38t-18.5 -36q-35 -29 -64.5 -45t-78.5 -16q-53 0 -98 22.5t-92 38.5q-31 10 -52 10q-29 0 -43 -7t-32 -24q-14 -12 -33 -15t-35 13l-8 9q-23 27 -8.5 48zM313 573h326l-135 492 l-27 117l-28 -117z" />
<glyph unicode="&#xc4;" horiz-adv-x="944" d="M31 84l375 1300q16 51 71 52q53 0 70 -52l375 -1300q8 -27 -7.5 -50.5t-42.5 -29.5l-12 -2q-27 -6 -48 8.5t-30 40.5l-104 379h-404l-104 -379q-6 -27 -28.5 -41t-49.5 -8l-12 2q-27 6 -42 29.5t-7 50.5zM227 1573v12q0 29 18.5 47.5t47.5 18.5h12q29 0 47.5 -18.5 t18.5 -47.5v-12q0 -29 -18.5 -47.5t-47.5 -18.5h-12q-29 0 -47.5 18.5t-18.5 47.5zM313 573h326l-135 492l-27 117l-28 -117zM586 1573v12q0 29 18.5 47.5t46.5 18.5h13q29 0 47 -18.5t18 -47.5v-12q0 -29 -18.5 -47.5t-46.5 -18.5h-13q-29 0 -47 18.5t-18 47.5z" />
<glyph unicode="&#xc5;" horiz-adv-x="944" d="M31 84l375 1300q16 51 71 52q53 0 70 -52l375 -1300q8 -27 -7.5 -50.5t-42.5 -29.5l-12 -2q-27 -6 -48 8.5t-30 40.5l-104 379h-404l-104 -379q-6 -27 -28.5 -41t-49.5 -8l-12 2q-27 6 -42 29.5t-7 50.5zM238 1774q0 68 49 116.5t116 48.5q72 0 121 -47.5t49 -117.5 q0 -72 -48 -121t-119 -49q-68 0 -118 49t-50 121zM287 1774q0 -51 34.5 -86t84.5 -35q51 0 84.5 35t33.5 86q0 47 -33.5 81.5t-84.5 34.5q-49 0 -84 -34.5t-35 -81.5zM313 573h326l-135 492l-27 117l-28 -117z" />
<glyph unicode="&#xc6;" horiz-adv-x="1662" d="M23 50q-9 26 4 50l641 1297q16 37 67 37h760q27 0 46.5 -18.5t19.5 -47.5v-12q0 -29 -19.5 -47.5t-46.5 -18.5h-580v-430h508q27 0 46.5 -18.5t19.5 -46.5v-13q0 -29 -19.5 -47t-46.5 -18h-508v-574h580q27 0 46.5 -18.5t19.5 -46.5v-12q0 -29 -19.5 -47.5t-46.5 -18.5 h-657q-29 0 -47.5 18.5t-18.5 47.5v364h-422l-194 -393q-12 -25 -38 -34t-50 3l-11 6q-25 12 -34 38zM420 571h352v717z" />
<glyph unicode="&#xc7;" horiz-adv-x="1077" d="M156 287v788q0 74 27.5 139.5t76.5 114.5t114.5 77t139.5 28h365q29 0 47 -18.5t18 -47.5v-12q0 -29 -18.5 -47.5t-46.5 -18.5h-365q-45 0 -84 -17.5t-68.5 -46t-46 -67.5t-16.5 -84v-788q0 -59 42 -101.5t101 -42.5h437q29 0 47 -18.5t18 -46.5v-12q0 -29 -18.5 -47.5 t-46.5 -18.5h-437q-59 0 -111 22.5t-91 61.5t-61.5 91t-22.5 112zM358.5 -300q-0.5 26 18.5 44l196 207q18 18 43 18t43 -16q16 -16 16.5 -41t-16.5 -43l-198 -207q-16 -18 -42 -19t-42 15q-18 16 -18.5 42z" />
<glyph unicode="&#xc8;" horiz-adv-x="1112" d="M211 66v1302q0 29 18.5 47.5t46.5 18.5h658q29 0 47 -18.5t18 -47.5v-12q0 -29 -18 -47.5t-47 -18.5h-580v-430h508q29 0 47.5 -18.5t18.5 -46.5v-13q0 -29 -18.5 -47t-47.5 -18h-508v-574h580q29 0 47 -18.5t18 -46.5v-12q0 -29 -18 -47.5t-47 -18.5h-658 q-29 0 -47 18.5t-18 47.5zM371 1774.5q0 25.5 18 42.5q16 16 42 15t42 -20l199 -206q16 -18 16 -44t-16 -42q-18 -16 -43 -15.5t-43 19.5l-197 207q-18 18 -18 43.5z" />
<glyph unicode="&#xc9;" horiz-adv-x="1112" d="M211 66v1302q0 29 18.5 47.5t46.5 18.5h658q29 0 47 -18.5t18 -47.5v-12q0 -29 -18 -47.5t-47 -18.5h-580v-430h508q29 0 47.5 -18.5t18.5 -46.5v-13q0 -29 -18.5 -47t-47.5 -18h-508v-574h580q29 0 47 -18.5t18 -46.5v-12q0 -29 -18 -47.5t-47 -18.5h-658 q-29 0 -47 18.5t-18 47.5zM459 1561.5q0 25.5 18 44.5l197 206q18 18 42.5 19.5t43.5 -14.5q16 -16 16 -42t-16 -44l-199 -207q-16 -18 -41.5 -19.5t-42.5 15.5q-18 16 -18 41.5z" />
<glyph unicode="&#xca;" horiz-adv-x="1112" d="M211 66v1302q0 29 18.5 47.5t46.5 18.5h658q29 0 47 -18.5t18 -47.5v-12q0 -29 -18 -47.5t-47 -18.5h-580v-430h508q29 0 47.5 -18.5t18.5 -46.5v-13q0 -29 -18.5 -47t-47.5 -18h-508v-574h580q29 0 47 -18.5t18 -46.5v-12q0 -29 -18 -47.5t-47 -18.5h-658 q-29 0 -47 18.5t-18 47.5zM363.5 1550q-5.5 25 11.5 45l168 187q4 6 18 19.5t35 13.5q23 0 36 -13.5t17 -19.5l166 -187q16 -20 12 -44.5t-24 -39.5q-20 -16 -44 -10t-40 25l-123 143l-123 -143q-16 -18 -39.5 -24.5t-44.5 9.5q-20 14 -25.5 39z" />
<glyph unicode="&#xcb;" horiz-adv-x="1112" d="M211 66v1302q0 29 18.5 47.5t46.5 18.5h658q29 0 47 -18.5t18 -47.5v-12q0 -29 -18 -47.5t-47 -18.5h-580v-430h508q29 0 47.5 -18.5t18.5 -46.5v-13q0 -29 -18.5 -47t-47.5 -18h-508v-574h580q29 0 47 -18.5t18 -46.5v-12q0 -29 -18 -47.5t-47 -18.5h-658 q-29 0 -47 18.5t-18 47.5zM346 1573v12q0 29 18.5 47.5t47.5 18.5h12q29 0 47 -18.5t18 -47.5v-12q0 -29 -18 -47.5t-47 -18.5h-12q-29 0 -47.5 18.5t-18.5 47.5zM705 1573v12q0 29 18 47.5t47 18.5h12q29 0 47.5 -18.5t18.5 -47.5v-12q0 -29 -18.5 -47.5t-47.5 -18.5h-12 q-29 0 -47 18.5t-18 47.5z" />
<glyph unicode="&#xcc;" horiz-adv-x="565" d="M123 1774.5q0 25.5 18 42.5q16 16 42 15t42 -20l199 -206q16 -18 16 -44t-16 -42q-18 -16 -43 -15.5t-43 19.5l-197 207q-18 18 -18 43.5zM211 66v1302q0 29 18.5 47.5t46.5 18.5h13q29 0 47 -18.5t18 -47.5v-1302q0 -29 -18.5 -47.5t-46.5 -18.5h-13q-29 0 -47 18.5 t-18 47.5z" />
<glyph unicode="&#xcd;" horiz-adv-x="565" d="M170 1561.5q0 25.5 18 44.5l197 206q18 18 43 19.5t43 -14.5q16 -16 16 -42t-16 -44l-199 -207q-16 -18 -41.5 -19.5t-42.5 15.5q-18 16 -18 41.5zM211 66v1302q0 29 18.5 47.5t46.5 18.5h13q29 0 47 -18.5t18 -47.5v-1302q0 -29 -18.5 -47.5t-46.5 -18.5h-13 q-29 0 -47 18.5t-18 47.5z" />
<glyph unicode="&#xce;" horiz-adv-x="565" d="M54.5 1550q-5.5 25 11.5 45l167 187q4 6 18.5 19.5t35.5 13.5q23 0 36 -13.5t17 -19.5l166 -187q16 -20 12 -44.5t-24 -39.5q-20 -16 -44 -10t-40 25l-123 143l-123 -143q-16 -18 -40 -24.5t-44 9.5q-20 14 -25.5 39zM213 66v1302q0 29 18.5 47.5t47.5 18.5h12 q29 0 47 -18.5t18 -47.5v-1302q0 -29 -18.5 -47.5t-46.5 -18.5h-12q-29 0 -47.5 18.5t-18.5 47.5z" />
<glyph unicode="&#xcf;" horiz-adv-x="565" d="M39 1573v12q0 29 18.5 47.5t46.5 18.5h13q29 0 47 -18.5t18 -47.5v-12q0 -29 -18.5 -47.5t-46.5 -18.5h-13q-29 0 -47 18.5t-18 47.5zM211 66v1302q0 29 18.5 47.5t46.5 18.5h13q29 0 47 -18.5t18 -47.5v-1302q0 -29 -18.5 -47.5t-46.5 -18.5h-13q-29 0 -47 18.5 t-18 47.5zM397 1573v12q0 29 18.5 47.5t47.5 18.5h12q29 0 47.5 -18.5t18.5 -47.5v-12q0 -29 -18.5 -47.5t-47.5 -18.5h-12q-29 0 -47.5 18.5t-18.5 47.5z" />
<glyph unicode="&#xd0;" horiz-adv-x="1226" d="M70 786q0 25 17 42.5t44 17.5h80v522q0 29 18.5 47.5t46.5 18.5h437q74 0 139.5 -28t114.5 -77t76.5 -114.5t27.5 -139.5v-788q0 -59 -22.5 -111.5t-61.5 -91.5t-91 -61.5t-112 -22.5h-508q-29 0 -47 18.5t-18 47.5v661h-80q-27 0 -44 17.5t-17 41.5zM354 143h430 q59 0 101.5 42t42.5 102v788q0 45 -17.5 84t-46 67.5t-67.5 46t-84 17.5h-359v-444h256q27 0 44.5 -17.5t17.5 -42.5t-17.5 -42t-44.5 -17h-256v-584z" />
<glyph unicode="&#xd1;" horiz-adv-x="1282" d="M211 66v1302q0 29 18.5 47.5t46.5 18.5h13q39 0 57 -37l567 -1026l25 -68l-10 68v997q0 29 18.5 47.5t46.5 18.5h13q29 0 47 -18.5t18 -47.5v-1302q0 -29 -18.5 -47.5t-46.5 -18.5h-9q-18 0 -34.5 9t-26.5 28l-565 1020l-25 69l8 -69v-991q0 -29 -18.5 -47.5t-46.5 -18.5 h-13q-29 0 -47 18.5t-18 47.5zM356.5 1611q14.5 21 32.5 38q53 47 123 47q57 0 100 -21.5t95 -40.5q27 -10 51 -10q27 0 39 6t30 23q16 10 34 16t34 -10l10 -8q16 -16 14.5 -38t-18.5 -36q-35 -29 -64.5 -45t-78.5 -16q-53 0 -98.5 22.5t-92.5 38.5q-31 10 -51 10 q-29 0 -43 -7t-33 -24q-14 -12 -32.5 -15t-34.5 13l-8 9q-23 27 -8.5 48z" />
<glyph unicode="&#xd2;" horiz-adv-x="1171" d="M156 358v717q0 74 27.5 139.5t76.5 114.5t114.5 77t139.5 28h143q74 0 139.5 -28t115 -77t77 -114.5t27.5 -139.5v-717q0 -74 -27.5 -139t-77 -114.5t-115 -77t-139.5 -27.5h-143q-74 0 -139.5 27.5t-114.5 77t-76.5 115t-27.5 138.5zM299 358q0 -45 16.5 -83.5t46 -68.5 t68.5 -46.5t84 -16.5h143q45 0 84 16.5t68 46.5t46 68.5t17 83.5v717q0 45 -17 84t-46 67.5t-68 46t-84 17.5h-143q-45 0 -84 -17.5t-68.5 -46t-46 -67.5t-16.5 -84v-717zM371 1774.5q0 25.5 18 42.5q16 16 42 15t42 -20l199 -206q16 -18 16 -44t-16 -42q-18 -16 -43 -15.5 t-43 19.5l-197 207q-18 18 -18 43.5z" />
<glyph unicode="&#xd3;" horiz-adv-x="1171" d="M156 358v717q0 74 27.5 139.5t76.5 114.5t114.5 77t139.5 28h143q74 0 139.5 -28t115 -77t77 -114.5t27.5 -139.5v-717q0 -74 -27.5 -139t-77 -114.5t-115 -77t-139.5 -27.5h-143q-74 0 -139.5 27.5t-114.5 77t-76.5 115t-27.5 138.5zM299 358q0 -45 16.5 -83.5t46 -68.5 t68.5 -46.5t84 -16.5h143q45 0 84 16.5t68 46.5t46 68.5t17 83.5v717q0 45 -17 84t-46 67.5t-68 46t-84 17.5h-143q-45 0 -84 -17.5t-68.5 -46t-46 -67.5t-16.5 -84v-717zM459 1561.5q0 25.5 18 44.5l197 206q18 18 42.5 19.5t43.5 -14.5q16 -16 16 -42t-16 -44l-199 -207 q-16 -18 -41.5 -19.5t-42.5 15.5q-18 16 -18 41.5z" />
<glyph unicode="&#xd4;" horiz-adv-x="1171" d="M156 358v717q0 74 27.5 139.5t76.5 114.5t114.5 77t139.5 28h143q74 0 139.5 -28t115 -77t77 -114.5t27.5 -139.5v-717q0 -74 -27.5 -139t-77 -114.5t-115 -77t-139.5 -27.5h-143q-74 0 -139.5 27.5t-114.5 77t-76.5 115t-27.5 138.5zM299 358q0 -45 16.5 -83.5t46 -68.5 t68.5 -46.5t84 -16.5h143q45 0 84 16.5t68 46.5t46 68.5t17 83.5v717q0 45 -17 84t-46 67.5t-68 46t-84 17.5h-143q-45 0 -84 -17.5t-68.5 -46t-46 -67.5t-16.5 -84v-717zM339.5 1550q-5.5 25 10.5 45l168 187q4 6 18.5 19.5t34.5 13.5q23 0 36.5 -13.5t17.5 -19.5l166 -187 q16 -20 12 -44.5t-25 -39.5q-20 -16 -43.5 -10t-40.5 25l-123 143l-122 -143q-16 -18 -40 -24.5t-44 9.5q-20 14 -25.5 39z" />
<glyph unicode="&#xd5;" horiz-adv-x="1171" d="M156 358v717q0 74 27.5 139.5t76.5 114.5t114.5 77t139.5 28h143q74 0 139.5 -28t115 -77t77 -114.5t27.5 -139.5v-717q0 -74 -27.5 -139t-77 -114.5t-115 -77t-139.5 -27.5h-143q-74 0 -139.5 27.5t-114.5 77t-76.5 115t-27.5 138.5zM294.5 1611q14.5 21 33.5 38 q53 47 123 47q57 0 100 -21.5t94 -40.5q27 -10 51 -10q27 0 39.5 6t30.5 23q16 10 33.5 16t34.5 -10l10 -8q16 -16 14 -38t-18 -36q-35 -29 -65 -45t-79 -16q-53 0 -98 22.5t-92 38.5q-31 10 -51 10q-29 0 -43.5 -7t-32.5 -24q-14 -12 -32.5 -15t-35.5 13l-8 9 q-23 27 -8.5 48zM299 358q0 -45 16.5 -83.5t46 -68.5t68.5 -46.5t84 -16.5h143q45 0 84 16.5t68 46.5t46 68.5t17 83.5v717q0 45 -17 84t-46 67.5t-68 46t-84 17.5h-143q-45 0 -84 -17.5t-68.5 -46t-46 -67.5t-16.5 -84v-717z" />
<glyph unicode="&#xd6;" horiz-adv-x="1171" d="M156 358v717q0 74 27.5 139.5t76.5 114.5t114.5 77t139.5 28h143q74 0 139.5 -28t115 -77t77 -114.5t27.5 -139.5v-717q0 -74 -27.5 -139t-77 -114.5t-115 -77t-139.5 -27.5h-143q-74 0 -139.5 27.5t-114.5 77t-76.5 115t-27.5 138.5zM299 358q0 -45 16.5 -83.5t46 -68.5 t68.5 -46.5t84 -16.5h143q45 0 84 16.5t68 46.5t46 68.5t17 83.5v717q0 45 -17 84t-46 67.5t-68 46t-84 17.5h-143q-45 0 -84 -17.5t-68.5 -46t-46 -67.5t-16.5 -84v-717zM326 1573v12q0 29 18 47.5t47 18.5h12q29 0 47.5 -18.5t18.5 -47.5v-12q0 -29 -18.5 -47.5 t-47.5 -18.5h-12q-29 0 -47 18.5t-18 47.5zM684 1573v12q0 29 18.5 47.5t47.5 18.5h12q29 0 47 -18.5t18 -47.5v-12q0 -29 -18 -47.5t-47 -18.5h-12q-29 0 -47.5 18.5t-18.5 47.5z" />
<glyph unicode="&#xd7;" horiz-adv-x="935" d="M90.5 197.5q-0.5 27.5 18.5 46.5l258 258l-258 258q-18 18 -18.5 46t18.5 46l10 8q18 20 44.5 20.5t47.5 -20.5l258 -258l258 258q18 20 45 20.5t47 -20.5l8 -8q20 -18 20.5 -46t-20.5 -46l-258 -258l258 -258q20 -18 20.5 -46t-20.5 -46l-8 -9q-20 -20 -47 -20t-45 20 l-258 256l-258 -256q-20 -20 -47 -20t-45 20l-10 9q-18 18 -18.5 45.5z" />
<glyph unicode="&#xd8;" horiz-adv-x="1171" d="M156 358v717q0 74 27.5 139.5t76.5 114.5t114.5 77t139.5 28h143q59 0 111.5 -17.5t97.5 -50.5l47 96q12 23 36 31t46 -2q23 -10 30 -33.5t-5 -46.5l-66 -135q61 -90 62 -201v-717q0 -74 -27.5 -139t-77 -114.5t-115 -77t-139.5 -27.5h-143q-90 0 -168 41l-74 -150 q-10 -23 -33.5 -32t-45.5 2q-23 12 -30 35.5t3 46.5l86 172q-45 47 -70.5 109.5t-25.5 133.5zM299 358q0 -53 23 -98l479 975q-59 55 -144 55h-143q-45 0 -84 -17.5t-68.5 -46t-46 -67.5t-16.5 -84v-717zM410 170q49 -27 104 -27h143q45 0 84 16.5t68 46.5t46 68.5t17 83.5 v717q0 20 -2 31z" />
<glyph unicode="&#xd9;" horiz-adv-x="1241" d="M190 430v938q0 29 18.5 47.5t47.5 18.5h12q29 0 47.5 -18.5t18.5 -47.5v-938q0 -59 22.5 -111.5t61.5 -91.5t91 -61.5t112 -22.5q59 0 111 22.5t91 61.5t61.5 91.5t22.5 111.5v938q0 29 18.5 47.5t47.5 18.5h12q29 0 47.5 -18.5t18.5 -47.5v-938q0 -90 -34 -168 t-92.5 -136t-137 -92t-166.5 -34q-90 0 -168 34t-136.5 92t-92.5 136t-34 168zM418 1774.5q0 25.5 18 42.5q16 16 42 15t42 -20l199 -206q16 -18 16 -44t-16 -42q-18 -16 -43 -15.5t-43 19.5l-197 207q-18 18 -18 43.5z" />
<glyph unicode="&#xda;" horiz-adv-x="1241" d="M190 430v938q0 29 18.5 47.5t47.5 18.5h12q29 0 47.5 -18.5t18.5 -47.5v-938q0 -59 22.5 -111.5t61.5 -91.5t91 -61.5t112 -22.5q59 0 111 22.5t91 61.5t61.5 91.5t22.5 111.5v938q0 29 18.5 47.5t47.5 18.5h12q29 0 47.5 -18.5t18.5 -47.5v-938q0 -90 -34 -168 t-92.5 -136t-137 -92t-166.5 -34q-90 0 -168 34t-136.5 92t-92.5 136t-34 168zM471 1561.5q0 25.5 18 44.5l197 206q18 18 43 19.5t43 -14.5q16 -16 16 -42t-16 -44l-199 -207q-16 -18 -41.5 -19.5t-42.5 15.5q-18 16 -18 41.5z" />
<glyph unicode="&#xdb;" horiz-adv-x="1241" d="M190 430v938q0 29 18.5 47.5t47.5 18.5h12q29 0 47.5 -18.5t18.5 -47.5v-938q0 -59 22.5 -111.5t61.5 -91.5t91 -61.5t112 -22.5q59 0 111 22.5t91 61.5t61.5 91.5t22.5 111.5v938q0 29 18.5 47.5t47.5 18.5h12q29 0 47.5 -18.5t18.5 -47.5v-938q0 -90 -34 -168 t-92.5 -136t-137 -92t-166.5 -34q-90 0 -168 34t-136.5 92t-92.5 136t-34 168zM380.5 1550q-5.5 25 10.5 45l168 187q4 6 18.5 19.5t34.5 13.5q23 0 36.5 -13.5t17.5 -19.5l165 -187q16 -20 12.5 -44.5t-24.5 -39.5q-20 -16 -43.5 -10t-40.5 25l-123 143l-123 -143 q-16 -18 -39.5 -24.5t-43.5 9.5q-20 14 -25.5 39z" />
<glyph unicode="&#xdc;" horiz-adv-x="1241" d="M190 430v938q0 29 18.5 47.5t47.5 18.5h12q29 0 47.5 -18.5t18.5 -47.5v-938q0 -59 22.5 -111.5t61.5 -91.5t91 -61.5t112 -22.5q59 0 111 22.5t91 61.5t61.5 91.5t22.5 111.5v938q0 29 18.5 47.5t47.5 18.5h12q29 0 47.5 -18.5t18.5 -47.5v-938q0 -90 -34 -168 t-92.5 -136t-137 -92t-166.5 -34q-90 0 -168 34t-136.5 92t-92.5 136t-34 168zM346 1573v12q0 29 18.5 47.5t47.5 18.5h12q29 0 47 -18.5t18 -47.5v-12q0 -29 -18 -47.5t-47 -18.5h-12q-29 0 -47.5 18.5t-18.5 47.5zM705 1573v12q0 29 18 47.5t47 18.5h12q29 0 47.5 -18.5 t18.5 -47.5v-12q0 -29 -18.5 -47.5t-47.5 -18.5h-12q-29 0 -47 18.5t-18 47.5z" />
<glyph unicode="&#xdd;" horiz-adv-x="1026" d="M21 1371.5q4 25.5 26 41.5l10 8q23 16 49.5 11t43.5 -27l368 -559l367 559q16 23 42.5 28t49.5 -12l10 -8q23 -16 27 -41.5t-10 -48.5l-414 -631v-626q0 -29 -19.5 -47.5t-46.5 -18.5h-12q-29 0 -47.5 18.5t-18.5 47.5v628l-413 629q-16 23 -12 48.5zM475.5 1561.5 q-0.5 25.5 18.5 44.5l196 206q18 18 43 19.5t43 -14.5q16 -16 16.5 -42t-16.5 -44l-198 -207q-16 -18 -42 -19.5t-42 15.5q-18 16 -18.5 41.5z" />
<glyph unicode="&#xde;" horiz-adv-x="1433" d="M90 842q25 43 48.5 87t52 84t62.5 75.5t79 60.5l184 -231l371 368l383 -385q18 -18 18 -47v-338q0 -10 -4 -24.5t-14 -24.5l-164 -164l237 -203q-35 -49 -87 -92t-103 -76q-59 -37 -125 -67q-166 68 -318.5 149.5t-281.5 216.5q-127 131 -204 286t-134 325zM190 834 q29 -78 61 -153t70.5 -146.5t87 -138t109.5 -128.5q111 -104 239 -174.5t269 -126.5q51 27 99.5 55.5t88.5 65.5l-229 193q-33 -29 -53.5 -63t-38.5 -75q-137 80 -233.5 169t-159 169t-94 139.5t-39.5 79.5q92 37 137 86l-191 236q-39 -41 -66.5 -90t-56.5 -98zM492 655 q66 -111 162 -211t204 -172q23 37 56.5 69t78.5 60l41 -36l187 186l-142 141l135 135l-327 330l-312 -313l48 -60q-31 -41 -63 -73.5t-68 -55.5zM657 784l29 31l256 -256l-31 -31zM737 864l29 31l332 -332l-29 -31zM817 944l29 31l217 -217l-29 -29z" />
<glyph unicode="&#xdf;" horiz-adv-x="1191" d="M184 66v1081q0 59 22.5 111.5t61.5 91.5t91.5 61.5t111.5 22.5h287q59 0 111.5 -22.5t91 -61.5t61 -91.5t22.5 -111.5q0 -66 -25.5 -120t-70.5 -95q45 -41 70.5 -95.5t25.5 -119.5v-430q0 -59 -22.5 -111.5t-61 -91.5t-91 -61.5t-111.5 -22.5h-150q-29 0 -47 18.5 t-18 47.5v12q0 29 18.5 47t46.5 18h150q59 0 101 42t42 102v430q0 59 -42 101t-101 42h-150q-29 0 -47 18.5t-18 47.5v12q0 29 18.5 47.5t46.5 18.5h150q59 0 101 41.5t42 101.5q0 59 -42 101t-101 42h-287q-59 0 -101 -42t-42 -101v-1081q0 -29 -18.5 -47.5t-47.5 -18.5 h-12q-29 0 -47.5 18.5t-18.5 47.5z" />
<glyph unicode="&#xe0;" horiz-adv-x="995" d="M104 250v72q0 51 19.5 97t53.5 81t80 54t97 19h324v144q0 59 -42 101t-101 42h-293q-29 0 -47.5 18.5t-18.5 47.5v12q0 29 18.5 47.5t47.5 18.5h293q59 0 111 -23t91 -61.5t61.5 -91t22.5 -111.5v-651q0 -29 -18.5 -47.5t-46.5 -18.5h-402q-51 0 -97 19.5t-80 53 t-53.5 80t-19.5 97.5zM248 250q0 -45 31.5 -76t74.5 -31h324v287h-324q-43 0 -74.5 -31.5t-31.5 -76.5v-72zM270.5 1375q-0.5 26 18.5 42q16 16 41.5 15.5t42.5 -19.5l198 -207q16 -18 16.5 -43.5t-16.5 -42.5q-18 -16 -42.5 -15t-43.5 19l-196 207q-18 18 -18.5 44z" />
<glyph unicode="&#xe1;" horiz-adv-x="995" d="M104 250v72q0 51 19.5 97t53.5 81t80 54t97 19h324v144q0 59 -42 101t-101 42h-293q-29 0 -47.5 18.5t-18.5 47.5v12q0 29 18.5 47.5t47.5 18.5h293q59 0 111 -23t91 -61.5t61.5 -91t22.5 -111.5v-651q0 -29 -18.5 -47.5t-46.5 -18.5h-402q-51 0 -97 19.5t-80 53 t-53.5 80t-19.5 97.5zM248 250q0 -45 31.5 -76t74.5 -31h324v287h-324q-43 0 -74.5 -31.5t-31.5 -76.5v-72zM340 1172q0 26 18 45l197 206q18 18 43 19.5t43 -15.5q16 -16 16 -41.5t-16 -44.5l-199 -206q-16 -18 -41.5 -19.5t-42.5 14.5q-18 16 -18 42z" />
<glyph unicode="&#xe2;" horiz-adv-x="995" d="M104 250v72q0 51 19.5 97t53.5 81t80 54t97 19h324v144q0 59 -42 101t-101 42h-293q-29 0 -47.5 18.5t-18.5 47.5v12q0 29 18.5 47.5t47.5 18.5h293q59 0 111 -23t91 -61.5t61.5 -91t22.5 -111.5v-651q0 -29 -18.5 -47.5t-46.5 -18.5h-402q-51 0 -97 19.5t-80 53 t-53.5 80t-19.5 97.5zM247 1163q-5 25 11 45l168 187q4 6 18.5 19t34.5 13q23 0 36 -13t17 -19l166 -187q16 -20 12.5 -44.5t-24.5 -39.5q-20 -16 -44 -10t-40 25l-123 143l-123 -143q-16 -18 -39.5 -24.5t-44.5 9.5q-20 14 -25 39zM248 250q0 -45 31.5 -76t74.5 -31h324 v287h-324q-43 0 -74.5 -31.5t-31.5 -76.5v-72z" />
<glyph unicode="&#xe3;" horiz-adv-x="995" d="M104 250v72q0 51 19.5 97t53.5 81t80 54t97 19h324v144q0 59 -42 101t-101 42h-293q-29 0 -47.5 18.5t-18.5 47.5v12q0 29 18.5 47.5t47.5 18.5h293q59 0 111 -23t91 -61.5t61.5 -91t22.5 -111.5v-651q0 -29 -18.5 -47.5t-46.5 -18.5h-402q-51 0 -97 19.5t-80 53 t-53.5 80t-19.5 97.5zM206.5 1228q14.5 21 33.5 38q53 47 122 47q57 0 100.5 -21.5t94.5 -40.5q27 -10 51 -10q27 0 39 6t31 23q16 10 33.5 16t33.5 -10l11 -8q16 -16 14 -38t-18 -36q-35 -29 -65 -45t-79 -16q-53 0 -98 22.5t-92 38.5q-31 10 -51 10q-29 0 -43.5 -7 t-32.5 -23q-14 -12 -32.5 -15.5t-35.5 12.5l-8 9q-23 27 -8.5 48zM248 250q0 -45 31.5 -76t74.5 -31h324v287h-324q-43 0 -74.5 -31.5t-31.5 -76.5v-72z" />
<glyph unicode="&#xe4;" horiz-adv-x="995" d="M104 250v72q0 51 19.5 97t53.5 81t80 54t97 19h324v144q0 59 -42 101t-101 42h-293q-29 0 -47.5 18.5t-18.5 47.5v12q0 29 18.5 47.5t47.5 18.5h293q59 0 111 -23t91 -61.5t61.5 -91t22.5 -111.5v-651q0 -29 -18.5 -47.5t-46.5 -18.5h-402q-51 0 -97 19.5t-80 53 t-53.5 80t-19.5 97.5zM238 1176v12q0 29 18 47t47 18h12q29 0 47.5 -18t18.5 -47v-12q0 -29 -18.5 -47.5t-47.5 -18.5h-12q-29 0 -47 18.5t-18 47.5zM248 250q0 -45 31.5 -76t74.5 -31h324v287h-324q-43 0 -74.5 -31.5t-31.5 -76.5v-72zM596 1176v12q0 29 18.5 47t47.5 18 h12q29 0 47 -18t18 -47v-12q0 -29 -18.5 -47.5t-46.5 -18.5h-12q-29 0 -47.5 18.5t-18.5 47.5z" />
<glyph unicode="&#xe5;" horiz-adv-x="995" d="M104 250v72q0 51 19.5 97t53.5 81t80 54t97 19h324v144q0 59 -42 101t-101 42h-293q-29 0 -47.5 18.5t-18.5 47.5v12q0 29 18.5 47.5t47.5 18.5h293q59 0 111 -23t91 -61.5t61.5 -91t22.5 -111.5v-651q0 -29 -18.5 -47.5t-46.5 -18.5h-402q-51 0 -97 19.5t-80 53 t-53.5 80t-19.5 97.5zM248 250q0 -45 31.5 -76t74.5 -31h324v287h-324q-43 0 -74.5 -31.5t-31.5 -76.5v-72zM287 1380q0 68 49 117t117 49q72 0 121 -48t49 -118q0 -72 -48.5 -121t-119.5 -49q-68 0 -118 49.5t-50 120.5zM336 1380q0 -51 35 -85.5t84 -34.5q51 0 84.5 34.5 t33.5 85.5q0 47 -33.5 82t-84.5 35q-49 0 -84 -35t-35 -82z" />
<glyph unicode="&#xe6;" horiz-adv-x="1556" d="M104 250v72q0 51 19.5 97t53.5 79.5t80 53t97 19.5h324v146q0 59 -42 101t-101 42h-293q-29 0 -47.5 18.5t-18.5 47.5v12q0 29 18.5 47.5t47.5 18.5h293q72 0 133 -33t100 -88q49 55 118.5 88t149.5 33h37q74 0 138.5 -29t113.5 -77t77 -113.5t28 -139.5v-151 q0 -27 -18.5 -45.5t-47.5 -18.5h-543v-143q0 -61 42 -102.5t102 -41.5h364q29 0 47.5 -19.5t18.5 -45.5v-12q0 -29 -18.5 -47.5t-47.5 -18.5h-364q-47 0 -83 11.5t-61.5 27.5t-43 32.5t-25.5 26.5l-22.5 -22.5t-43.5 -33.5t-64.5 -29.5t-86.5 -12.5h-181q-51 0 -97 19.5 t-80 53t-53.5 80t-19.5 97.5zM248 250q0 -45 31.5 -76t74.5 -31h181q59 0 101 42t42 102v143h-324q-43 0 -74.5 -31.5t-31.5 -76.5v-72zM821 571h465v74q0 45 -16.5 84t-45 67.5t-67.5 46t-84 17.5h-37q-43 0 -82 -16.5t-67.5 -44t-47 -64.5t-18.5 -80v-84z" />
<glyph unicode="&#xe7;" horiz-adv-x="870" d="M129 215v502q0 59 22.5 111.5t61.5 91t91 61.5t112 23h293q29 0 47 -18.5t18 -47.5v-12q0 -29 -18.5 -47.5t-46.5 -18.5h-293q-59 0 -101.5 -42t-42.5 -101v-502q0 -29 21.5 -50.5t50.5 -21.5h365q29 0 47 -18.5t18 -46.5v-12q0 -29 -18.5 -47.5t-46.5 -18.5h-365 q-45 0 -84 16.5t-68.5 46t-46 68.5t-16.5 84zM276.5 -300q-0.5 26 18.5 44l197 207q18 18 42.5 18t43.5 -16q16 -16 16 -41t-16 -43l-199 -207q-16 -18 -42 -19t-42 15q-18 16 -18.5 42z" />
<glyph unicode="&#xe8;" d="M129 287v358q0 74 28.5 139.5t77 114.5t114 77t138.5 28h37q74 0 139.5 -28t114.5 -77t77 -114.5t28 -139.5v-149q-2 -29 -20.5 -47.5t-45.5 -18.5h-545v-143q0 -59 42 -101.5t102 -42.5h364q29 0 47.5 -18.5t18.5 -46.5v-12q0 -29 -18.5 -47.5t-47.5 -18.5h-364 q-59 0 -111.5 22.5t-91.5 61.5t-61.5 91t-22.5 112zM272 573h467v72q0 45 -17 84t-46 67.5t-68 46t-84 17.5h-37q-45 0 -83.5 -17.5t-68.5 -46t-46.5 -67.5t-16.5 -84v-72zM291 1375q0 26 18 42q16 16 42 15.5t42 -19.5l199 -207q16 -18 16 -43.5t-16 -42.5q-18 -16 -43 -15 t-43 19l-197 207q-18 18 -18 44z" />
<glyph unicode="&#xe9;" d="M129 287v358q0 74 28.5 139.5t77 114.5t114 77t138.5 28h37q74 0 139.5 -28t114.5 -77t77 -114.5t28 -139.5v-149q-2 -29 -20.5 -47.5t-45.5 -18.5h-545v-143q0 -59 42 -101.5t102 -42.5h364q29 0 47.5 -18.5t18.5 -46.5v-12q0 -29 -18.5 -47.5t-47.5 -18.5h-364 q-59 0 -111.5 22.5t-91.5 61.5t-61.5 91t-22.5 112zM272 573h467v72q0 45 -17 84t-46 67.5t-68 46t-84 17.5h-37q-45 0 -83.5 -17.5t-68.5 -46t-46.5 -67.5t-16.5 -84v-72zM340 1172q0 26 18 45l197 206q18 18 43 19.5t43 -15.5q16 -16 16 -41.5t-16 -44.5l-199 -206 q-16 -18 -41.5 -19.5t-42.5 14.5q-18 16 -18 42z" />
<glyph unicode="&#xea;" d="M129 287v358q0 74 28.5 139.5t77 114.5t114 77t138.5 28h37q74 0 139.5 -28t114.5 -77t77 -114.5t28 -139.5v-149q-2 -29 -20.5 -47.5t-45.5 -18.5h-545v-143q0 -59 42 -101.5t102 -42.5h364q29 0 47.5 -18.5t18.5 -46.5v-12q0 -29 -18.5 -47.5t-47.5 -18.5h-364 q-59 0 -111.5 22.5t-91.5 61.5t-61.5 91t-22.5 112zM267.5 1163q-5.5 25 11.5 45l167 187q4 6 18.5 19t35.5 13q23 0 36 -13t17 -19l166 -187q16 -20 12 -44.5t-24 -39.5q-20 -16 -44 -10t-40 25l-123 143l-123 -143q-16 -18 -40 -24.5t-44 9.5q-20 14 -25.5 39zM272 573 h467v72q0 45 -17 84t-46 67.5t-68 46t-84 17.5h-37q-45 0 -83.5 -17.5t-68.5 -46t-46.5 -67.5t-16.5 -84v-72z" />
<glyph unicode="&#xeb;" d="M129 287v358q0 74 28.5 139.5t77 114.5t114 77t138.5 28h37q74 0 139.5 -28t114.5 -77t77 -114.5t28 -139.5v-149q-2 -29 -20.5 -47.5t-45.5 -18.5h-545v-143q0 -59 42 -101.5t102 -42.5h364q29 0 47.5 -18.5t18.5 -46.5v-12q0 -29 -18.5 -47.5t-47.5 -18.5h-364 q-59 0 -111.5 22.5t-91.5 61.5t-61.5 91t-22.5 112zM258 1176v12q0 29 18.5 47t47.5 18h12q29 0 47 -18t18 -47v-12q0 -29 -18 -47.5t-47 -18.5h-12q-29 0 -47.5 18.5t-18.5 47.5zM272 573h467v72q0 45 -17 84t-46 67.5t-68 46t-84 17.5h-37q-45 0 -83.5 -17.5t-68.5 -46 t-46.5 -67.5t-16.5 -84v-72zM616 1176v12q0 29 18.5 47t47.5 18h12q29 0 47.5 -18t18.5 -47v-12q0 -29 -18.5 -47.5t-47.5 -18.5h-12q-29 0 -47.5 18.5t-18.5 47.5z" />
<glyph unicode="&#xec;" horiz-adv-x="499" d="M66 1375q0 26 18 42q16 16 42 15.5t42 -19.5l199 -207q16 -18 16 -43.5t-16 -42.5q-18 -16 -43 -15t-43 19l-197 207q-18 18 -18 44zM178 66v872q0 29 18.5 47.5t47.5 18.5h12q29 0 47.5 -18.5t18.5 -47.5v-872q0 -29 -18.5 -47.5t-47.5 -18.5h-12q-29 0 -47.5 18.5 t-18.5 47.5z" />
<glyph unicode="&#xed;" horiz-adv-x="499" d="M135.5 1172q-0.5 26 18.5 45l196 206q18 18 43 19.5t43 -15.5q16 -16 16.5 -41.5t-16.5 -44.5l-198 -206q-16 -18 -42 -19.5t-42 14.5q-18 16 -18.5 42zM178 66v872q0 29 18.5 47.5t47.5 18.5h12q29 0 47.5 -18.5t18.5 -47.5v-872q0 -29 -18.5 -47.5t-47.5 -18.5h-12 q-29 0 -47.5 18.5t-18.5 47.5z" />
<glyph unicode="&#xee;" horiz-adv-x="499" d="M23.5 1163q-5.5 25 11.5 45l168 187q4 6 18.5 19t34.5 13q23 0 36 -13t17 -19l166 -187q16 -20 12 -44.5t-24 -39.5q-20 -16 -44 -10t-40 25l-123 143l-123 -143q-16 -18 -39.5 -24.5t-44.5 9.5q-20 14 -25.5 39zM180 66v872q0 29 18.5 47.5t47.5 18.5h12 q29 0 47.5 -18.5t18.5 -47.5v-872q0 -29 -18.5 -47.5t-47.5 -18.5h-12q-29 0 -47.5 18.5t-18.5 47.5z" />
<glyph unicode="&#xef;" horiz-adv-x="505" d="M2 1176v12q0 29 18.5 47t47.5 18h12q29 0 47 -18t18 -47v-12q0 -29 -18 -47.5t-47 -18.5h-12q-29 0 -47.5 18.5t-18.5 47.5zM178 66v872q0 29 19.5 47.5t46.5 18.5h12q29 0 47.5 -18.5t18.5 -47.5v-872q0 -29 -18.5 -47.5t-47.5 -18.5h-12q-27 0 -46.5 18.5t-19.5 47.5z M360 1176v12q0 29 18.5 47t47.5 18h12q29 0 47.5 -18t18.5 -47v-12q0 -29 -18.5 -47.5t-47.5 -18.5h-12q-29 0 -47.5 18.5t-18.5 47.5z" />
<glyph unicode="&#xf0;" horiz-adv-x="1587" d="M97 747.5q-1 59.5 42 102.5l199 199l-68 69q-8 8 -8 19.5t8 19.5l27 27q18 18 39 0l67 -70l52 51q43 43 102 43t100 -43l785 -782q37 -37 47 -92t-25 -90l-340 -338q-41 -41 -100 -41t-100 41l-785 784q-41 41 -42 100.5zM170 749q0 -28 20 -49l785 -784q20 -20 49 -20 t49 20l316 315q23 23 22.5 50.5t-22.5 48.5l-783 784q-20 20 -49 20.5t-49 -20.5l-318 -317q-20 -20 -20 -48zM248 755.5q0 20.5 14 37.5q16 16 36.5 16t37.5 -16q16 -16 16 -37t-16 -37t-36.5 -16.5t-37.5 16.5q-14 16 -14 36.5zM366.5 651.5q0.5 34.5 24.5 61.5l203 200 q25 25 59.5 25t61.5 -25l133 -133q25 -27 24.5 -61.5t-24.5 -61.5l-201 -200q-25 -25 -60.5 -25t-60.5 25l-135 133q-25 27 -24.5 61.5zM666 317q-14 12 0 27l53 53q12 14 26 0l19 -18q12 -12 0 -27l-55 -53q-12 -12 -27 0zM764 219q-14 12 0 27l53 53q14 12 27 0l18 -18 q10 -14 0 -27l-53 -53q-14 -14 -27 0zM786 438q-14 14 0 27l54 53q12 12 26 0l19 -16q12 -14 0 -27l-54 -53q-14 -14 -26 0zM862 119q-12 14 0 26l56 54q12 14 26 0l17 -17q14 -14 0 -26l-54 -54q-12 -14 -26 0zM885 340q-12 12 0 27l53 53q14 14 27 0l18 -19q14 -12 0 -26 l-53 -53q-14 -10 -27 0zM907 559q-14 14 0 27l54 55q14 12 26 0l19 -18q14 -14 0 -27l-54 -53q-14 -14 -26 0zM963 20q-14 12 0 27l53 53q12 12 26 0l19 -18l2 -4q8 -12 -2 -23l-53 -53q-14 -12 -27 0zM985 240q-14 14 0 26l53 56q12 12 27 0l16 -19q14 -14 0 -27l-53 -53 q-12 -14 -27 0zM1006 461q-10 12 0 26l55 54q12 14 26 0l17 -19q14 -12 0 -26l-53 -54q-12 -12 -27 0zM1083 141q-14 14 0 27l54 53q14 14 26 0l19 -18q12 -12 0 -27l-54 -53q-14 -12 -26 0zM1106 362q-14 12 0 27l53 53q12 10 27 0l18 -18q10 -14 0 -27l-53 -53 q-14 -14 -27 0zM1204 262q-12 14 0 27l53 53q14 14 27 0l19 -16q14 -14 0 -27l-54 -53q-14 -14 -26 0z" />
<glyph unicode="&#xf1;" horiz-adv-x="1075" d="M184 66v872q0 29 18.5 47.5t47.5 18.5h364q59 0 111.5 -23t91.5 -61.5t61.5 -91t22.5 -111.5v-651q0 -29 -18.5 -47.5t-46.5 -18.5h-13q-29 0 -47 18.5t-18 47.5v651q0 59 -42 101t-102 42h-286v-794q0 -29 -18.5 -47.5t-47.5 -18.5h-12q-29 0 -47.5 18.5t-18.5 47.5z M247.5 1228q14.5 21 33.5 38q53 47 122 47q57 0 100.5 -21.5t94.5 -40.5q27 -10 51 -10q27 0 39 6t31 23q16 10 33.5 16t33.5 -10l11 -8q16 -16 14 -38t-18 -36q-35 -29 -65 -45t-79 -16q-53 0 -98 22.5t-92 38.5q-31 10 -51 10q-29 0 -43.5 -7t-32.5 -23 q-14 -12 -32.5 -15.5t-35.5 12.5l-8 9q-23 27 -8.5 48z" />
<glyph unicode="&#xf2;" d="M129 358v287q0 74 28.5 139.5t77 114.5t114 77t138.5 28h37q74 0 139.5 -28t114.5 -77t77 -114.5t28 -139.5v-287q0 -74 -29 -139t-78 -114.5t-113.5 -77t-138.5 -27.5h-37q-74 0 -139 27.5t-114.5 77t-77 115t-27.5 138.5zM272 358q0 -45 16.5 -83.5t46.5 -68.5 t68.5 -46.5t83.5 -16.5h37q45 0 84 16.5t68 46.5t46 68.5t17 83.5v287q0 45 -17 84t-46 67.5t-68 46t-84 17.5h-37q-45 0 -83.5 -17.5t-68.5 -46t-46.5 -67.5t-16.5 -84v-287zM332 1375q0 26 18 42q16 16 42 15.5t42 -19.5l199 -207q16 -18 16 -43.5t-16 -42.5 q-18 -16 -43 -15t-43 19l-197 207q-18 18 -18 44z" />
<glyph unicode="&#xf3;" d="M129 358v287q0 74 28.5 139.5t77 114.5t114 77t138.5 28h37q74 0 139.5 -28t114.5 -77t77 -114.5t28 -139.5v-287q0 -74 -29 -139t-78 -114.5t-113.5 -77t-138.5 -27.5h-37q-74 0 -139 27.5t-114.5 77t-77 115t-27.5 138.5zM272 358q0 -45 16.5 -83.5t46.5 -68.5 t68.5 -46.5t83.5 -16.5h37q45 0 84 16.5t68 46.5t46 68.5t17 83.5v287q0 45 -17 84t-46 67.5t-68 46t-84 17.5h-37q-45 0 -83.5 -17.5t-68.5 -46t-46.5 -67.5t-16.5 -84v-287zM340 1172q0 26 18 45l197 206q18 18 43 19.5t43 -15.5q16 -16 16 -41.5t-16 -44.5l-199 -206 q-16 -18 -41.5 -19.5t-42.5 14.5q-18 16 -18 42z" />
<glyph unicode="&#xf4;" d="M129 358v287q0 74 28.5 139.5t77 114.5t114 77t138.5 28h37q74 0 139.5 -28t114.5 -77t77 -114.5t28 -139.5v-287q0 -74 -29 -139t-78 -114.5t-113.5 -77t-138.5 -27.5h-37q-74 0 -139 27.5t-114.5 77t-77 115t-27.5 138.5zM272 358q0 -45 16.5 -83.5t46.5 -68.5 t68.5 -46.5t83.5 -16.5h37q45 0 84 16.5t68 46.5t46 68.5t17 83.5v287q0 45 -17 84t-46 67.5t-68 46t-84 17.5h-37q-45 0 -83.5 -17.5t-68.5 -46t-46.5 -67.5t-16.5 -84v-287zM275.5 1163q-5.5 25 11.5 45l168 187q4 6 18 19t35 13q23 0 36 -13t17 -19l166 -187 q16 -20 12 -44.5t-24 -39.5q-20 -16 -44 -10t-40 25l-123 143l-123 -143q-16 -18 -39.5 -24.5t-44.5 9.5q-20 14 -25.5 39z" />
<glyph unicode="&#xf5;" d="M129 358v287q0 74 28.5 139.5t77 114.5t114 77t138.5 28h37q74 0 139.5 -28t114.5 -77t77 -114.5t28 -139.5v-287q0 -74 -29 -139t-78 -114.5t-113.5 -77t-138.5 -27.5h-37q-74 0 -139 27.5t-114.5 77t-77 115t-27.5 138.5zM227.5 1228q14.5 21 32.5 38q53 47 123 47 q57 0 100 -21.5t95 -40.5q27 -10 51 -10q27 0 39 6t30 23q16 10 34 16t34 -10l10 -8q16 -16 14 -38t-18 -36q-35 -29 -64.5 -45t-78.5 -16q-53 0 -98.5 22.5t-92.5 38.5q-31 10 -51 10q-29 0 -43 -7t-33 -23q-14 -12 -32.5 -15.5t-34.5 12.5l-8 9q-23 27 -8.5 48zM272 358 q0 -45 16.5 -83.5t46.5 -68.5t68.5 -46.5t83.5 -16.5h37q45 0 84 16.5t68 46.5t46 68.5t17 83.5v287q0 45 -17 84t-46 67.5t-68 46t-84 17.5h-37q-45 0 -83.5 -17.5t-68.5 -46t-46.5 -67.5t-16.5 -84v-287z" />
<glyph unicode="&#xf6;" d="M129 358v287q0 74 28.5 139.5t77 114.5t114 77t138.5 28h37q74 0 139.5 -28t114.5 -77t77 -114.5t28 -139.5v-287q0 -74 -29 -139t-78 -114.5t-113.5 -77t-138.5 -27.5h-37q-74 0 -139 27.5t-114.5 77t-77 115t-27.5 138.5zM258 1176v12q0 29 18.5 47t47.5 18h12 q29 0 47 -18t18 -47v-12q0 -29 -18 -47.5t-47 -18.5h-12q-29 0 -47.5 18.5t-18.5 47.5zM272 358q0 -45 16.5 -83.5t46.5 -68.5t68.5 -46.5t83.5 -16.5h37q45 0 84 16.5t68 46.5t46 68.5t17 83.5v287q0 45 -17 84t-46 67.5t-68 46t-84 17.5h-37q-45 0 -83.5 -17.5t-68.5 -46 t-46.5 -67.5t-16.5 -84v-287zM616 1176v12q0 29 18.5 47t47.5 18h12q29 0 47.5 -18t18.5 -47v-12q0 -29 -18.5 -47.5t-47.5 -18.5h-12q-29 0 -47.5 18.5t-18.5 47.5z" />
<glyph unicode="&#xf7;" horiz-adv-x="1069" d="M104 496v12q0 29 18.5 47t47.5 18h729q29 0 47.5 -18t18.5 -47v-12q0 -29 -18.5 -47.5t-47.5 -18.5h-729q-29 0 -47.5 18.5t-18.5 47.5zM438 223v17q0 35 23.5 58.5t58.5 23.5h15q35 0 58 -24t23 -58v-17q0 -35 -23.5 -58.5t-57.5 -23.5h-15q-35 0 -58.5 23.5t-23.5 58.5 zM438 780v15q0 35 23.5 58.5t58.5 23.5h15q35 0 58 -24t23 -58v-15q0 -35 -23.5 -58.5t-57.5 -23.5h-15q-35 0 -58.5 23.5t-23.5 58.5z" />
<glyph unicode="&#xf8;" d="M129 358v287q0 74 28.5 139.5t77 114.5t114 77t138.5 28h37q80 0 154 -35l53 108q10 23 35 31t47 -2q23 -10 29 -34.5t-4 -47.5l-62 -125q49 -49 78 -113.5t29 -140.5v-287q0 -74 -29 -139t-78 -114.5t-113.5 -77t-138.5 -27.5h-37q-72 0 -139 29l-57 -117 q-10 -23 -34 -32t-46 1q-23 12 -30 36t3 46l64 129q-55 49 -87 118t-32 148zM272 358q0 -70 43 -129l299 611q-45 20 -90 20h-37q-45 0 -83.5 -17.5t-68.5 -46t-46.5 -67.5t-16.5 -84v-287zM412 158q35 -14 75 -15h37q45 0 84 16.5t68 46.5t46 68.5t17 83.5v287 q0 59 -32 113z" />
<glyph unicode="&#xf9;" horiz-adv-x="1075" d="M174 287v651q0 29 18.5 47.5t47.5 18.5h12q29 0 47 -18.5t18 -47.5v-651q0 -59 42 -101.5t102 -42.5h287v795q0 29 18 47.5t47 18.5h12q29 0 47.5 -18.5t18.5 -47.5v-872q0 -29 -18.5 -47.5t-47.5 -18.5h-364q-59 0 -111.5 22.5t-91.5 61.5t-61.5 91t-22.5 112z M311.5 1375q-0.5 26 18.5 42q16 16 41.5 15.5t42.5 -19.5l198 -207q16 -18 16.5 -43.5t-16.5 -42.5q-18 -16 -42.5 -15t-43.5 19l-196 207q-18 18 -18.5 44z" />
<glyph unicode="&#xfa;" horiz-adv-x="1075" d="M174 287v651q0 29 18.5 47.5t47.5 18.5h12q29 0 47 -18.5t18 -47.5v-651q0 -59 42 -101.5t102 -42.5h287v795q0 29 18 47.5t47 18.5h12q29 0 47.5 -18.5t18.5 -47.5v-872q0 -29 -18.5 -47.5t-47.5 -18.5h-364q-59 0 -111.5 22.5t-91.5 61.5t-61.5 91t-22.5 112z M399.5 1172q-0.5 26 18.5 45l196 206q18 18 43 19.5t43 -15.5q16 -16 16.5 -41.5t-16.5 -44.5l-198 -206q-16 -18 -42 -19.5t-42 14.5q-18 16 -18.5 42z" />
<glyph unicode="&#xfb;" horiz-adv-x="1075" d="M174 287v651q0 29 18.5 47.5t47.5 18.5h12q29 0 47 -18.5t18 -47.5v-651q0 -59 42 -101.5t102 -42.5h287v795q0 29 18 47.5t47 18.5h12q29 0 47.5 -18.5t18.5 -47.5v-872q0 -29 -18.5 -47.5t-47.5 -18.5h-364q-59 0 -111.5 22.5t-91.5 61.5t-61.5 91t-22.5 112z M300.5 1167q-5.5 25 10.5 45l168 187q4 6 18.5 19.5t34.5 13.5q23 0 36.5 -13.5t17.5 -19.5l166 -187q16 -20 12 -44.5t-25 -39.5q-20 -16 -43.5 -10t-40.5 25l-123 143l-122 -143q-16 -18 -40 -24.5t-44 9.5q-20 14 -25.5 39z" />
<glyph unicode="&#xfc;" horiz-adv-x="1075" d="M174 287v651q0 29 18.5 47.5t47.5 18.5h12q29 0 47 -18.5t18 -47.5v-651q0 -59 42 -101.5t102 -42.5h287v795q0 29 18 47.5t47 18.5h12q29 0 47.5 -18.5t18.5 -47.5v-872q0 -29 -18.5 -47.5t-47.5 -18.5h-364q-59 0 -111.5 22.5t-91.5 61.5t-61.5 91t-22.5 112zM279 1176 v12q0 29 18 47t47 18h12q29 0 47.5 -18t18.5 -47v-12q0 -29 -18.5 -47.5t-47.5 -18.5h-12q-29 0 -47 18.5t-18 47.5zM637 1176v12q0 29 18.5 47t46.5 18h13q29 0 47 -18t18 -47v-12q0 -29 -18.5 -47.5t-46.5 -18.5h-13q-29 0 -47 18.5t-18 47.5z" />
<glyph unicode="&#xfd;" horiz-adv-x="790" d="M43 909q-10 25 1 49.5t36 34.5l10 6q27 10 51.5 -1t34.5 -35l236 -637l14 -70l8 70l199 630q10 27 33.5 40.5t48.5 2.5l12 -4q27 -8 39 -31.5t4 -50.5l-352 -1122q-14 -43 -42 -74.5t-65 -51t-79 -23.5t-85 10l-6 2q-27 8 -39 31.5t-4 50.5l4 12q8 25 32 38t50 5l6 -2 q29 -10 54.5 3t36.5 42l73 238zM315.5 1172q-0.5 26 18.5 45l196 206q18 18 43 19.5t43 -15.5q16 -16 16.5 -41.5t-16.5 -44.5l-198 -206q-16 -18 -42 -19.5t-42 14.5q-18 16 -18.5 42z" />
<glyph unicode="&#xfe;" horiz-adv-x="1904" d="M96 0v1047h1712v-1047h-1712zM176 131l496 397l-496 398v-795zM240 80h1423l-494 395l-131 -104q-37 -37 -86 -37q-47 0 -84 37l-133 104zM258 967l666 -539q10 -10 28.5 -10t28.5 10l666 539h-1389zM1233 526l496 -397v797z" />
<glyph unicode="&#xff;" horiz-adv-x="780" d="M43 909q-10 25 1 49.5t36 34.5l10 6q27 10 51.5 -1t34.5 -35l236 -637l14 -70l8 70l199 630q10 27 33.5 40.5t48.5 2.5l12 -4q27 -8 39 -31.5t4 -50.5l-352 -1122q-14 -43 -42 -74.5t-65 -51t-79 -23.5t-85 10l-6 2q-27 8 -39 31.5t-4 50.5l4 12q8 25 32 38t50 5l6 -2 q29 -10 54.5 3t36.5 42l73 238zM162 1176v12q0 29 18.5 47t46.5 18h13q29 0 47 -18t18 -47v-12q0 -29 -18.5 -47.5t-46.5 -18.5h-13q-29 0 -47 18.5t-18 47.5zM520 1176v12q0 29 18.5 47t47.5 18h12q29 0 47.5 -18t18.5 -47v-12q0 -29 -18.5 -47.5t-47.5 -18.5h-12 q-29 0 -47.5 18.5t-18.5 47.5z" />
<glyph unicode="&#x152;" horiz-adv-x="1775" d="M156 358v717q0 74 27.5 139.5t76.5 114.5t114.5 77t139.5 28h143q80 0 136.5 -30t97.5 -79v43q0 29 18.5 47.5t46.5 18.5h639q29 0 47.5 -18.5t18.5 -47.5v-12q0 -29 -18.5 -47.5t-47.5 -18.5h-579v-430h508q29 0 47 -18.5t18 -46.5v-13q0 -29 -18.5 -47t-46.5 -18h-508 v-574h579q29 0 47.5 -18.5t18.5 -46.5v-12q0 -29 -18.5 -47.5t-47.5 -18.5h-639q-29 0 -47 18.5t-18 47.5v40q-37 -39 -92.5 -72.5t-141.5 -33.5h-143q-74 0 -139.5 27.5t-114.5 77t-76.5 115t-27.5 138.5zM299 358q0 -45 16.5 -83.5t46 -68.5t68.5 -46.5t84 -16.5h143 q45 0 84 16.5t68 46.5t46 68.5t17 83.5v717q0 45 -17 84t-46 67.5t-68 46t-84 17.5h-143q-45 0 -84 -17.5t-68.5 -46t-46 -67.5t-16.5 -84v-717z" />
<glyph unicode="&#x153;" horiz-adv-x="1619" d="M129 358v287q0 74 28.5 139.5t77 114.5t114 77t138.5 28h37q88 0 164 -41t123 -119q45 78 122 119t165 41h35q74 0 139 -28t114.5 -77t77 -114.5t27.5 -139.5v-149q0 -29 -18.5 -47.5t-47.5 -18.5h-544v-143q0 -59 43 -101.5t102 -42.5h365q27 0 46 -18.5t19 -46.5v-12 q0 -29 -19.5 -47.5t-45.5 -18.5h-365q-72 0 -133.5 34t-101.5 105q-45 -74 -116 -106.5t-151 -32.5h-37q-74 0 -139 27.5t-114.5 77t-77 115t-27.5 138.5zM272 358q0 -45 16.5 -83.5t46.5 -68.5t68.5 -46.5t83.5 -16.5h37q45 0 84 16.5t68 46.5t46 68.5t17 83.5l-2 287 q0 45 -16 84t-45 67.5t-68 46t-84 17.5h-37q-45 0 -83.5 -17.5t-68.5 -46t-46.5 -67.5t-16.5 -84v-287zM881 571h467v74q0 45 -17.5 84t-46.5 67.5t-67.5 46t-83.5 17.5h-35q-45 0 -85 -17.5t-69 -46t-46 -67.5t-17 -84v-74z" />
<glyph unicode="&#x178;" horiz-adv-x="1026" d="M21 1371.5q4 25.5 26 41.5l10 8q23 16 49.5 11t43.5 -27l368 -559l367 559q16 23 42.5 28t49.5 -12l10 -8q23 -16 27 -41.5t-10 -48.5l-414 -631v-626q0 -29 -19.5 -47.5t-46.5 -18.5h-12q-29 0 -47.5 18.5t-18.5 47.5v628l-413 629q-16 23 -12 48.5zM268 1573v12 q0 29 18.5 47.5t47.5 18.5h12q29 0 47.5 -18.5t18.5 -47.5v-12q0 -29 -18.5 -47.5t-47.5 -18.5h-12q-29 0 -47.5 18.5t-18.5 47.5zM627 1573v12q0 29 18.5 47.5t46.5 18.5h13q29 0 47 -18.5t18 -47.5v-12q0 -29 -18.5 -47.5t-46.5 -18.5h-13q-29 0 -47 18.5t-18 47.5z" />
<glyph unicode="&#x2c6;" horiz-adv-x="839" d="M189.5 1265.5q-5.5 24.5 11.5 45.5l168 186q4 6 18 19.5t35 13.5q23 0 36 -13.5t17 -19.5l166 -186q16 -20 12 -45t-24 -39q-20 -16 -44 -10t-40 24l-123 143l-123 -143q-16 -18 -39.5 -24.5t-44.5 10.5q-20 14 -25.5 38.5z" />
<glyph unicode="&#x2dc;" horiz-adv-x="940" d="M194.5 1357q14.5 21 32.5 38q53 47 123 47q57 0 100.5 -21.5t94.5 -40.5q27 -10 51 -10q27 0 39 6t31 23q16 10 33.5 16t33.5 -10l10 -8q16 -16 14.5 -38t-18.5 -36q-35 -29 -64.5 -45t-78.5 -16q-53 0 -98 22.5t-92 38.5q-31 10 -52 10q-29 0 -43 -7t-32 -23 q-14 -12 -33 -15.5t-35 12.5l-8 9q-23 27 -8.5 48z" />
<glyph unicode="&#x2000;" horiz-adv-x="969" />
<glyph unicode="&#x2001;" horiz-adv-x="1939" />
<glyph unicode="&#x2002;" horiz-adv-x="969" />
<glyph unicode="&#x2003;" horiz-adv-x="1939" />
<glyph unicode="&#x2004;" horiz-adv-x="646" />
<glyph unicode="&#x2005;" horiz-adv-x="484" />
<glyph unicode="&#x2006;" horiz-adv-x="323" />
<glyph unicode="&#x2007;" horiz-adv-x="323" />
<glyph unicode="&#x2008;" horiz-adv-x="242" />
<glyph unicode="&#x2009;" horiz-adv-x="387" />
<glyph unicode="&#x200a;" horiz-adv-x="107" />
<glyph unicode="&#x2010;" horiz-adv-x="733" d="M80 496v12q0 29 18.5 47t46.5 18h443q29 0 47 -18t18 -47v-12q0 -29 -18.5 -47.5t-46.5 -18.5h-443q-29 0 -47 18.5t-18 47.5z" />
<glyph unicode="&#x2011;" horiz-adv-x="733" d="M80 496v12q0 29 18.5 47t46.5 18h443q29 0 47 -18t18 -47v-12q0 -29 -18.5 -47.5t-46.5 -18.5h-443q-29 0 -47 18.5t-18 47.5z" />
<glyph unicode="&#x2012;" horiz-adv-x="733" d="M80 496v12q0 29 18.5 47t46.5 18h443q29 0 47 -18t18 -47v-12q0 -29 -18.5 -47.5t-46.5 -18.5h-443q-29 0 -47 18.5t-18 47.5z" />
<glyph unicode="&#x2013;" horiz-adv-x="1019" d="M80 496v12q0 29 18.5 47t46.5 18h729q29 0 47.5 -18t18.5 -47v-12q0 -29 -18.5 -47.5t-47.5 -18.5h-729q-29 0 -47 18.5t-18 47.5z" />
<glyph unicode="&#x2014;" horiz-adv-x="1449" d="M80 496v12q0 29 18.5 47t46.5 18h1160q29 0 47 -18t18 -47v-12q0 -29 -18.5 -47.5t-46.5 -18.5h-1160q-29 0 -47 18.5t-18 47.5z" />
<glyph unicode="&#x2018;" horiz-adv-x="546" d="M168 1141l88 250q10 25 33.5 37t50.5 2l10 -5q27 -10 39 -33.5t2 -50.5l-88 -247q-10 -27 -33.5 -38.5t-50.5 -0.5l-12 4q-25 8 -37 32.5t-2 49.5z" />
<glyph unicode="&#x2019;" horiz-adv-x="546" d="M168 1141l88 250q10 25 33.5 37t50.5 2l10 -5q27 -10 39 -33.5t2 -50.5l-88 -247q-10 -27 -33.5 -38.5t-50.5 -0.5l-12 4q-25 8 -37 32.5t-2 49.5z" />
<glyph unicode="&#x201a;" horiz-adv-x="546" d="M168 -145l88 247q10 25 33.5 37.5t50.5 1.5l10 -4q27 -10 39 -33.5t2 -50.5l-88 -248q-10 -25 -33.5 -37t-50.5 -1l-12 4q-25 10 -37 33.5t-2 50.5z" />
<glyph unicode="&#x201c;" horiz-adv-x="796" d="M168 1141l88 250q10 25 33.5 37t50.5 2l10 -5q27 -10 39 -33.5t2 -50.5l-88 -247q-10 -27 -33.5 -38.5t-50.5 -0.5l-12 4q-25 8 -37 32.5t-2 49.5zM418 1141l88 250q10 25 33.5 37t50.5 2l12 -5q25 -10 37 -33.5t2 -50.5l-88 -247q-10 -27 -33.5 -38.5t-50.5 -0.5l-10 4 q-27 8 -39 32.5t-2 49.5z" />
<glyph unicode="&#x201d;" horiz-adv-x="796" d="M168 1141l88 250q10 25 33.5 37t50.5 2l10 -5q27 -10 39 -33.5t2 -50.5l-88 -247q-10 -27 -33.5 -38.5t-50.5 -0.5l-12 4q-25 8 -37 32.5t-2 49.5zM418 1141l88 250q10 25 33.5 37t50.5 2l12 -5q25 -10 37 -33.5t2 -50.5l-88 -247q-10 -27 -33.5 -38.5t-50.5 -0.5l-10 4 q-27 8 -39 32.5t-2 49.5z" />
<glyph unicode="&#x201e;" horiz-adv-x="798" d="M168 -145l88 247q10 25 33.5 37.5t50.5 1.5l10 -4q27 -10 39 -33.5t2 -50.5l-88 -248q-10 -25 -33.5 -37t-50.5 -1l-12 4q-25 10 -37 33.5t-2 50.5zM420 -145l88 247q10 25 33.5 37.5t50.5 1.5l10 -4q27 -10 39 -33.5t2 -50.5l-88 -248q-10 -25 -33.5 -37t-50.5 -1l-12 4 q-25 10 -37 33.5t-2 50.5z" />
<glyph unicode="&#x2022;" horiz-adv-x="1157" d="M211 645q0 74 27.5 139.5t77 114.5t115 77t138.5 28h19q74 0 139.5 -28t113.5 -77t76.5 -114.5t28.5 -139.5t-28.5 -139.5t-76.5 -114.5t-113.5 -76.5t-139.5 -27.5h-19q-74 0 -139 27.5t-114.5 76.5t-77 114.5t-27.5 139.5z" />
<glyph unicode="&#x2026;" horiz-adv-x="1212" d="M158 82v14q0 35 23.5 58.5t58.5 23.5h14q35 0 58.5 -23.5t23.5 -58.5v-14h2q0 -35 -23.5 -58.5t-58.5 -23.5h-16q-35 0 -58.5 23.5t-23.5 58.5zM516 82v14q0 35 23.5 58.5t58.5 23.5h14q35 0 58.5 -23.5t23.5 -58.5v-14h2q0 -35 -23.5 -58.5t-58.5 -23.5h-16 q-35 0 -58.5 23.5t-23.5 58.5zM874 82v14q0 35 24 58.5t58 23.5h15q35 0 59.5 -23.5t24.5 -58.5v-14q0 -35 -23.5 -58.5t-58.5 -23.5h-17q-35 0 -58.5 23.5t-23.5 58.5z" />
<glyph unicode="&#x202f;" horiz-adv-x="387" />
<glyph unicode="&#x2039;" horiz-adv-x="679" d="M82 549.5q0 25.5 18 44.5l318 317q18 16 43 17t43 -17q16 -16 16 -41.5t-18 -42.5l-277 -278l277 -277q16 -16 17 -41.5t-17 -42.5q-16 -18 -42 -17t-42 17l-318 318q-18 18 -18 43.5z" />
<glyph unicode="&#x203a;" horiz-adv-x="679" d="M158 869q0 26 16 42q18 18 43 17.5t43 -17.5l318 -317q18 -18 18 -44t-18 -44l-318 -318q-16 -16 -41.5 -17t-42.5 17q-18 16 -17 42t17 42l277 277l-277 278q-18 16 -18 42z" />
<glyph unicode="&#x205f;" horiz-adv-x="484" />
<glyph unicode="&#x20ac;" horiz-adv-x="1236" d="M96 586q0 25 17.5 42t44.5 17h80v143h-80q-27 0 -44.5 17.5t-17.5 42.5t17.5 42t44.5 17h80v97q0 88 33.5 166.5t92 137t136.5 92.5t168 34q80 0 151.5 -28t128 -76t95.5 -114.5t51 -144.5q4 -27 -17.5 -47t-50.5 -20h-12q-51 0 -64 55q-23 104 -99.5 167.5t-182.5 63.5 q-59 0 -111.5 -22.5t-91.5 -61.5t-61.5 -91t-22.5 -111v-97h399q27 0 44.5 -17.5t17.5 -41.5q0 -25 -17.5 -42.5t-44.5 -17.5h-399v-143h399q27 0 44.5 -18.5t17.5 -42.5q0 -25 -17.5 -41.5t-44.5 -16.5h-399v-96q0 -59 22.5 -111.5t61.5 -91.5t91 -61.5t112 -22.5 q104 0 181 62.5t99 159.5q6 27 22.5 46t45.5 19h12q27 0 48.5 -22.5t15.5 -63.5q-12 -68 -50 -130t-94.5 -109.5t-128 -76t-151.5 -28.5q-90 0 -168 34t-136.5 92t-92 136t-33.5 168v96h-80q-27 0 -44.5 17.5t-17.5 42.5z" />
<glyph unicode="&#x2122;" horiz-adv-x="1509" d="M74 1378v8q0 20 13 34t34 14h524q20 0 33.5 -13.5t13.5 -34.5v-8q0 -20 -13 -33.5t-34 -13.5h-211v-573q0 -18 -13 -32.5t-34 -14.5h-8q-20 0 -33.5 14t-13.5 33v573h-211q-20 0 -33.5 13.5t-13.5 33.5zM770 758v628q0 20 14.5 34t32.5 14h8h2q16 0 25.5 -9.5t17.5 -21.5 l201 -320l10 -28l11 28l198 320q8 12 17.5 21.5t25.5 9.5h4h6q18 0 33 -13.5t15 -34.5v-628q0 -18 -14.5 -32.5t-33.5 -14.5h-10q-18 0 -32.5 14t-14.5 33v446l-153 -248q-4 -6 -17.5 -22t-36.5 -16q-20 0 -33.5 16t-17.5 22l-154 248v-446q0 -18 -14 -32.5t-33 -14.5h-10 q-18 0 -32.5 14t-14.5 33z" />
<glyph unicode="&#xe000;" horiz-adv-x="1003" d="M0 0v1004h1004v-1004h-1004z" />
</font>
</defs>
</svg>
