<?xml version="1.0" standalone="no"?>
<!DOCTYPE svg PUBLIC "-//W3C//DTD SVG 1.1//EN" "http://www.w3.org/Graphics/SVG/1.1/DTD/svg11.dtd" >
<svg xmlns="http://www.w3.org/2000/svg">
<metadata></metadata>
<defs>
<font id="pauzafotblack" horiz-adv-x="997" >
<font-face units-per-em="2048" ascent="1434" descent="-614" />
<missing-glyph horiz-adv-x="471" />
<glyph unicode="&#xfb01;" horiz-adv-x="1202" d="M76 901v27q0 59 28.5 94t88.5 35h18v47q0 74 24.5 134t67.5 103t103.5 68t132.5 25h71q57 0 88 -35t31 -92v-29q0 -57 -30.5 -91t-88.5 -34h-69q-49 0 -49 -49v-47h426q47 0 81.5 -35t34.5 -82v-823q0 -47 -34.5 -82t-81.5 -35h-50q-47 0 -80.5 35t-33.5 82v657h-262 v-655q0 -59 -35 -89t-92 -30h-29q-57 0 -91 29.5t-34 89.5v655h-16q-59 0 -89 35t-30 92zM741 1274v12q0 61 43 104.5t105 43.5h10q61 0 103 -43t42 -105v-12q0 -59 -41.5 -102.5t-103.5 -43.5h-10q-61 0 -104.5 43t-43.5 103z" />
<glyph unicode="&#xfb02;" horiz-adv-x="1249" d="M80 901v27q0 59 28.5 94t88.5 35h18v47q0 74 24.5 134t67.5 103t103.5 68t132.5 25h379q51 0 83.5 -35t32.5 -82v-1028q0 -8 9 -8h28q47 0 81 -34t34 -83v-47q0 -47 -34 -82t-81 -35h-76q-49 0 -93 19.5t-76.5 52t-52 77t-19.5 93.5v911h-213q-49 0 -49 -49v-47h118 q57 0 87 -35t30 -94v-27q0 -57 -29.5 -92t-87.5 -35h-118v-655q0 -59 -35 -89t-92 -30h-29q-57 0 -91 29.5t-34 89.5v655h-16q-59 0 -89 35t-30 92z" />
<glyph horiz-adv-x="2048" />
<glyph horiz-adv-x="2048" />
<glyph unicode="&#xd;" horiz-adv-x="530" />
<glyph unicode=" "  horiz-adv-x="471" />
<glyph unicode="&#x09;" horiz-adv-x="471" />
<glyph unicode="&#xa0;" horiz-adv-x="471" />
<glyph unicode="!" horiz-adv-x="491" d="M102 455v542q0 47 34 73t81 26h57q47 0 81 -26t34 -73v-542q0 -47 -33.5 -72t-81.5 -25h-57q-47 0 -81 25t-34 72zM121 115v20q0 47 24.5 81t71.5 34h57q47 0 72 -34t25 -81v-20q0 -47 -24.5 -81t-72.5 -34h-57q-47 0 -71.5 34t-24.5 81z" />
<glyph unicode="&#x22;" horiz-adv-x="815" d="M68 705l102 288q16 47 56 58.5t85 -4.5l21 -7q45 -16 68.5 -50t7.5 -79l-105 -290q-16 -45 -55 -57.5t-84 3.5l-21 6q-45 16 -68.5 50t-6.5 82zM428 705l102 288q16 47 56.5 58.5t85.5 -4.5l20 -7q45 -16 68.5 -50t7.5 -79l-102 -290q-16 -45 -56.5 -57.5t-85.5 3.5 l-20 6q-45 16 -68.5 50t-7.5 82z" />
<glyph unicode="#" horiz-adv-x="1105" d="M51 293v22q0 47 24.5 76t71.5 29h56v211h-56q-47 0 -71.5 29.5t-24.5 76.5v23q0 47 24.5 75.5t71.5 28.5h56v92q0 47 29.5 72t76.5 25h23q47 0 75.5 -24.5t28.5 -72.5v-92h234v92q0 47 29.5 72t76.5 25h21q47 0 76.5 -24.5t29.5 -72.5v-92h55q47 0 72 -28.5t25 -75.5v-23 q0 -47 -24.5 -76.5t-72.5 -29.5h-55v-211h55q47 0 72 -29t25 -76v-22q0 -47 -24.5 -77t-72.5 -30h-55v-90q0 -47 -29.5 -71.5t-76.5 -24.5h-21q-47 0 -76.5 24.5t-29.5 71.5v90h-234v-90q0 -47 -28.5 -71.5t-75.5 -24.5h-23q-47 0 -76.5 24.5t-29.5 71.5v90h-56 q-47 0 -71.5 30t-24.5 77zM436 420h234v211h-234v-211z" />
<glyph unicode="$" horiz-adv-x="886" d="M59 151q-8 44 17 85l10 18q23 37 67 47t93 -18q25 -14 62.5 -29.5t86.5 -22.5v209l-141 43q-49 14 -84 43t-56.5 66t-30.5 76t-9 75q0 59 25.5 112.5t69.5 94.5t102.5 67.5t123.5 33.5v55q0 16 12.5 28.5t28.5 12.5h17q16 0 28.5 -12.5t12.5 -28.5v-55q90 -4 147 -21.5 t109 -56.5q39 -29 48 -72t-18 -84l-10 -18q-23 -37 -67 -47.5t-93 18.5q-18 10 -50 23.5t-66 21.5v-166l129 -39q55 -16 96 -47t68.5 -69.5t41 -80.5t13.5 -81q0 -66 -28 -122t-75 -99t-110.5 -72t-134.5 -37v-104q0 -18 -12.5 -29.5t-28.5 -11.5h-17q-16 0 -28.5 11 t-12.5 30v102q-98 2 -163.5 18.5t-125.5 59.5q-39 29 -47 73zM334 748q0 -23 17.5 -41.5t43.5 -28.5v139q-23 -4 -42 -22.5t-19 -46.5zM494 238q25 6 43 27t18 48q0 68 -61 95v-170z" />
<glyph unicode="%" horiz-adv-x="1114" d="M90 692v178q0 33 14.5 63t38 51.5t56 34.5t69.5 13t69 -13t55.5 -34.5t37.5 -51.5t14 -63v-178q0 -33 -14 -62.5t-37.5 -51t-55.5 -35t-69 -13.5t-69.5 13.5t-56 35t-38 51t-14.5 62.5zM244 700q0 -25 24 -24q25 0 25 24v160q0 27 -25 27t-24 -27v-160zM283.5 53 q-11.5 31 1.5 64l350 866q14 35 48 46t69 -5l8 -4q33 -16 45 -46t-2 -65l-350 -866q-14 -35 -48 -46t-69 5l-12 6q-29 14 -40.5 45zM657 164v178q0 33 14.5 62.5t38 51t55.5 35t69 13.5t68.5 -13.5t56 -35t39 -51t14.5 -62.5v-178q0 -35 -14.5 -63.5t-39 -51t-56.5 -35 t-68 -12.5q-72 0 -124.5 47t-52.5 115zM809 172q0 -27 25 -27q23 0 22 27v160q0 27 -22 26q-25 0 -25 -26v-160z" />
<glyph unicode="&#x26;" horiz-adv-x="1294" d="M123 424q0 78 19.5 135t54 102.5t82 82t104.5 73.5q-55 63 -97 134t-42 159q0 70 26.5 129t74.5 102t112.5 68t142.5 25q76 0 139.5 -25t110.5 -69t73.5 -103t26.5 -129q0 -96 -52 -161.5t-124 -112.5q-12 -8 -24 -17q-10 -8 -24.5 -16t-27.5 -17l279 -329q23 45 36 96 t13 98v17q0 35 27.5 57t62.5 22h37q37 0 62.5 -21.5t25.5 -55.5v-19q0 -92 -30.5 -187t-90.5 -173q10 -12 25.5 -30.5t32.5 -35.5q18 -20 36 -43q25 -29 29 -62.5t-24 -60.5l-33 -28q-31 -29 -65 -30t-62 34l-88 102q-86 -76 -177.5 -111.5t-211.5 -35.5q-115 0 -200 31.5 t-143.5 89t-87 138.5t-28.5 177zM346 428q0 -113 58.5 -177.5t175.5 -64.5q33 0 62.5 4.5t59 15.5t62.5 31.5t72 53.5l-320 379q-37 -25 -68.5 -47.5t-54 -49t-35 -61.5t-12.5 -84zM469 1112q0 -35 20.5 -73t79.5 -107q10 4 18.5 11t16.5 11q8 6 17 11q51 35 82.5 66.5 t31.5 76.5q0 57 -38 94t-97 37t-95 -35t-36 -92z" />
<glyph unicode="'" horiz-adv-x="454" d="M68 705l102 288q16 47 56 58.5t85 -4.5l21 -7q45 -16 68.5 -50t7.5 -79l-105 -290q-16 -45 -55 -57.5t-84 3.5l-21 6q-45 16 -68.5 50t-6.5 82z" />
<glyph unicode="(" horiz-adv-x="550" d="M102 502q0 90 17.5 182t44 173t55.5 144.5t53 94.5q29 39 72 48t84 -16l18 -12q37 -23 47.5 -66.5t-18.5 -93.5q-8 -14 -28.5 -61t-41 -111.5t-36 -139.5t-15.5 -142q0 -70 15.5 -144.5t36 -139t41 -112t28.5 -61.5q29 -49 18.5 -93t-47.5 -67l-18 -12q-41 -25 -84 -15.5 t-72 48.5q-25 31 -53.5 94t-55 144t-44 174.5t-17.5 183.5z" />
<glyph unicode=")" horiz-adv-x="550" d="M63.5 -48q-10.5 44 18.5 93q8 14 28.5 61.5t41 112t36 139t15.5 144.5q0 68 -15.5 142.5t-36 139t-41 111.5t-28.5 61q-29 49 -18.5 93.5t47.5 66.5l18 12q41 25 84 16t72 -48q25 -31 53.5 -94.5t55 -144.5t44 -173t17.5 -182t-17.5 -183.5t-44 -174.5t-55.5 -144 t-53 -94q-29 -39 -72 -48.5t-84 15.5l-18 12q-37 23 -47.5 67z" />
<glyph unicode="*" horiz-adv-x="729" d="M72 981l6 23q8 20 25.5 29t39.5 1l162 -51v170q0 23 14.5 37t34.5 14h25q20 0 34.5 -14t14.5 -37v-170l162 49q23 8 40 -1t25 -30l7 -22q6 -18 -3.5 -36.5t-29.5 -27.5l-162 -51l100 -135q12 -18 9 -39.5t-19 -32.5l-16 -14q-18 -12 -39 -9t-33 21l-102 138l-99 -138 q-14 -16 -34.5 -19t-36.5 7l-19 12q-16 14 -20 35t10 37l98 139l-162 52q-20 8 -29 26.5t-3 36.5z" />
<glyph unicode="+" horiz-adv-x="1161" d="M102 489v21q0 47 25 81t72 34h256v258q0 47 33.5 71.5t80.5 24.5h23q47 0 81 -24.5t34 -71.5v-258h256q47 0 71.5 -34t24.5 -81v-21q0 -47 -24.5 -80.5t-71.5 -33.5h-256v-256q0 -47 -34 -73t-81 -26h-23q-47 0 -80.5 26t-33.5 73v256h-256q-47 0 -72 33.5t-25 80.5z" />
<glyph unicode="," horiz-adv-x="442" d="M68 -88l92 258q16 45 58 65.5t87 4.5l21 -9q45 -16 65.5 -58t3.5 -87l-90 -258q-16 -45 -59 -65.5t-88 -4.5l-21 9q-45 16 -65.5 58t-3.5 87z" />
<glyph unicode="-" horiz-adv-x="874" d="M61 489v23q0 47 25 81t72 34h559q47 0 71.5 -34t24.5 -81v-23q0 -47 -24.5 -80.5t-71.5 -33.5h-559q-47 0 -72 33.5t-25 80.5z" />
<glyph unicode="." horiz-adv-x="385" d="M68 115v20q0 47 24.5 81t71.5 34h57q47 0 71.5 -34t24.5 -81v-20q0 -47 -24.5 -81t-71.5 -34h-57q-47 0 -71.5 34t-24.5 81z" />
<glyph unicode="/" horiz-adv-x="749" d="M41 -92l451 1270q16 45 58 65.5t87 3.5l20 -6q45 -16 65.5 -59t4.5 -88l-448 -1270q-16 -45 -59.5 -65.5t-88.5 -4.5l-20 6q-45 16 -65.5 59.5t-4.5 88.5z" />
<glyph unicode="0" d="M104 346v397q0 72 31 134.5t84 109.5t125 75t154 28t153.5 -28t125.5 -75t85 -109.5t31 -134.5v-397q0 -72 -31 -135.5t-84 -110.5t-124.5 -73.5t-153.5 -26.5t-154 26.5t-126 73.5t-85 110.5t-31 135.5zM391 346q0 -41 32 -67.5t75 -26.5q45 0 76.5 26.5t31.5 67.5v397 q0 39 -31.5 67t-76.5 28q-43 0 -75 -28t-32 -67v-397z" />
<glyph unicode="1" horiz-adv-x="792" d="M94 822q2 48 37 81l141 127q16 16 50 38t94 22h110q47 0 81 -25t34 -72v-897q0 -47 -34 -71.5t-81 -24.5h-57q-47 0 -81 24.5t-34 71.5v647l-41 -36q-35 -33 -82 -32t-79 36l-27 28q-33 35 -31 83z" />
<glyph unicode="2" d="M78 115v10q0 23 11 47.5t28 40.5l385 401q31 31 59.5 63t28.5 60q0 39 -31 70t-84 31q-39 0 -69.5 -26t-40.5 -64q-14 -43 -41 -79t-74 -36h-49q-47 0 -81 33.5t-34 81.5q0 66 28.5 127t81 109t124 77t159.5 29q92 0 166 -30t125 -79t79 -114.5t28 -137.5 q0 -37 -14.5 -70.5t-34 -62.5t-39 -50.5t-31.5 -33.5l-193 -225l-43 -29l74 10h227q47 0 72 -33.5t25 -80.5v-39q0 -47 -25 -81t-72 -34h-630q-47 0 -81 34t-34 81z" />
<glyph unicode="3" d="M117.5 273q5.5 44 42.5 75l28 25q37 33 86.5 28.5t75.5 -45.5q12 -18 24.5 -36.5t28 -34t38 -24.5t53.5 -9q45 0 75.5 31.5t30.5 91.5q0 31 -10 51t-25.5 32.5t-33 17.5t-31.5 5h-37q-76 0 -76 88t76 88h37q20 0 37.5 10.5t30 26t19.5 31.5t7 31q0 25 -12.5 40t-27.5 24 t-32.5 13.5t-25.5 4.5q-41 0 -61.5 -15.5t-31.5 -25.5q-29 -37 -78 -42t-83 25l-31 25q-35 31 -40 79t26 85q41 47 112.5 84t182.5 37q74 0 138 -23t113.5 -64.5t78 -98t28.5 -124.5q0 -66 -27.5 -118t-52.5 -76q55 -35 86 -98.5t31 -129.5q0 -72 -31 -136t-84 -113.5 t-125 -79t-153 -29.5q-66 0 -120.5 15.5t-97.5 41t-75.5 60.5t-59.5 73q-29 39 -23.5 83z" />
<glyph unicode="4" d="M49 330v28q0 16 2 32t6 22l199 614q16 47 56 59.5t85 -4.5l54 -18q45 -16 68.5 -51t6.5 -80l-164 -467h156v119q0 47 34 71.5t81 24.5h57q47 0 81 -24.5t34 -71.5v-119h45q47 0 72.5 -34t25.5 -81v-20q0 -47 -25.5 -81t-72.5 -34h-45v-119q0 -47 -34 -71.5t-81 -24.5h-57 q-47 0 -81 24.5t-34 71.5v119h-354q-47 0 -81 34t-34 81z" />
<glyph unicode="5" d="M109.5 151q-9.5 44 15.5 85l12 18q23 37 66 47t94 -18q14 -8 29.5 -17.5t38 -16.5t53.5 -11.5t78 -4.5q25 0 48 4.5t40.5 17.5t29 36.5t11.5 64.5q0 109 -129 109q-47 0 -70 -10.5t-39 -21.5t-34.5 -21.5t-57.5 -10.5h-39q-47 0 -81 30t-34 77v467q0 47 34 81t81 34h487 q47 0 81 -34t34 -81v-23q0 -47 -33.5 -80.5t-81.5 -33.5h-315v-183q16 8 50 20.5t75 12.5q164 0 257 -90t93 -252q0 -78 -31.5 -141.5t-87 -108.5t-130 -70.5t-158.5 -25.5q-72 0 -121 3t-88 12.5t-70 23.5t-61 39q-37 29 -46.5 73z" />
<glyph unicode="6" d="M104 346v14q0 39 12.5 88.5t33 103.5t46 111.5t52.5 110.5q63 127 145 260q27 41 72 50.5t86 -13.5l37 -18q41 -23 51 -70t-12 -88l-119 -227q33 6 51.5 7t42.5 1q66 0 119 -25.5t92 -68.5t59.5 -100.5t20.5 -121.5v-14q0 -72 -31 -135.5t-84 -110.5t-124.5 -73.5 t-153.5 -26.5t-154 26.5t-126 73.5t-85 110.5t-31 135.5zM391 328q0 -41 32 -68t75 -27q45 0 76.5 27t31.5 68v51q0 39 -30.5 66.5t-77.5 27.5q-43 0 -75 -27.5t-32 -66.5v-51z" />
<glyph unicode="7" d="M104 809v166q0 47 34 81t81 34h559q47 0 81 -34t34 -81v-31q0 -14 -2 -30.5t-4 -22.5l-271 -815q-16 -47 -59 -66.5t-88 -3.5l-53 19q-45 16 -65.5 58t-4.5 89l217 666h-198v-29q0 -47 -34 -81t-81 -34h-31q-47 0 -81 34t-34 81z" />
<glyph unicode="8" d="M102 336q0 66 32 125t87 100q-53 57 -66.5 101.5t-13.5 91.5q0 66 29 127t77 107t112.5 74t138.5 28t139 -28t113.5 -74t77 -107.5t28.5 -126.5q0 -47 -16.5 -94.5t-63.5 -98.5q55 -41 87 -100t32 -125q0 -72 -32 -133.5t-85 -106.5t-125.5 -70.5t-154.5 -25.5t-154 25.5 t-126 70.5t-85 106.5t-31 133.5zM391 338q0 -41 32 -67.5t75 -26.5q45 0 76.5 26.5t31.5 67.5v41q0 41 -31.5 67.5t-76.5 26.5q-43 0 -75 -26.5t-32 -67.5v-41zM391 729q0 -39 32 -77t75 -38q45 0 76.5 38t31.5 77q0 41 -31.5 79t-76.5 38q-43 0 -75 -38t-32 -79z" />
<glyph unicode="9" d="M104 727v16q0 72 31 134.5t84 109.5t125 75t154 28t153.5 -28t125.5 -75t85 -109.5t31 -134.5v-16q0 -39 -12.5 -88t-33 -103.5t-47 -111.5t-52.5 -111q-63 -127 -144 -260q-27 -41 -72 -50t-86 13l-36 21q-41 23 -51.5 69t12.5 89l118 225q-33 -4 -51 -5t-43 -1 q-66 0 -119 24.5t-92 67.5t-59.5 100.5t-20.5 120.5zM391 709q0 -39 31 -67t78 -28q43 0 74.5 28t31.5 67v51q0 41 -31.5 67.5t-74.5 26.5q-45 0 -77 -26.5t-32 -67.5v-51z" />
<glyph unicode=":" horiz-adv-x="385" d="M68 115v20q0 47 24.5 81t71.5 34h57q47 0 71.5 -34t24.5 -81v-20q0 -47 -24.5 -81t-71.5 -34h-57q-47 0 -71.5 34t-24.5 81zM68 541v22q0 47 24.5 81t71.5 34h57q47 0 71.5 -34t24.5 -81v-22q0 -47 -24.5 -81t-71.5 -34h-57q-47 0 -71.5 34t-24.5 81z" />
<glyph unicode=";" horiz-adv-x="481" d="M84 -88l92 258q16 45 58 65.5t88 4.5l20 -9q45 -16 65.5 -58t4.5 -87l-90 -258q-16 -45 -59.5 -65.5t-88.5 -4.5l-20 9q-45 16 -65.5 58t-4.5 87zM188 541v22q0 47 26 81t73 34h57q47 0 71.5 -34t24.5 -81v-22q0 -47 -24.5 -81t-71.5 -34h-57q-47 0 -73 34t-26 81z" />
<glyph unicode="&#x3c;" horiz-adv-x="1136" d="M25.5 505q3.5 46 29.5 75l252 284q33 35 80 39t82 -29l16 -14q35 -31 39 -79t-28 -83l-82 -71h557q47 0 71.5 -34t24.5 -81v-23q0 -47 -24.5 -80.5t-71.5 -33.5h-557l82 -72q33 -35 28.5 -83t-39.5 -79l-16 -14q-35 -33 -82 -29t-80 39l-252 285q-33 37 -29.5 83z" />
<glyph unicode="=" horiz-adv-x="956" d="M102 293v22q0 47 25 81t72 34h559q47 0 71.5 -34t24.5 -81v-22q0 -47 -24.5 -81t-71.5 -34h-559q-47 0 -72 34t-25 81zM102 688v21q0 47 25 80.5t72 33.5h559q47 0 71.5 -33.5t24.5 -80.5v-21q0 -47 -24.5 -81t-71.5 -34h-559q-47 0 -72 34t-25 81z" />
<glyph unicode="&#x3e;" horiz-adv-x="1136" d="M72 489v23q0 47 24.5 81t71.5 34h557l-82 71q-33 35 -30 83t40 79l15 14q37 33 84 29t79 -39l250 -284q29 -29 32 -75t-32 -83l-250 -285q-33 -35 -79.5 -39t-83.5 29l-15 14q-37 31 -40 79t30 83l82 72h-557q-47 0 -71.5 33.5t-24.5 80.5z" />
<glyph unicode="?" horiz-adv-x="804" d="M32.5 943q8.5 44 47.5 73q57 43 143 61.5t162 18.5q86 0 157.5 -18.5t125 -56.5t83 -96.5t29.5 -138.5q0 -74 -23.5 -125t-60.5 -83.5t-84 -47t-92 -14.5v-63q0 -47 -29.5 -72t-76.5 -25h-58q-47 0 -76.5 25t-29.5 72v149q0 47 29.5 72.5t76.5 25.5h29q49 0 79 13.5 t30 72.5q0 41 -34 57.5t-75 16.5q-45 0 -93 -17.5t-73 -31.5q-49 -29 -93 -17.5t-67 46.5l-10 18q-25 41 -16.5 85zM260 115v20q0 47 24.5 81t71.5 34h58q47 0 71.5 -34t24.5 -81v-20q0 -47 -24.5 -81t-71.5 -34h-58q-47 0 -71.5 34t-24.5 81z" />
<glyph unicode="@" horiz-adv-x="1880" d="M117 0v1075q0 74 27.5 139.5t76.5 114.5t114.5 77t139.5 28h932q74 0 139.5 -28t113.5 -77t75.5 -114.5t27.5 -139.5v-717q0 -74 -27.5 -139t-76.5 -114.5t-114.5 -77t-139.5 -27.5h-231q-35 0 -58.5 23.5t-23.5 58.5v39q-35 -49 -94.5 -85t-135.5 -36h-98 q-90 0 -153.5 60.5t-63.5 164.5v523q0 59 22.5 111t61.5 91t91 61.5t112 22.5h415q41 0 62.5 -25.5t21.5 -68.5l2 -690h39q59 0 99 41t40 98v653q0 59 -39.5 99.5t-97.5 40.5h-870q-57 0 -98 -40t-41 -100v-1011q0 -57 41 -98.5t98 -41.5l711 3q35 0 58 -24t23 -58v-88 q0 -35 -23.5 -58.5t-57.5 -23.5h-742q-74 0 -139.5 27.5t-114.5 76.5t-76.5 114.5t-27.5 139.5zM797 295q0 -16 14 -30.5t31 -14.5h20q98 0 147.5 37t73.5 90v405h-198q-41 0 -64.5 -23.5t-23.5 -58.5v-405z" />
<glyph unicode="A" horiz-adv-x="1064" d="M20 141l371 1178q16 55 49 85t92 30t91 -30t51 -85l370 -1178q4 -13 4 -26q0 -19 -9 -37q-15 -30 -50 -39l-117 -35q-13 -4 -25 -4q-19 0 -37 10q-30 16 -40 47l-96 316h-283l-96 -316q-10 -33 -40 -49q-18 -10 -38 -10q-12 0 -24 4l-119 37q-32 10 -48 40q-9 18 -10 37 q0 12 4 25zM467 625h129l-55 256l-9 98l-8 -98z" />
<glyph unicode="B" horiz-adv-x="1294" d="M170 82v1270q0 35 23.5 58.5t58.5 23.5h450q88 0 162 -29t127 -80t82 -119.5t29 -150.5q0 -68 -21.5 -126.5t-72.5 -105.5q74 -41 120 -120.5t46 -170.5v-245q0 -59 -23 -111.5t-61.5 -91.5t-91 -61.5t-111.5 -22.5h-635q-35 0 -58.5 23.5t-23.5 58.5zM457 287h348 q35 0 58.5 23.5t23.5 58.5v96q0 59 -40 99t-99 40h-291v-317zM457 891h176q88 0 135 26.5t47 100.5q0 76 -47 102.5t-135 26.5h-176v-256z" />
<glyph unicode="C" horiz-adv-x="1128" d="M121 287v788q0 74 27.5 139.5t76.5 114.5t115 77t139 28h488q43 0 64.5 -26t21.5 -67v-102q0 -41 -21.5 -66.5t-64.5 -25.5h-420q-59 0 -99 -40t-40 -99v-639q0 -35 23.5 -58.5t57.5 -23.5h478q43 0 64.5 -25.5t21.5 -68.5v-101q0 -41 -21.5 -66.5t-64.5 -25.5h-559 q-59 0 -111.5 22.5t-91.5 61.5t-61.5 91t-22.5 112z" />
<glyph unicode="D" horiz-adv-x="1294" d="M170 82v1270q0 35 23.5 58.5t58.5 23.5h563q74 0 139.5 -28t114.5 -77t77 -114.5t28 -139.5v-788q0 -59 -23 -111.5t-61.5 -91.5t-91 -61.5t-111.5 -22.5h-635q-35 0 -58.5 23.5t-23.5 58.5zM457 287h348q35 0 58.5 23.5t23.5 58.5v639q0 59 -40 99t-99 40h-291v-860z " />
<glyph unicode="E" horiz-adv-x="1210" d="M170 82v1270q0 35 23.5 58.5t58.5 23.5h768q35 0 58.5 -24t23.5 -58v-123q0 -35 -23.5 -58.5t-58.5 -23.5h-563v-256h491q35 0 58.5 -23.5t23.5 -58.5v-123q0 -35 -23.5 -58.5t-58.5 -23.5h-491v-317h563q35 0 58.5 -23.5t23.5 -58.5v-123q0 -35 -23.5 -58.5t-58.5 -23.5 h-768q-35 0 -58.5 23.5t-23.5 58.5z" />
<glyph unicode="F" horiz-adv-x="1177" d="M170 82v1270q0 35 23.5 58.5t58.5 23.5h768q35 0 58.5 -24t23.5 -58v-123q0 -35 -23.5 -58.5t-58.5 -23.5h-563v-256h420q35 0 58 -23.5t23 -58.5v-123q0 -35 -23.5 -58.5t-57.5 -23.5h-420v-522q0 -35 -23.5 -58.5t-58.5 -23.5h-123q-35 0 -58.5 23.5t-23.5 58.5z" />
<glyph unicode="G" horiz-adv-x="1243" d="M121 287v788q0 74 27.5 139.5t76.5 114.5t115 77t139 28h559q43 0 64.5 -26t21.5 -67v-102q0 -41 -21.5 -66.5t-64.5 -25.5h-491q-59 0 -99 -40t-40 -99v-639q0 -35 23.5 -58.5t57.5 -23.5h349v317h-133q-35 0 -58.5 23.5t-23.5 58.5v123q0 35 23.5 58.5t58.5 23.5h337 q35 0 58.5 -23.5t23.5 -58.5v-727q0 -35 -23.5 -58.5t-58.5 -23.5h-634q-59 0 -111.5 22.5t-91.5 61.5t-61.5 91t-22.5 112z" />
<glyph unicode="H" horiz-adv-x="1343" d="M170 82v1270q0 35 23.5 58.5t58.5 23.5h123q35 0 58.5 -24t23.5 -58v-461h430v461q0 35 23.5 58.5t58.5 23.5h123q35 0 58.5 -24t23.5 -58v-1270q0 -35 -24 -58.5t-58 -23.5h-123q-35 0 -58.5 23.5t-23.5 58.5v522h-430v-522q0 -35 -23.5 -58.5t-58.5 -23.5h-123 q-35 0 -58.5 23.5t-23.5 58.5z" />
<glyph unicode="I" horiz-adv-x="626" d="M170 82v1270q0 35 23.5 58.5t58.5 23.5h123q35 0 58.5 -24t23.5 -58v-1270q0 -35 -23.5 -58.5t-58.5 -23.5h-123q-35 0 -58.5 23.5t-23.5 58.5z" />
<glyph unicode="J" horiz-adv-x="874" d="M6 82v123q0 35 23.5 58.5t58.5 23.5h170q37 0 69.5 16t56.5 46t38 69t14 82v852q0 35 23.5 58.5t58.5 23.5h123q35 0 58.5 -24t23.5 -58v-922q0 -90 -30.5 -168t-84 -136t-125 -92t-153.5 -34h-242q-35 0 -58.5 23.5t-23.5 58.5z" />
<glyph unicode="K" horiz-adv-x="1185" d="M170 82v1270q0 35 23.5 58.5t58.5 23.5h123q35 0 58.5 -24t23.5 -58v-437l485 494q25 25 58.5 25t58.5 -25l88 -86q25 -23 25 -55q0 -34 -25 -60l-408 -413l418 -594q15 -22 15 -47q0 -7 -1 -15q-6 -33 -34 -53l-101 -70q-23 -16 -49 -16q-7 0 -13 1q-32 5 -52 34 l-387 553l-78 -80v-426q0 -35 -23.5 -58.5t-58.5 -23.5h-123q-35 0 -58.5 23.5t-23.5 58.5z" />
<glyph unicode="L" horiz-adv-x="1163" d="M170 82v1270q0 35 23.5 58.5t58.5 23.5h123q35 0 58.5 -24t23.5 -58v-1065h563q35 0 58.5 -23.5t23.5 -58.5v-123q0 -35 -23.5 -58.5t-58.5 -23.5h-768q-35 0 -58.5 23.5t-23.5 58.5z" />
<glyph unicode="M" horiz-adv-x="1449" d="M170 82v1270q0 35 23.5 58.5t58.5 23.5h104q43 0 68 -35l2 -2l295 -484l4 -24l6 24l293 484q23 37 70 37h104q35 0 58.5 -24t23.5 -58v-1270q0 -35 -23.5 -58.5t-58.5 -23.5h-121q-35 0 -58.5 23.5t-23.5 58.5v811l-6 35l-8 -35l-152 -238q-16 -27 -45.5 -39t-58.5 -12 t-57.5 12.5t-44.5 36.5l-154 240l-8 35l-4 -35v-811q0 -35 -23.5 -58.5t-58.5 -23.5h-123q-35 0 -58.5 23.5t-23.5 58.5z" />
<glyph unicode="N" horiz-adv-x="1343" d="M170 82v1270q0 35 23.5 58.5t58.5 23.5h123q25 0 44 -12.5t30 -32.5l430 -828l6 -26l2 26v791q0 35 23.5 58.5t58.5 23.5h123q35 0 58.5 -24t23.5 -58v-1270q0 -35 -24 -58.5t-58 -23.5h-123q-49 0 -76 51l-430 826l-4 30l-2 -30v-795q0 -35 -23.5 -58.5t-58.5 -23.5 h-123q-35 0 -58.5 23.5t-23.5 58.5z" />
<glyph unicode="O" horiz-adv-x="1245" d="M121 358v717q0 74 27.5 139.5t76.5 114.5t115 77t139 28h287q74 0 139.5 -28t114.5 -77t76.5 -114.5t27.5 -139.5v-717q0 -74 -27.5 -139t-76.5 -114.5t-114.5 -77t-139.5 -27.5h-287q-74 0 -139.5 27.5t-114.5 77t-76.5 115t-27.5 138.5zM408 426q0 -59 39.5 -99 t99.5 -40h151q59 0 99.5 40t40.5 99v582q0 59 -40 99t-100 40h-151q-59 0 -99 -40t-40 -99v-582z" />
<glyph unicode="P" horiz-adv-x="1245" d="M170 82v1270q0 35 23.5 58.5t58.5 23.5h563q74 0 139.5 -28t114.5 -77t77 -114.5t28 -139.5v-174q0 -74 -28 -139.5t-77 -114.5t-114.5 -76.5t-139.5 -27.5h-358v-461q0 -35 -23.5 -58.5t-58.5 -23.5h-123q-35 0 -58.5 23.5t-23.5 58.5zM457 829h291q59 0 99 32t40 89v76 q0 57 -40 89t-99 32h-291v-318z" />
<glyph unicode="Q" horiz-adv-x="1280" d="M121 358v717q0 74 27.5 139.5t76.5 114.5t115 77t139 28h287q74 0 139.5 -28t114.5 -77t76.5 -114.5t27.5 -139.5v-717q0 -78 -30 -145l77 -78q25 -25 25 -58.5t-25 -56.5l-61 -61q-25 -25 -58.5 -25t-58.5 23l-75 78q-70 -35 -152 -35h-287q-74 0 -139.5 27.5t-114.5 77 t-76.5 115t-27.5 138.5zM408 426q0 -59 39.5 -99t99.5 -40h119l-68 65q-23 25 -23 58.5t23 58.5l64 61q23 25 56.5 25t57.5 -25l62 -61v539q0 59 -40 99t-100 40h-151q-59 0 -99 -40t-40 -99v-582z" />
<glyph unicode="R" horiz-adv-x="1239" d="M170 82v1270q0 35 23.5 58.5t58.5 23.5h563q74 0 139.5 -28t114.5 -77t77 -114.5t28 -139.5v-174q0 -61 -20.5 -117.5t-55.5 -102.5t-83 -79t-106 -47l248 -354q16 -23 16 -49q0 -6 -1 -13q-5 -33 -33 -53l-101 -70q-23 -16 -49 -16q-7 0 -13 1q-32 5 -52 34l-357 508 h-110v-461q0 -35 -23.5 -58.5t-58.5 -23.5h-123q-35 0 -58.5 23.5t-23.5 58.5zM457 829h291q59 0 99 32t40 89v76q0 57 -40 89t-99 32h-291v-318z" />
<glyph unicode="S" horiz-adv-x="1239" d="M102 268q8 32 25 47l78 93q26 28 56 28h3q32 -2 60 -24l34 -33q55 -47 103.5 -69.5t118.5 -22.5h122q74 0 112 42t38 89q0 49 -49 74l-477 247q-84 43 -128 126t-44 182q0 100 36.5 172.5t96 121t136.5 71t155 22.5h98q76 0 141.5 -19.5t114.5 -45.5t82 -51.5t43 -35.5 l39 -41q35 -35 35 -65q0 -34 -19 -54l-82 -98q-25 -30 -52 -30q-8 0 -16 2q-34 12 -63 38l-37 33q-12 10 -26.5 23.5t-37 25.5t-57 21.5t-86.5 9.5h-32q-88 0 -135.5 -25.5t-47.5 -72.5q0 -25 22.5 -46.5t51.5 -35.5l461 -240q82 -43 128 -132t46 -183q0 -84 -32 -159 t-87 -131t-130 -89t-161 -33h-178q-61 0 -113.5 9t-99.5 30.5t-93 54.5t-97 82l-37 35q-21 19 -21 42q0 7 2 15z" />
<glyph unicode="T" horiz-adv-x="1126" d="M61 1229v123q0 35 24 58.5t58 23.5h840q35 0 58.5 -24t23.5 -58v-123q0 -35 -23.5 -58.5t-58.5 -23.5h-276v-1065q0 -35 -24 -58.5t-58 -23.5h-123q-35 0 -58.5 23.5t-23.5 58.5v1065h-277q-35 0 -58.5 23.5t-23.5 58.5z" />
<glyph unicode="U" horiz-adv-x="1298" d="M147 465v887q0 35 24 58.5t58 23.5h123q35 0 58.5 -24t23.5 -58v-815q0 -51 14.5 -97.5t41 -80t66.5 -53t93 -19.5q51 0 92 19.5t68 53t41 79.5t14 98v815q0 35 23.5 58.5t58.5 23.5h123q35 0 58.5 -24t23.5 -58v-887q0 -96 -42 -181t-111.5 -147.5t-161 -99.5 t-187.5 -37t-187 37t-161 99.5t-112 147.5t-42 181z" />
<glyph unicode="V" horiz-adv-x="1052" d="M20 1292q-4 13 -4 25q0 19 10 37q16 30 48 41l119 35q13 4 25 4q20 0 38 -10q30 -16 39 -48l225 -774l12 -76l13 78l225 772q10 34 40 50q19 10 38 10q12 0 24 -4l117 -37q35 -10 51 -40q9 -18 9 -36q0 -13 -5 -27l-370 -1214q-16 -55 -57.5 -66.5t-84.5 -11.5 t-83.5 11.5t-57.5 66.5z" />
<glyph unicode="W" horiz-adv-x="1433" d="M27 1292q-4 16 -4 32t5 32q9 30 44 41l127 33q13 4 27 4q18 0 36 -8q30 -14 37 -50l156 -774l12 -76l10 78l152 393q10 29 31.5 43.5t62.5 14.5q43 0 60.5 -15.5t27.5 -42.5l154 -395l12 -76l12 78l154 772q7 36 37 50q20 9 41 9q12 0 24 -3l125 -33q35 -8 44 -40 q5 -19 5 -39q0 -14 -2 -28l-264 -1214q-12 -55 -55 -66.5t-86 -11.5t-84 11.5t-58 66.5l-155 518l-144 -518q-16 -55 -57 -66.5t-84 -11.5t-86 11.5t-55 66.5z" />
<glyph unicode="X" horiz-adv-x="1124" d="M15 137q-1 7 -1 14q0 25 15 48l362 518l-362 516q-14 23 -14 49q1 6 1 12q4 32 33 54l101 69q23 16 49 16q7 0 13 -1q32 -5 52 -33l303 -432l301 432q20 29 53 34q7 1 14 1q25 0 48 -15l100 -71q29 -20 35 -53q1 -8 1 -15q0 -25 -15 -47l-363 -516l363 -518 q15 -22 15 -47q0 -7 -1 -15q-6 -33 -35 -51l-100 -72q-22 -15 -47 -15q-6 0 -14 1q-32 6 -54 35l-301 432l-303 -432q-20 -29 -53 -35q-8 -1 -15 -1q-24 0 -46 15l-101 70q-29 20 -34 53z" />
<glyph unicode="Y" horiz-adv-x="1116" d="M12 1294q4 33 33 54l100 69q23 16 50 16q6 0 13 -1q34 -5 52 -33l303 -451l301 451q20 29 53 34q7 1 14 1q25 0 48 -15l100 -71q29 -20 35 -53q1 -8 1 -15q0 -25 -15 -47l-393 -561v-590q0 -35 -24 -58.5t-58 -23.5h-123q-35 0 -58.5 23.5t-23.5 58.5v590l-395 561 q-14 23 -14 49q0 6 1 12z" />
<glyph unicode="Z" horiz-adv-x="1163" d="M80 82v123q0 16 7 30.5t17 26.5l619 885h-561q-35 0 -58.5 23.5t-23.5 58.5v123q0 35 23.5 58.5t58.5 23.5h839q35 0 58.5 -24t23.5 -58v-123q0 -16 -6 -29.5t-14 -25.5l-623 -887h561q35 0 58.5 -23.5t23.5 -58.5v-123q0 -35 -23.5 -58.5t-58.5 -23.5h-839 q-35 0 -58.5 23.5t-23.5 58.5z" />
<glyph unicode="[" horiz-adv-x="735" d="M102 -172v1348q0 47 25 80.5t72 33.5h415q47 0 72 -33.5t25 -80.5v-23q0 -47 -24.5 -81t-72.5 -34h-262v-1075h262q47 0 72 -33.5t25 -81.5v-20q0 -47 -24.5 -81t-72.5 -34h-415q-47 0 -72 34t-25 81z" />
<glyph unicode="\" horiz-adv-x="749" d="M41 1094q-16 45 4.5 88t65.5 59l20 6q45 16 87 -4t58 -65l451 -1270q16 -45 -4.5 -88t-65.5 -60l-20 -6q-45 -16 -88 4.5t-60 65.5z" />
<glyph unicode="]" horiz-adv-x="735" d="M25 -152q0 47 24.5 81t71.5 34h262v1075h-262q-47 0 -71.5 34t-24.5 81v23q0 47 24.5 80.5t71.5 33.5h416q47 0 71.5 -33.5t24.5 -80.5v-1348q0 -47 -24.5 -81t-71.5 -34h-416q-47 0 -71.5 34t-24.5 81v20z" />
<glyph unicode="^" horiz-adv-x="1044" d="M151.5 945q-4.5 24 12.5 46l309 443q4 6 14.5 19t38.5 13q29 0 39 -13t15 -19l311 -443q14 -23 10 -46t-24 -38q-20 -14 -44 -10t-40 27l-267 379l-266 -379q-14 -23 -38.5 -27t-45.5 10q-20 14 -24.5 38z" />
<glyph unicode="_" horiz-adv-x="940" d="M-14 -131q0 49 34.5 83t81.5 34h736q47 0 80.5 -32t33.5 -83q0 -49 -33.5 -84t-80.5 -35h-736q-47 0 -81.5 34t-34.5 83z" />
<glyph unicode="`" horiz-adv-x="1050" d="M254 1471.5q0 41.5 29 70.5t71.5 30t71.5 -28l180 -182q29 -29 29 -69.5t-29 -69.5t-70.5 -30t-70.5 28l-182 180q-29 29 -29 70.5z" />
<glyph unicode="a" horiz-adv-x="1069" d="M72 213v215q0 45 16 85t46 68.5t69 46t84 17.5h358v41q0 35 -23.5 58.5t-64.5 23.5h-332q-35 0 -58.5 23.5t-23.5 58.5v123q0 35 23.5 58.5t58.5 23.5h418q61 0 113.5 -22.5t91.5 -61.5t61.5 -91.5t22.5 -111.5v-676q0 -41 -21.5 -66.5t-64.5 -25.5h-559q-45 0 -84 16.5 t-69 46t-46 68.5t-16 82zM358 315q0 -63 56 -63h231v141h-231q-55 0 -56 -63v-15z" />
<glyph unicode="b" horiz-adv-x="1114" d="M150 92v1256q0 43 25.5 64.5t66.5 21.5h102q41 0 66.5 -21.5t25.5 -64.5v-293h287q59 0 111.5 -22.5t91.5 -61.5t61.5 -91.5t22.5 -111.5v-555q0 -53 -20.5 -93t-52.5 -66.5t-70 -40t-72 -13.5h-562q-41 0 -62 25.5t-21 66.5zM436 287h232q55 0 55 63v336 q0 35 -21.5 58.5t-66.5 23.5h-199v-481z" />
<glyph unicode="c" horiz-adv-x="940" d="M96 225v543q0 59 22.5 111.5t61.5 91.5t91.5 61.5t111.5 22.5h416q43 0 64.5 -25.5t21.5 -68.5v-101q0 -41 -21.5 -66.5t-64.5 -25.5h-328q-41 0 -64.5 -23.5t-23.5 -58.5v-356q0 -14 14.5 -28.5t28.5 -14.5h373q43 0 64.5 -25.5t21.5 -68.5v-101q0 -41 -21.5 -66.5 t-64.5 -25.5h-486q-90 0 -153.5 60.5t-63.5 164.5z" />
<glyph unicode="d" horiz-adv-x="1114" d="M104 213v555q0 59 23 111.5t61.5 91.5t91 61.5t111.5 22.5h287v293q0 43 25.5 64.5t66.5 21.5h100q43 0 69 -21.5t26 -64.5v-1256q0 -41 -21.5 -66.5t-64.5 -25.5h-560q-35 0 -72.5 13.5t-69.5 40t-52.5 66.5t-20.5 93zM391 350q0 -63 55 -63h232v481h-199 q-45 0 -66.5 -23.5t-21.5 -58.5v-336z" />
<glyph unicode="e" horiz-adv-x="1089" d="M96 287v395q0 82 29 150.5t79 117.5t119.5 77t151.5 28h139q82 0 152 -28t120 -78t78.5 -118.5t28.5 -150.5v-178q0 -41 -22.5 -66.5t-63.5 -25.5h-524v-43q0 -33 23.5 -56.5t58.5 -23.5h391q41 0 70.5 -30t29.5 -73v-84q0 -41 -29.5 -70.5t-70.5 -29.5h-473 q-59 0 -111.5 22.5t-91.5 61.5t-61.5 91t-22.5 112zM383 659h322l2 23q0 74 -41 116t-115 42h-12q-74 0 -115 -42t-41 -116v-23z" />
<glyph unicode="f" horiz-adv-x="843" d="M72 860v101q0 43 21.5 68.5t62.5 25.5h59v71q0 68 22.5 124.5t63.5 97.5t97.5 63.5t121.5 22.5h185q41 0 62 -26t21 -69v-100q0 -41 -21.5 -66.5t-61.5 -25.5h-111q-45 0 -68.5 -3t-23.5 -42v-47h203q41 0 62 -25.5t21 -68.5v-101q0 -41 -21.5 -66.5t-61.5 -25.5h-203 v-684q0 -41 -25.5 -62.5t-66.5 -21.5h-103q-41 0 -66.5 21.5t-25.5 62.5v684h-57q-43 0 -64.5 25.5t-21.5 66.5z" />
<glyph unicode="g" horiz-adv-x="1095" d="M104 215v541q0 61 21.5 115.5t59.5 95.5t92.5 64.5t121.5 23.5h463q41 0 62.5 -25.5t21.5 -66.5v-1022q0 -61 -20.5 -115.5t-59.5 -95.5t-93 -64.5t-122 -23.5h-409q-35 0 -58.5 23.5t-23.5 58.5v122q0 35 23.5 58.5t58.5 23.5h327q45 0 67.5 7.5t22.5 50.5v14h-340 q-35 0 -72.5 13.5t-69.5 40t-52.5 66.5t-20.5 95zM391 350q0 -63 55 -63h213v481h-178q-45 0 -67.5 -25.5t-22.5 -68.5v-324z" />
<glyph unicode="h" horiz-adv-x="1146" d="M150 82v1270q0 35 23.5 58.5t57.5 23.5h123q35 0 58.5 -24t23.5 -58v-297h287q59 0 111.5 -22.5t91.5 -61.5t61.5 -91.5t22.5 -111.5v-686q0 -35 -23.5 -58.5t-58.5 -23.5h-123q-35 0 -58.5 23.5t-23.5 58.5v602q0 35 -23.5 59.5t-64.5 24.5h-199v-686q0 -35 -23.5 -58.5 t-58.5 -23.5h-123q-35 0 -58 23.5t-23 58.5z" />
<glyph unicode="i" horiz-adv-x="612" d="M150 1251v68q0 47 33.5 81t80.5 34h84q47 0 81 -34t34 -81v-68q0 -47 -34 -80.5t-81 -33.5h-84q-47 0 -80.5 33.5t-33.5 80.5zM162 82v891q0 35 23.5 58.5t58.5 23.5h123q35 0 58.5 -23.5t23.5 -58.5v-891q0 -35 -24 -58.5t-58 -23.5h-123q-35 0 -58.5 23.5t-23.5 58.5z " />
<glyph unicode="j" horiz-adv-x="688" d="M-47 -154q0 35 23.5 58.5t58.5 23.5h65q59 0 99.5 40t40.5 100v905q0 35 23.5 58.5t58.5 23.5h122q35 0 58.5 -23.5t23.5 -58.5v-973q0 -74 -27.5 -139.5t-76.5 -114.5t-114.5 -76.5t-139.5 -27.5h-133q-35 0 -58.5 23.5t-23.5 58.5v122zM227 1251v68q0 47 33 81t80 34 h86q47 0 80 -34t33 -81v-68q0 -47 -33 -80.5t-80 -33.5h-84q-47 0 -81 33.5t-34 80.5z" />
<glyph unicode="k" horiz-adv-x="1044" d="M150 82v1270q0 35 23.5 58.5t57.5 23.5h123q35 0 58.5 -24t23.5 -58v-590l381 276q24 19 50 19q5 0 11 -1q32 -5 54 -34l72 -100q16 -23 16 -49q0 -6 -1 -13q-5 -33 -34 -53l-205 -150l234 -487q8 -17 8 -35q0 -13 -5 -27q-11 -32 -42 -47l-113 -53q-18 -9 -35 -9 q-13 0 -27 5q-30 12 -46 43l-209 440l-109 -79v-326q0 -35 -23.5 -58.5t-58.5 -23.5h-123q-35 0 -58 23.5t-23 58.5z" />
<glyph unicode="l" horiz-adv-x="649" d="M139 215v1137q0 35 23.5 58.5t58.5 23.5h123q35 0 58.5 -24t23.5 -58v-1016q0 -20 14.5 -34.5t34.5 -14.5h29q35 0 58.5 -23.5t23.5 -58.5v-123q0 -35 -23.5 -58.5t-58.5 -23.5h-150q-45 0 -84 16.5t-68.5 46t-46 68.5t-16.5 84z" />
<glyph unicode="m" horiz-adv-x="1433" d="M150 82v891q0 35 23.5 58.5t57.5 23.5h779q59 0 111.5 -22.5t91 -61.5t61 -91.5t22.5 -111.5v-686q0 -35 -23.5 -58.5t-58.5 -23.5h-122q-35 0 -58.5 23.5t-23.5 58.5v602q0 35 -23.5 59.5t-64.5 24.5h-56v-686q0 -35 -23.5 -58.5t-58.5 -23.5h-122q-35 0 -58.5 23.5 t-23.5 58.5v686h-144v-686q0 -35 -23.5 -58.5t-58.5 -23.5h-123q-35 0 -58 23.5t-23 58.5z" />
<glyph unicode="n" horiz-adv-x="1146" d="M150 82v891q0 35 23.5 58.5t57.5 23.5h492q59 0 111.5 -22.5t91.5 -61.5t61.5 -91.5t22.5 -111.5v-686q0 -35 -23.5 -58.5t-58.5 -23.5h-123q-35 0 -58.5 23.5t-23.5 58.5v602q0 35 -23.5 59.5t-64.5 24.5h-199v-686q0 -35 -23.5 -58.5t-58.5 -23.5h-123q-35 0 -58 23.5 t-23 58.5z" />
<glyph unicode="o" horiz-adv-x="1105" d="M104 375v307q0 82 29 150.5t79 117.5t119.5 77t151.5 28h140q82 0 151.5 -28t119.5 -78t78.5 -118.5t28.5 -150.5v-307q0 -82 -28.5 -150.5t-79.5 -118t-119.5 -77t-150.5 -27.5h-142q-82 0 -150.5 27.5t-118.5 78t-79 119t-29 150.5zM391 444q0 -74 35 -115.5t109 -41.5 h32q76 0 112 42t36 115v166q0 74 -36 116t-110 42h-32q-74 0 -110 -42t-36 -116v-166z" />
<glyph unicode="p" horiz-adv-x="1095" d="M150 -274v1237q0 41 21.5 66.5t61.5 25.5h463q68 0 122 -23.5t93 -64.5t59.5 -95.5t20.5 -115.5v-541q0 -55 -20.5 -95t-52 -66.5t-69.5 -40t-73 -13.5h-340v-272q0 -43 -25.5 -64.5t-66.5 -21.5h-102q-41 0 -66.5 21.5t-25.5 62.5zM436 287h213q31 0 43.5 17.5 t12.5 45.5v324q0 43 -23 68.5t-68 25.5h-178v-481z" />
<glyph unicode="q" horiz-adv-x="1095" d="M104 215v541q0 61 21.5 115.5t59.5 95.5t92.5 64.5t121.5 23.5h463q41 0 62.5 -25.5t21.5 -66.5v-1237v2q0 -43 -25.5 -64.5t-66.5 -21.5h-100q-43 0 -69 21.5t-26 62.5v274h-340q-35 0 -72.5 13.5t-69.5 40t-52.5 66.5t-20.5 95zM391 350q0 -63 55 -63h213v481h-178 q-45 0 -67.5 -25.5t-22.5 -68.5v-324z" />
<glyph unicode="r" horiz-adv-x="954" d="M150 82v891q0 35 23.5 58.5t57.5 23.5h115q35 0 58.5 -23.5t23.5 -58.5v-39q35 49 94.5 85t134.5 36h201q35 0 58.5 -23.5t23.5 -58.5v-123q0 -35 -23.5 -58.5t-58.5 -23.5h-201q-49 0 -90 -14.5t-69.5 -38t-45 -52t-16.5 -57.5v-524q0 -35 -23.5 -58.5t-58.5 -23.5h-123 q-35 0 -58 23.5t-23 58.5z" />
<glyph unicode="s" horiz-adv-x="983" d="M84 225q-15 39 -15 68q0 48 42 69l104 50q25 12 47 12q12 0 24 -4q32 -10 50 -49q14 -31 26.5 -57.5t45.5 -26.5h204q23 0 31 22.5t-27 40.5l-376 201q-96 51 -124 106.5t-28 108.5q0 66 29.5 119t78 91t110 58.5t124.5 20.5h131q111 0 193 -39t123 -125q23 -42 23 -80 q0 -40 -56 -66l-107 -47q-18 -10 -50 -7t-48 38q-14 29 -40 34t-48 5h-100q-27 0 -28 -15.5t19 -25.5l355 -188q49 -27 76.5 -57.5t41 -60.5t15.5 -58.5t2 -51.5q0 -74 -32 -131t-81 -97t-109.5 -61.5t-117.5 -21.5h-168q-121 0 -210 64.5t-130 160.5z" />
<glyph unicode="t" horiz-adv-x="870" d="M61 850v123q0 35 24 58.5t58 23.5h62v297q0 35 23.5 58.5t58.5 23.5h123q35 0 58.5 -24t23.5 -58v-297h204q35 0 58.5 -23.5t23.5 -58.5v-123q0 -35 -23.5 -58.5t-58.5 -23.5h-204v-387q0 -43 22.5 -68.5t67.5 -25.5h114q35 0 58.5 -23.5t23.5 -58.5v-123 q0 -35 -23.5 -58.5t-58.5 -23.5h-196q-68 0 -122 23.5t-92 64.5t-59.5 95.5t-21.5 115.5v469h-62q-35 0 -58.5 23.5t-23.5 58.5z" />
<glyph unicode="u" horiz-adv-x="1146" d="M137 287v686q0 35 23.5 58.5t58.5 23.5h123q35 0 58.5 -23.5t23.5 -58.5v-602q0 -35 23.5 -59.5t64.5 -24.5h199v686q0 35 23.5 58.5t58.5 23.5h122q35 0 58.5 -23.5t23.5 -58.5v-891q0 -35 -23.5 -58.5t-58.5 -23.5h-491q-59 0 -111.5 22.5t-91.5 61.5t-61.5 91 t-22.5 112z" />
<glyph unicode="v" horiz-adv-x="888" d="M18 924q-2 8 -2 16q0 10 2 20q4 18 17.5 31t38.5 21l112 37q15 5 29 5q17 0 34 -8q30 -14 40 -49l147 -544l8 -91l11 91l147 544q8 35 39 49q18 9 37 9q13 0 27 -4l116 -37q33 -10 47 -41q8 -18 9 -36q0 -14 -5 -28l-276 -852q-10 -35 -39 -45t-63 -10h-95 q-35 0 -63.5 10.5t-38.5 44.5l-272 834q-3 15 -7 33z" />
<glyph unicode="w" horiz-adv-x="1189" d="M25 920q-3 13 -3 25q0 23 10 43q15 30 56 40l119 25q7 2 15 2q18 -1 40 -11q30 -14 41 -53l100 -467l5 -47l10 64l86 188q14 33 32.5 63.5t61.5 30.5q41 0 60.5 -31.5t35.5 -64.5l86 -186l11 -66l2 47l100 469q10 39 43 53q23 10 42 11q8 0 15 -2l107 -23q42 -10 62 -38 q15 -20 14 -44q0 -10 -2 -20l-189 -865q-4 -27 -28.5 -45t-65.5 -18h-92q-29 0 -44.5 16.5t-31.5 63.5l-119 321l-4 39l-6 -39l-119 -325q-12 -35 -27.5 -55.5t-48.5 -20.5h-94q-41 0 -64.5 18.5t-29.5 42.5z" />
<glyph unicode="x" horiz-adv-x="923" d="M32 132q-2 9 -2 17q0 24 15 46l215 333l-215 332q-15 21 -15 45q0 7 2 17q7 34 36 53l104 67q21 13 45 13q9 1 17 -1q32 -6 51 -36l182 -299l184 299q16 29 50 36q9 2 18 2q24 0 45 -14l102 -67q29 -18 36 -51q2 -9 2 -18q0 -23 -13 -44l-217 -334l217 -333 q13 -21 13 -44q0 -9 -2 -19q-7 -34 -36 -52l-102 -66q-21 -15 -45 -15q-7 0 -17 2q-34 7 -51 36l-184 299l-182 -299q-18 -29 -51 -36q-9 -2 -18 -2q-23 0 -44 13l-104 68q-29 18 -36 52z" />
<glyph unicode="y" horiz-adv-x="940" d="M29 948q12 31 43 45l110 54q18 9 36 9q13 0 26 -4q32 -12 47 -44l209 -471l12 -62l8 64l131 458q10 33 39 49q18 9 37 9q12 0 25 -4l118 -35q33 -10 48 -40q10 -18 10 -38q0 -12 -4 -25l-314 -1019q-23 -72 -67.5 -125.5t-106 -86t-132.5 -40.5q-19 -3 -38 -3 q-52 0 -102 17l-78 25q-33 10 -50 39q-9 17 -9 36q0 13 4 27l37 117q10 33 40 49q18 10 37 10q12 0 25 -4l63 -21q17 -5 32 -5q17 0 31 5q28 11 46 66l45 139l-354 746q-9 18 -9 36q0 13 5 27z" />
<glyph unicode="z" horiz-adv-x="1028" d="M76 78v125q0 20 6 34.5t20 30.5l447 500h-389q-41 0 -62.5 25.5t-21.5 66.5v101q0 43 21.5 68.5t62.5 25.5h690q37 0 62.5 -21.5t25.5 -56.5v-105q0 -33 -18 -53l-467 -532h399q41 0 62.5 -25.5t21.5 -68.5v-101q0 -41 -21.5 -66.5t-62.5 -25.5h-694q-35 0 -58.5 24.5 t-23.5 53.5z" />
<glyph unicode="{" horiz-adv-x="661" d="M72 502q0 18 10 37.5t33 29.5q37 16 61.5 60.5t24.5 87.5v192q0 59 12 105.5t34.5 85.5t55.5 75.5t74 77.5q51 51 98 45t80 -45l39 -43q27 -29 13.5 -62.5t-40.5 -60.5l-34.5 -34.5t-39 -43t-30.5 -46t-12 -45.5v-220q0 -29 -6.5 -60.5t-19.5 -59t-35.5 -49t-53.5 -27.5 q31 -8 53.5 -28.5t35.5 -49.5t19.5 -60.5t6.5 -60.5v-219q0 -23 12 -46.5t30.5 -46t39 -43l34.5 -34.5q27 -25 40.5 -58.5t-13.5 -64.5l-39 -43q-33 -37 -80 -44t-98 46q-41 41 -74 78t-55.5 76t-34.5 84t-12 106v191q0 45 -24.5 89t-61.5 60q-23 10 -33 28.5t-10 39.5z" />
<glyph unicode="|" horiz-adv-x="565" d="M158 -190v1382q0 47 33.5 72.5t80.5 25.5h21q47 0 81 -25.5t34 -72.5v-1382q0 -47 -34 -72t-81 -25h-21q-47 0 -80.5 24.5t-33.5 72.5z" />
<glyph unicode="}" horiz-adv-x="661" d="M64 1148q-13 34 14 62l39 43q33 39 80 45.5t98 -45.5q41 -41 73.5 -77.5t55 -75.5t35 -85t12.5 -106v-192q0 -43 23.5 -87t62.5 -61q23 -10 33 -29.5t10 -37.5q0 -20 -10 -39t-33 -29q-39 -16 -62.5 -60t-23.5 -89v-191q0 -61 -12.5 -106t-35 -84t-55 -76t-73.5 -78 q-51 -53 -98 -46t-80 44l-39 43q-27 31 -13.5 64.5t39.5 58.5q14 14 35 34.5t39.5 43t30.5 46t12 46.5v219q0 29 6 60.5t19.5 60.5t36 49.5t53.5 28.5q-31 6 -53.5 27.5t-36 49t-19.5 59.5t-6 60v220q0 23 -12 46t-30.5 45.5t-39 43t-35.5 34.5q-27 27 -40 61z" />
<glyph unicode="~" horiz-adv-x="1003" d="M83.5 531q-7.5 36 18.5 59q4 4 23.5 21.5t51.5 37t75 34.5t92 15q59 0 102 -16t82 -33q35 -16 68 -31.5t74 -15.5q31 0 53 10.5t31 16.5q25 18 45 19t39.5 -8t36 -25.5l32.5 -32.5q33 -35 27 -68t-31 -55q-6 -8 -20.5 -19.5t-30.5 -22.5t-33.5 -20.5t-25.5 -13.5 q-25 -10 -53.5 -16.5t-67.5 -6.5q-57 0 -100.5 16.5t-79.5 33.5q-35 16 -68 31.5t-72 15.5q-29 0 -49 -9.5t-38.5 -19.5t-36 -15t-38.5 1q-23 6 -44 27.5t-37 35.5q-18 18 -25.5 54z" />
<glyph unicode="&#xa1;" horiz-adv-x="722" d="M233 987v33q0 59 44.5 102t105.5 43h16q61 0 106.5 -43t45.5 -102v-33q0 -59 -45 -101t-107 -42h-16q-61 0 -105.5 42t-44.5 101zM252 -154v830q0 47 33.5 82t83.5 35h47q49 0 82.5 -35t33.5 -82v-830q0 -47 -33.5 -80.5t-82.5 -33.5h-47q-49 0 -83 33.5t-34 80.5z" />
<glyph unicode="&#xa2;" horiz-adv-x="1024" d="M96 406v540q0 59 22.5 111.5t61.5 91.5t91.5 61.5t111.5 22.5h137v119q0 35 23.5 58.5t58.5 23.5h60q35 0 58 -24t23 -58v-119h127q43 0 64.5 -25.5t21.5 -66.5v-101q0 -41 -21.5 -67.5t-64.5 -26.5h-127v-481h127q43 0 64.5 -25.5t21.5 -66.5v-101q0 -41 -21.5 -67.5 t-64.5 -26.5h-127v-96q0 -35 -23.5 -58.5t-57.5 -23.5h-60q-35 0 -58.5 23.5t-23.5 58.5v96h-207q-45 0 -84 16.5t-68.5 45t-47 70.5t-17.5 96zM383 510q0 -16 14.5 -30.5t28.5 -14.5h94v481h-49q-41 0 -64.5 -23.5t-23.5 -58.5v-354z" />
<glyph unicode="&#xa3;" horiz-adv-x="1171" d="M82 733v60q0 35 23.5 58t58.5 23h55v164q0 82 31 154t85 126t125.5 85t153.5 31q70 0 126.5 -15.5t102.5 -45.5t86 -71.5t81 -95.5q20 -29 11 -57.5t-28 -44.5l-98 -82q-23 -18 -57.5 -17t-63.5 37q-10 12 -23.5 31t-34 35t-46 27.5t-56.5 11.5q-37 0 -58 -14.5 t-32.5 -39t-14.5 -57t-3 -69.5v-93h178q35 0 58.5 -23.5t23.5 -57.5v-60q0 -35 -23.5 -58.5t-58.5 -23.5h-178v-364h487q43 0 64.5 -25.5t21.5 -68.5v-101q0 -41 -21.5 -66.5t-62.5 -25.5h-673q-43 0 -73 29.5t-30 70.5v551h-55q-35 0 -58.5 23.5t-23.5 58.5z" />
<glyph unicode="&#xa4;" horiz-adv-x="1433" d="M137 -121v367h94v55h-51v844h1073v-844h-53v-55h96v-367h-1159zM193 -66h1048v254h-1048v-254zM236 358h962v732h-962v-732zM289 246h854v55h-854v-55zM305 727q0 43 3 94t7 99q6 53 13 106h780q4 -53 10 -106q4 -47 7 -98.5t3 -94.5q0 -45 -3 -96t-7 -99 q-6 -53 -10 -106h-780q-6 53 -13 106q-4 47 -7 98.5t-3 96.5zM362 727q0 -37 2.5 -76t5.5 -74.5t5 -61.5t4 -34h676q2 8 4 34t5 61.5t5 74.5t2 76t-2 76t-5 73.5t-5 60.5t-4 34h-676q-2 -8 -4 -34t-5 -60.5t-5.5 -73.5t-2.5 -76zM891 55v54h252v-54h-252z" />
<glyph unicode="&#xa5;" horiz-adv-x="1136" d="M22 1294.5q5 32.5 33 53.5l101 69q29 20 62.5 15t51.5 -33l303 -451l301 451q20 29 53.5 34t61.5 -14l101 -71q29 -20 34.5 -53t-14.5 -62l-203 -289h66q35 0 58.5 -23.5t23.5 -58.5v-59q0 -35 -23.5 -58.5t-58.5 -23.5h-223l-33 -49v-43h256q35 0 58.5 -23.5t23.5 -58.5 v-62q0 -35 -23.5 -58.5t-58.5 -23.5h-256v-321q0 -35 -23.5 -58.5t-58.5 -23.5h-123q-35 0 -58.5 23.5t-23.5 58.5v321h-256q-35 0 -58.5 24t-23.5 58v62q0 35 23.5 58.5t58.5 23.5h256v43l-35 49h-221q-35 0 -58.5 23.5t-23.5 58.5v59q0 35 23.5 58.5t58.5 23.5h64 l-203 289q-18 29 -13 61.5z" />
<glyph unicode="&#xa6;" horiz-adv-x="1433" d="M90 842q25 43 48.5 87t52 84t62.5 75.5t79 60.5l291 -365q-31 -41 -63 -73.5t-68 -55.5q66 -111 162 -211t204 -172q23 37 56.5 69t78.5 60l350 -301q-35 -49 -87 -92t-103 -76q-59 -37 -125 -67q-166 68 -318.5 149.5t-281.5 216.5q-127 131 -204 286t-134 325zM190 834 q29 -78 61 -153t70.5 -146.5t87 -138t109.5 -128.5q111 -104 239 -174.5t269 -126.5q51 27 99.5 55.5t88.5 65.5l-229 193q-33 -29 -53.5 -63t-38.5 -75q-137 80 -233.5 169t-159 169t-94 139.5t-39.5 79.5q92 37 137 86l-191 236q-39 -41 -66.5 -90t-56.5 -98z" />
<glyph unicode="&#xa7;" horiz-adv-x="1224" d="M178 600q0 68 29 136.5t78 117.5q-47 53 -65.5 119.5t-18.5 126.5q0 80 33.5 141.5t90 104.5t130 65.5t155.5 22.5q61 0 112.5 -13.5t94.5 -39t82 -62.5t78 -84q33 -37 32 -68.5t-24 -50.5l-102 -86q-39 -33 -73 -15.5t-60 50.5q-35 43 -72 69.5t-78 26.5 q-66 0 -92.5 -22.5t-26.5 -55.5q0 -49 20.5 -72.5t92.5 -43.5l180 -54q37 -10 84 -36.5t89 -69.5t71 -102.5t29 -135.5q0 -72 -29 -146.5t-84 -121.5q43 -55 66.5 -125t23.5 -133q0 -74 -33 -142.5t-88 -122.5t-130 -86t-161 -32q-55 0 -102 12.5t-90 38t-85 64.5t-87 94 q-25 29 -27 60.5t25 54.5l106 92q27 23 60.5 12.5t56.5 -39.5q10 -14 26.5 -33.5t35 -38t39 -31t40.5 -12.5q55 0 93 35t38 72q0 63 -18 96t-74 49l-207 62q-66 18 -114.5 55t-81.5 84t-50.5 102.5t-17.5 110.5zM459 592q0 -29 16.5 -50.5t48.5 -31.5l115 -35q27 -8 50.5 -3 t41 19.5t26.5 35t9 40.5q0 27 -16.5 49.5t-51.5 32.5l-112 35q-29 8 -51.5 3t-40 -19.5t-26.5 -35t-9 -40.5z" />
<glyph unicode="&#xa8;" horiz-adv-x="868" d="M147 1321v12q0 41 30 71t73 30h12q41 0 70.5 -30t29.5 -71v-12q0 -41 -29.5 -71.5t-70.5 -30.5h-12q-43 0 -73 30.5t-30 71.5zM506 1321v12q0 41 29.5 71t72.5 30h13q41 0 70.5 -30t29.5 -71v-12q0 -41 -29.5 -71.5t-70.5 -30.5h-13q-43 0 -72.5 30.5t-29.5 71.5z" />
<glyph unicode="&#xa9;" horiz-adv-x="1755" d="M143 717q0 152 57.5 286t158 233t234.5 157.5t286 58.5t285.5 -58.5t233 -157.5t157 -233t57.5 -286t-57.5 -286t-157 -234.5t-233.5 -157.5t-285 -57q-152 0 -286 57t-234.5 157.5t-158 234.5t-57.5 286zM344 717q0 -111 42 -208t114.5 -170t170 -115t208.5 -42t208 42 t169.5 115t114.5 170t42 208t-42 208t-114.5 169.5t-170 114.5t-207.5 42q-111 0 -208.5 -42t-170 -114.5t-114.5 -170t-42 -207.5zM543 500v393q0 51 21.5 98t59.5 81t88 54.5t107 20.5h234q35 0 61.5 -23.5t26.5 -58.5v-8q0 -35 -27 -58.5t-61 -23.5h-234 q-39 0 -65.5 -23.5t-26.5 -58.5v-393q0 -16 13.5 -28.5t31.5 -12.5h281q35 0 61.5 -23.5t26.5 -58.5v-8q0 -35 -27 -58.5t-61 -23.5h-281q-47 0 -89 16t-72.5 45t-49 68t-18.5 84z" />
<glyph unicode="&#xaa;" horiz-adv-x="856" d="M76 340v39q0 41 29.5 70.5t72.5 29.5h465q53 0 81 -33.5t28 -66.5v-39q0 -43 -30 -72.5t-73 -29.5h-471q-43 0 -72.5 29.5t-29.5 72.5zM76 774v146q0 43 16.5 79.5t44 64.5t64.5 44t78 16h231v45q0 25 -27 25h-252q-41 0 -70.5 28.5t-29.5 71.5v39q0 41 29.5 71t70.5 30 h265q53 0 99 -20.5t81 -55.5t55.5 -81t20.5 -99v-496q0 -41 -17.5 -72.5t-52.5 -31.5h-403q-55 0 -94.5 18t-64 47t-34.5 63.5t-10 67.5zM317 823q0 -10 11 -10h182v70h-182q-10 0 -11 -9v-51z" />
<glyph unicode="&#xab;" horiz-adv-x="1271" d="M72 561q0 47 34 82l322 322q35 35 80 34q43 0 78 -30q6 -4 12 -10.5t12 -10.5q39 -43 39 -86q0 -23 -8 -44t-27 -40l-217 -217l217 -217q35 -35 35 -80q0 -23 -8 -45t-27 -39l-28 -24q-37 -31 -78 -31q-45 0 -80 35l-322 321q-35 35 -34 80zM545 561q0 47 35 82l321 322 q35 35 82 34q43 0 78 -30q6 -4 12 -10.5t10 -10.5q39 -39 39 -86q0 -23 -8 -44t-27 -40l-217 -217l217 -217q35 -35 35 -80q0 -51 -35 -84l-26 -24q-16 -16 -36.5 -23.5t-41.5 -7.5q-47 0 -82 35l-321 321q-35 35 -35 80z" />
<glyph unicode="&#xac;" horiz-adv-x="1138" d="M90 567v33q0 47 35 82t82 35h725q47 0 82 -35t35 -82v-324q0 -47 -35 -80.5t-82 -33.5h-31q-47 0 -82 33.5t-35 80.5v175h-577q-47 0 -82 34.5t-35 81.5z" />
<glyph unicode="&#xad;" horiz-adv-x="874" d="M61 489v23q0 47 25 81t72 34h559q47 0 71.5 -34t24.5 -81v-23q0 -47 -24.5 -80.5t-71.5 -33.5h-559q-47 0 -72 33.5t-25 80.5z" />
<glyph unicode="&#xae;" horiz-adv-x="1755" d="M143 717q0 152 57.5 286t158 233t234.5 157.5t286 58.5t285.5 -58.5t233 -157.5t157 -233t57.5 -286t-57.5 -286t-157 -234.5t-233.5 -157.5t-285 -57q-152 0 -286 57t-234.5 157.5t-158 234.5t-57.5 286zM344 717q0 -111 42 -208t114.5 -170t170 -115t208.5 -42t208 42 t169.5 115t114.5 170t42 208t-42 208t-114.5 169.5t-170 114.5t-207.5 42q-111 0 -208.5 -42t-170 -114.5t-114.5 -170t-42 -207.5zM575 369v696q0 35 27 58.5t62 23.5h280q57 0 107.5 -19.5t87.5 -54.5t58.5 -81t21.5 -99v-12q0 -84 -49.5 -147.5t-127.5 -92.5l160 -219 q25 -35 13.5 -62.5t-37.5 -46.5q-29 -23 -65 -24.5t-60 33.5l-222 303h-71v-256q0 -35 -25.5 -58.5t-62.5 -23.5h-8q-35 0 -62 23.5t-27 58.5zM760 797h184q39 0 64.5 24.5t25.5 59.5v12q0 35 -25.5 58.5t-64.5 23.5h-184v-178z" />
<glyph unicode="&#xaf;" horiz-adv-x="1101" d="M170 1300q0 41 29.5 71t70.5 30h561q41 0 71 -31t30 -72t-30 -70.5t-71 -29.5h-561q-41 0 -70.5 31t-29.5 71z" />
<glyph unicode="&#xb0;" horiz-adv-x="733" d="M102 803q0 55 20.5 103t56.5 85t84 57.5t104 20.5q55 0 103 -20.5t84 -57.5t56.5 -85t20.5 -103t-20.5 -103.5t-56.5 -84t-84 -56t-103 -20.5t-103.5 20.5t-84.5 56t-56.5 84t-20.5 103.5zM250 803q0 -49 33.5 -83t83.5 -34q47 0 80.5 34t33.5 83t-33.5 83t-82.5 34 q-47 0 -81 -34t-34 -83z" />
<glyph unicode="&#xb1;" horiz-adv-x="1079" d="M127 117v30q0 47 35 82t82 35h231q-31 12 -49 41t-18 66v161h-164q-47 0 -82 35t-35 82v33q0 47 35 82t82 35h164v162q0 47 33.5 81.5t80.5 34.5h35q47 0 81 -34.5t34 -81.5v-162h164q47 0 80.5 -35t33.5 -82v-33q0 -47 -33.5 -82t-80.5 -35h-164v-161q0 -37 -19.5 -66 t-50.5 -41h234q47 0 80.5 -34.5t33.5 -82.5v-30q0 -51 -33.5 -84t-80.5 -33h-592q-47 0 -82 33t-35 84z" />
<glyph unicode="&#xb2;" horiz-adv-x="505" d="M80 912.5q-8 13.5 6 31.5q29 37 66.5 67.5t101.5 30.5q84 0 127 -42t43 -101q0 -63 -47 -113l-94 -104h110q43 0 43 -37v-65q0 -37 -43 -37h-266q-45 0 -45 37v59q0 10 5 17.5t11 15.5q18 20 46 51t53.5 58.5t44.5 46.5l18 20q14 12 16.5 21.5t2.5 17.5q-2 16 -13.5 21 t-23.5 5q-18 0 -28.5 -8t-25.5 -26q-12 -16 -25 -23.5t-30 4.5l-33 29q-12 10 -20 23.5z" />
<glyph unicode="&#xb3;" horiz-adv-x="489" d="M72 663q4 13 20 27l31 21q16 10 33.5 8t29.5 -25q20 -29 52 -28q12 0 24 12t12 29q0 20 -7 25t-17 5h-19q-23 0 -37 7.5t-14 29.5v43q0 23 15.5 30t35.5 7h13q6 0 12 7t6 24q0 8 -5 16t-15 8q-14 0 -21.5 -2t-21.5 -16q-16 -16 -29.5 -23.5t-36.5 9.5l-20 16 q-14 14 -20.5 27.5t3.5 29.5q16 29 55 58.5t99 29.5q59 0 107.5 -40t48.5 -111q0 -23 -10.5 -44.5t-24.5 -33.5q25 -16 36 -45.5t11 -56.5q0 -43 -15.5 -75t-39 -54.5t-53 -34t-60.5 -11.5q-57 0 -98 20.5t-68 68.5q-16 29 -12 42z" />
<glyph unicode="&#xb4;" horiz-adv-x="1050" d="M409.5 1292.5q0.5 40.5 28.5 69.5l183 182q29 29 70.5 28t70.5 -30t29 -70.5t-29 -70.5l-180 -180q-29 -29 -72 -28t-72 30t-28.5 69.5z" />
<glyph unicode="&#xb5;" horiz-adv-x="1081" d="M125 -223v1163q0 47 35 82t82 35h49q47 0 82 -35t35 -82v-528q0 -53 37.5 -92t93.5 -39q53 0 91 38.5t38 92.5v528q0 47 34.5 82t81.5 35h50q47 0 80.5 -35t33.5 -82v-901q0 -47 -33.5 -82t-80.5 -35h-50q-45 0 -78.5 31t-37.5 74q-57 -27 -129 -27q-41 0 -73 8t-58 21 v-252q0 -47 -35 -82t-82 -35h-49q-47 0 -82 35t-35 82z" />
<glyph unicode="&#xb6;" horiz-adv-x="1337" d="M86 1055q0 82 28.5 150.5t82 119.5t126 80t162.5 29h559q35 0 58.5 -24t23.5 -58v-1557q0 -35 -23.5 -58.5t-58.5 -23.5h-86q-35 0 -58 23.5t-23 58.5v1362h-109v-1362q0 -35 -23.5 -58.5t-58.5 -23.5h-86q-35 0 -58.5 23.5t-23.5 58.5v881h-33q-90 0 -162.5 28.5 t-126 79t-82 120t-28.5 151.5z" />
<glyph unicode="&#xb7;" horiz-adv-x="520" d="M106 666v12q0 61 43.5 104t104.5 43h12q61 0 104.5 -43t43.5 -104v-12q0 -59 -43 -102.5t-105 -43.5h-12q-61 0 -104.5 43t-43.5 103z" />
<glyph unicode="&#xb8;" horiz-adv-x="1032" d="M321.5 -273q0.5 42 28.5 70l182 180q29 29 71 28t71 -30q31 -29 29.5 -70.5t-29.5 -70.5l-180 -180q-29 -29 -72 -28t-72 30t-28.5 71z" />
<glyph unicode="&#xb9;" horiz-adv-x="481" d="M131 907q-20 23 6 43l103 76q6 4 10 6t8 2h51q31 0 31 -28v-431q0 -29 -31 -28h-55q-33 0 -33 28v316l-14 -12q-8 -6 -19.5 -13.5t-21.5 2.5z" />
<glyph unicode="&#xba;" horiz-adv-x="884" d="M92 338v39q0 41 30 70.5t71 29.5h499q41 0 71 -29.5t30 -70.5v-39q0 -43 -30 -72.5t-71 -29.5h-499q-41 0 -71 29.5t-30 72.5zM92 895v217q0 70 24.5 129t68.5 102t103.5 67t129.5 24h51q70 0 129 -24t102 -67t68 -102t25 -129v-217q0 -72 -26 -131t-70 -102.5t-103 -67 t-129 -23.5h-51q-72 0 -130.5 23.5t-101.5 67t-66.5 102.5t-23.5 131zM332 895q0 -39 22.5 -60.5t61.5 -21.5h51q41 0 63.5 21.5t22.5 60.5v217q0 39 -22.5 60.5t-61.5 21.5h-51q-41 0 -63.5 -21.5t-22.5 -60.5v-217z" />
<glyph unicode="&#xbb;" horiz-adv-x="1271" d="M150 264q0 45 34 80l217 217l-217 217q-18 18 -26 40t-8 44q0 47 34 82l21 21q16 16 38.5 25t45.5 9q45 0 80 -34l323 -322q35 -35 35 -82q0 -45 -35 -80l-323 -321q-39 -35 -80 -35q-23 0 -44.5 8t-39.5 27l-21 20q-35 35 -34 84zM623 264q0 45 34 80l217 217l-217 217 q-18 18 -26 40t-8 44q0 43 34 82l23 21q41 35 84 34q45 0 80 -34l321 -322q35 -35 35 -82q0 -45 -35 -80l-321 -321q-35 -35 -80 -35q-51 0 -84 35l-23 20q-18 16 -26 39t-8 45z" />
<glyph unicode="&#xbc;" horiz-adv-x="1116" d="M97 926.5q1 17.5 18 29.5l102 76q8 6 14.5 7t12.5 1h51q45 0 45 -39v-423q0 -41 -45 -41h-55q-49 0 -50 41v278q-10 -8 -22 -10t-27 12l-35 37q-10 14 -9 31.5zM271.5 53.5q11.5 -30.5 39.5 -45.5l13 -6q35 -16 68.5 -5t47.5 46l351 866q14 35 1.5 65t-44.5 46l-9 4 q-35 16 -68.5 5t-47.5 -46l-351 -866q-12 -33 -0.5 -63.5zM647 145v62q0 10 4 18l133 254q20 37 56 23l65 -23q14 -4 19.5 -23.5t-4.5 -35.5l-101 -174h64v26q0 16 13 26.5t30 10.5h61q16 0 29.5 -10t13.5 -27v-26h6q16 0 28.5 -11.5t12.5 -27.5v-62q0 -16 -12 -27.5 t-29 -11.5h-6v-65q0 -16 -13 -28.5t-30 -12.5h-61q-16 0 -29.5 12.5t-13.5 28.5v65h-193q-20 0 -31.5 11.5t-11.5 27.5z" />
<glyph unicode="&#xbd;" horiz-adv-x="1153" d="M97 926.5q1 17.5 18 29.5l102 76q8 6 14.5 7t12.5 1h51q45 0 45 -39v-423q0 -41 -45 -41h-55q-49 0 -50 41v278q-10 -8 -22 -10t-27 12l-35 37q-10 14 -9 31.5zM271.5 53.5q11.5 -30.5 39.5 -45.5l13 -6q35 -16 68.5 -5t47.5 46l351 866q14 35 1.5 65t-44.5 46l-9 4 q-35 16 -68.5 5t-47.5 -46l-351 -866q-12 -33 -0.5 -63.5zM710.5 369.5q-8.5 13.5 6.5 31.5q29 37 66.5 68t101.5 31q84 0 127 -42t43 -102q0 -63 -47 -112l-95 -105h111q43 0 43 -37v-65q0 -37 -43 -37h-266q-45 0 -45 37v59q0 10 5 17.5t11 15.5q18 20 46 51t53.5 58.5 t43.5 47.5l19 19q14 12 16 21.5t2 17.5q-2 16 -13 21.5t-24 5.5q-18 0 -28 -8.5t-25 -26.5q-12 -16 -25.5 -23.5t-29.5 4.5l-33 29q-12 10 -20.5 23.5z" />
<glyph unicode="&#xbe;" horiz-adv-x="1116" d="M62 663q4 13 20 27l31 21q16 10 33.5 8t29.5 -25q20 -29 51 -28q12 0 24.5 12t12.5 29q0 20 -13 27t-24 7h-6q-23 0 -32 7.5t-9 29.5v35q0 23 10.5 30t30.5 7h12q6 0 12.5 9t6.5 26q0 8 -5 16t-16 8q-14 0 -21 -2t-22 -16q-16 -16 -29.5 -23.5t-35.5 9.5l-21 16 q-14 14 -20 27.5t4 29.5q16 29 55 58.5t99 29.5q59 0 107 -40t48 -111q0 -23 -10 -44.5t-25 -33.5q25 -16 36.5 -45.5t11.5 -56.5q0 -43 -15.5 -75t-39 -54.5t-53.5 -34t-60 -11.5q-57 0 -98.5 20.5t-67.5 68.5q-16 29 -12 42zM273 53q-11 31 1 64l351 866q14 35 48 46 t68 -5l9 -4q33 -16 45 -46t-2 -65l-351 -866q-14 -35 -48 -46t-68 5l-13 6q-29 14 -40 45zM649 145v62q0 10 4 18l133 256v-2q8 16 23.5 22.5t32.5 0.5l65 -23q14 -6 18.5 -23.5t-3.5 -35.5l-101 -174h64v26q0 16 13 26.5t30 10.5h61q16 0 29.5 -10t13.5 -27v-26h6 q16 0 28.5 -11.5t12.5 -27.5v-62q0 -16 -12 -27.5t-29 -11.5h-6v-65q0 -16 -13 -28.5t-30 -12.5h-61q-16 0 -29.5 12.5t-13.5 28.5v65h-193q-20 0 -31.5 11.5t-11.5 27.5z" />
<glyph unicode="&#xbf;" horiz-adv-x="1021" d="M74 113q0 92 38 163.5t97 118.5q2 4 18 15l-2 -2q18 10 49 29.5t62 43t53.5 48t22.5 42.5v97q0 55 33.5 90t91.5 35h28q57 0 92 -35t35 -90v-97q0 -63 -19.5 -111t-50 -85t-69.5 -65.5t-76 -55.5q-47 -35 -85 -67.5t-38 -73.5q0 -45 35 -78t94 -33q57 0 92 30.5t35 59.5 v10q0 49 33 85t86 36h41q59 0 88 -38t29 -83v-12q0 -74 -34 -138.5t-90 -113.5t-129 -77.5t-151 -28.5q-90 0 -164.5 30.5t-129 83t-85 121t-30.5 146.5zM393 987v33q0 59 44 102t106 43h16q61 0 105.5 -43t44.5 -102v-33q0 -59 -44 -101t-106 -42h-16q-61 0 -105.5 42 t-44.5 101z" />
<glyph unicode="&#xc0;" horiz-adv-x="991" d="M20 141l371 1178q16 55 49 85t92 30t91 -30t51 -85l370 -1178q10 -33 -5 -62.5t-50 -39.5l-117 -35q-33 -10 -62.5 5.5t-39.5 47.5l-96 316h-283l-96 -316q-10 -33 -40 -49t-62 -6l-119 37q-33 10 -48.5 40t-5.5 62zM319 1768.5q0 41.5 29 70.5t72 30t72 -28l180 -182 q29 -29 29 -69.5t-29 -69.5t-71 -30t-71 28l-182 180q-29 29 -29 70.5zM467 625h129l-55 256l-9 98l-8 -98z" />
<glyph unicode="&#xc1;" horiz-adv-x="991" d="M20 141l371 1178q16 55 49 85t92 30t91 -30t51 -85l370 -1178q10 -33 -5 -62.5t-50 -39.5l-117 -35q-33 -10 -62.5 5.5t-39.5 47.5l-96 316h-283l-96 -316q-10 -33 -40 -49t-62 -6l-119 37q-33 10 -48.5 40t-5.5 62zM409.5 1593.5q0.5 40.5 28.5 69.5l183 182 q29 29 70.5 28t70.5 -30t29 -70.5t-29 -70.5l-180 -180q-29 -29 -72 -28t-72 30t-28.5 69.5zM467 625h129l-55 256l-9 98l-8 -98z" />
<glyph unicode="&#xc2;" horiz-adv-x="991" d="M20 141l371 1178q16 55 49 85t92 30t91 -30t51 -85l370 -1178q10 -33 -5 -62.5t-50 -39.5l-117 -35q-33 -10 -62.5 5.5t-39.5 47.5l-96 316h-283l-96 -316q-10 -33 -40 -49t-62 -6l-119 37q-33 10 -48.5 40t-5.5 62zM223 1561q0 41 29 69l180 182q33 29 72 29t71 -29 l181 -182q29 -29 29 -69.5t-29 -69.5t-72 -32t-72 30l-108 127l-109 -127q-29 -33 -71.5 -30t-71.5 32t-29 70zM467 625h129l-55 256l-9 98l-8 -98z" />
<glyph unicode="&#xc3;" horiz-adv-x="991" d="M20 141l371 1178q16 55 49 85t92 30t91 -30t51 -85l370 -1178q10 -33 -5 -62.5t-50 -39.5l-117 -35q-33 -10 -62.5 5.5t-39.5 47.5l-96 316h-283l-96 -316q-10 -33 -40 -49t-62 -6l-119 37q-33 10 -48.5 40t-5.5 62zM112 1676q5 30 25 46q45 39 89 63.5t108 24.5 q53 0 92 -14t70 -31q29 -14 55.5 -27.5t56.5 -13.5q29 0 51.5 12.5t26.5 16.5q16 16 43 15t47 -21l45 -45q29 -29 16.5 -63.5t-36.5 -55.5q-45 -35 -90 -53.5t-101 -18.5q-41 0 -75.5 13.5t-67.5 29t-63.5 28.5t-63.5 13q-29 0 -42 -6t-34 -22q-25 -18 -46 -13t-42 25 l-49 49q-20 18 -15 48zM467 625h129l-55 256l-9 98l-8 -98z" />
<glyph unicode="&#xc4;" horiz-adv-x="991" d="M20 141l371 1178q16 55 49 85t92 30t91 -30t51 -85l370 -1178q10 -33 -5 -62.5t-50 -39.5l-117 -35q-33 -10 -62.5 5.5t-39.5 47.5l-96 316h-283l-96 -316q-10 -33 -40 -49t-62 -6l-119 37q-33 10 -48.5 40t-5.5 62zM238 1608v12q0 41 29.5 70.5t72.5 29.5h12 q41 0 71 -29.5t30 -70.5v-12q0 -41 -30 -72t-71 -31h-12q-43 0 -72.5 31t-29.5 72zM467 625h129l-55 256l-9 98l-8 -98zM596 1608v12q0 41 29.5 70.5t72.5 29.5h13q41 0 70.5 -29.5t29.5 -70.5v-12q0 -41 -29.5 -72t-70.5 -31h-13q-43 0 -72.5 31t-29.5 72z" />
<glyph unicode="&#xc5;" horiz-adv-x="991" d="M20 141l371 1178q16 55 49 85t92 30t91 -30t51 -85l370 -1178q10 -33 -5 -62.5t-50 -39.5l-117 -35q-33 -10 -62.5 5.5t-39.5 47.5l-96 316h-283l-96 -316q-10 -33 -40 -49t-62 -6l-119 37q-33 10 -48.5 40t-5.5 62zM252 1694q0 49 19.5 93t52 75.5t76.5 51t94 19.5 q49 0 93 -18.5t75.5 -51t51 -76.5t19.5 -93t-19.5 -94.5t-51 -78t-75.5 -52t-93 -19.5t-93.5 19.5t-77 52t-52 78t-19.5 94.5zM381 1694q0 -47 32.5 -80t80.5 -33q47 0 78.5 33t31.5 80t-31.5 78.5t-78.5 31.5t-80 -31.5t-33 -78.5zM467 625h129l-55 256l-9 98l-8 -98z" />
<glyph unicode="&#xc6;" horiz-adv-x="1685" d="M21.5 108q-13.5 48 9.5 89l587 1149q16 29 50 58.5t86 29.5h710q53 0 85 -35t32 -82v-47q0 -49 -31.5 -83t-85.5 -34h-458v-233h391q51 0 83.5 -34t32.5 -81v-49q0 -47 -32.5 -82t-83.5 -35h-391v-358h458q53 0 85 -34t32 -83v-47q0 -47 -31.5 -82t-85.5 -35h-622 q-14 0 -35 6t-39 19.5t-30.5 37t-12.5 58.5v266h-279q-41 -80 -81.5 -157.5t-81.5 -157.5q-23 -41 -68 -60.5t-80 -1.5q-12 6 -26.5 13.5t-28.5 13.5q-45 23 -58.5 71zM588 668h137v268z" />
<glyph unicode="&#xc7;" horiz-adv-x="1056" d="M121 287v788q0 74 27.5 139.5t76.5 114.5t115 77t139 28h488q43 0 64.5 -26t21.5 -67v-102q0 -41 -21.5 -66.5t-64.5 -25.5h-420q-59 0 -99 -40t-40 -99v-639q0 -35 23.5 -58.5t57.5 -23.5h478q43 0 64.5 -25.5t21.5 -68.5v-101q0 -41 -21.5 -66.5t-64.5 -25.5h-559 q-59 0 -111.5 22.5t-91.5 61.5t-61.5 91t-22.5 112zM405.5 -273q0.5 42 28.5 70l182 180q29 29 71 28t71 -30q31 -29 29.5 -70.5t-29.5 -70.5l-180 -180q-29 -29 -72 -28t-72 30t-28.5 71z" />
<glyph unicode="&#xc8;" horiz-adv-x="1138" d="M170 82v1270q0 35 23.5 58.5t58.5 23.5h768q35 0 58.5 -24t23.5 -58v-123q0 -35 -23.5 -58.5t-58.5 -23.5h-563v-256h491q35 0 58.5 -23.5t23.5 -58.5v-123q0 -35 -23.5 -58.5t-58.5 -23.5h-491v-317h563q35 0 58.5 -23.5t23.5 -58.5v-123q0 -35 -23.5 -58.5t-58.5 -23.5 h-768q-35 0 -58.5 23.5t-23.5 58.5zM436 1768.5q0 41.5 29 70.5t72 30t71 -28l180 -182q29 -29 29 -69.5t-29 -69.5t-70.5 -30t-70.5 28l-182 180q-29 29 -29 70.5z" />
<glyph unicode="&#xc9;" horiz-adv-x="1138" d="M170 82v1270q0 35 23.5 58.5t58.5 23.5h768q35 0 58.5 -24t23.5 -58v-123q0 -35 -23.5 -58.5t-58.5 -23.5h-563v-256h491q35 0 58.5 -23.5t23.5 -58.5v-123q0 -35 -23.5 -58.5t-58.5 -23.5h-491v-317h563q35 0 58.5 -23.5t23.5 -58.5v-123q0 -35 -23.5 -58.5t-58.5 -23.5 h-768q-35 0 -58.5 23.5t-23.5 58.5zM485 1593.5q0 40.5 29 69.5l182 182q29 29 71 28t71 -30t28.5 -70.5t-28.5 -70.5l-181 -180q-29 -29 -71.5 -28t-71.5 30t-29 69.5z" />
<glyph unicode="&#xca;" horiz-adv-x="1138" d="M170 82v1270q0 35 23.5 58.5t58.5 23.5h768q35 0 58.5 -24t23.5 -58v-123q0 -35 -23.5 -58.5t-58.5 -23.5h-563v-256h491q35 0 58.5 -23.5t23.5 -58.5v-123q0 -35 -23.5 -58.5t-58.5 -23.5h-491v-317h563q35 0 58.5 -23.5t23.5 -58.5v-123q0 -35 -23.5 -58.5t-58.5 -23.5 h-768q-35 0 -58.5 23.5t-23.5 58.5zM321.5 1561q0.5 41 28.5 69l180 182q33 29 72 29t72 -29l180 -182q29 -29 29 -69.5t-29 -69.5t-72 -32t-71 30l-109 127l-108 -127q-29 -33 -72 -30t-72 32t-28.5 70z" />
<glyph unicode="&#xcb;" horiz-adv-x="1138" d="M170 82v1270q0 35 23.5 58.5t58.5 23.5h768q35 0 58.5 -24t23.5 -58v-123q0 -35 -23.5 -58.5t-58.5 -23.5h-563v-256h491q35 0 58.5 -23.5t23.5 -58.5v-123q0 -35 -23.5 -58.5t-58.5 -23.5h-491v-317h563q35 0 58.5 -23.5t23.5 -58.5v-123q0 -35 -23.5 -58.5t-58.5 -23.5 h-768q-35 0 -58.5 23.5t-23.5 58.5zM334 1608v12q0 41 29.5 70.5t72.5 29.5h13q41 0 70.5 -29.5t29.5 -70.5v-12q0 -41 -30 -72t-70 -31h-13q-43 0 -72.5 31t-29.5 72zM692 1608v12q0 41 30 70.5t73 29.5h12q41 0 70.5 -29.5t29.5 -70.5v-12q0 -41 -29.5 -72t-70.5 -31h-12 q-43 0 -73 31t-30 72z" />
<glyph unicode="&#xcc;" horiz-adv-x="555" d="M65.5 1768.5q0.5 41.5 28.5 70.5q29 29 72 30t72 -28l180 -182q29 -29 29 -69.5t-29 -69.5t-71 -30t-71 28l-182 180q-29 29 -28.5 70.5zM168 82v1270q0 35 23.5 58.5t58.5 23.5h123q35 0 58.5 -24t23.5 -58v-1270q0 -35 -23.5 -58.5t-58.5 -23.5h-123q-35 0 -58.5 23.5 t-23.5 58.5z" />
<glyph unicode="&#xcd;" horiz-adv-x="555" d="M170 82v1270q0 35 23.5 58.5t58.5 23.5h123q35 0 58.5 -24t23.5 -58v-1270q0 -35 -23.5 -58.5t-58.5 -23.5h-123q-35 0 -58.5 23.5t-23.5 58.5zM178 1593.5q0 40.5 29 69.5l182 182q29 29 71 28t70 -30q29 -29 29 -70.5t-29 -70.5l-180 -180q-29 -29 -71.5 -28t-71.5 30 t-29 69.5z" />
<glyph unicode="&#xce;" horiz-adv-x="555" d="M12 1561q0 41 29 69l180 182q33 29 72 29t72 -29l180 -182q29 -29 29 -69.5t-29 -69.5t-72 -32t-72 30l-108 127l-109 -127q-29 -33 -71.5 -30t-71.5 32t-29 70zM168 82v1270q0 35 23.5 58.5t58.5 23.5h123q35 0 58.5 -24t23.5 -58v-1270q0 -35 -23.5 -58.5t-58.5 -23.5 h-123q-35 0 -58.5 23.5t-23.5 58.5z" />
<glyph unicode="&#xcf;" horiz-adv-x="555" d="M6 1608v12q0 41 30 70.5t73 29.5h12q41 0 70.5 -29.5t29.5 -70.5v-12q0 -41 -29.5 -72t-70.5 -31h-12q-43 0 -73 31t-30 72zM170 82v1270q0 35 23.5 58.5t58.5 23.5h123q35 0 58.5 -24t23.5 -58v-1270q0 -35 -23.5 -58.5t-58.5 -23.5h-123q-35 0 -58.5 23.5t-23.5 58.5z M365 1608v12q0 41 29.5 70.5t72.5 29.5h12q41 0 71 -29.5t30 -70.5v-12q0 -41 -30 -72t-71 -31h-12q-43 0 -72.5 31t-29.5 72z" />
<glyph unicode="&#xd0;" horiz-adv-x="1243" d="M31 762q0 35 23.5 59.5t58.5 24.5h77v506q0 35 24 58.5t58 23.5h492q74 0 139.5 -28t114.5 -77t76.5 -114.5t27.5 -139.5v-788q0 -59 -22.5 -111.5t-61.5 -91.5t-91 -61.5t-111 -22.5h-564q-35 0 -58.5 23.5t-23.5 58.5v598h-77q-35 0 -58.5 23.5t-23.5 58.5zM406 215 h419q35 0 58.5 23.5t23.5 58.5v782q0 59 -40 99.5t-99 40.5h-362v-373h276q35 0 58.5 -23.5t23.5 -58.5t-23.5 -59.5t-58.5 -24.5h-276v-465z" />
<glyph unicode="&#xd1;" horiz-adv-x="1271" d="M170 82v1270q0 35 23.5 58.5t58.5 23.5h123q25 0 44 -12.5t30 -32.5l430 -828l6 -26l2 26v791q0 35 23.5 58.5t58.5 23.5h123q35 0 58.5 -24t23.5 -58v-1270q0 -35 -24 -58.5t-58 -23.5h-123q-49 0 -76 51l-430 826l-4 30l-2 -30v-795q0 -35 -23.5 -58.5t-58.5 -23.5 h-123q-35 0 -58.5 23.5t-23.5 58.5zM249 1676q5 30 25 46q45 39 89.5 63.5t107.5 24.5q53 0 92 -14t70 -31q29 -14 55.5 -27.5t56.5 -13.5q29 0 51.5 12.5t26.5 16.5q16 16 43 15t47 -21l45 -45q29 -29 17 -63.5t-37 -55.5q-45 -35 -90 -53.5t-100 -18.5q-41 0 -76 13.5 t-68 29t-63.5 28.5t-63.5 13q-29 0 -42 -6t-34 -22q-25 -18 -46 -13t-42 25l-49 49q-20 18 -15 48z" />
<glyph unicode="&#xd2;" horiz-adv-x="1173" d="M121 358v717q0 74 27.5 139.5t76.5 114.5t115 77t139 28h287q74 0 139.5 -28t114.5 -77t76.5 -114.5t27.5 -139.5v-717q0 -74 -27.5 -139t-76.5 -114.5t-114.5 -77t-139.5 -27.5h-287q-74 0 -139.5 27.5t-114.5 77t-76.5 115t-27.5 138.5zM395 1768.5q0 41.5 29 70.5 t72 30t71 -28l181 -182q29 -29 29 -69.5t-29 -69.5t-71 -30t-71 28l-182 180q-29 29 -29 70.5zM408 426q0 -59 39.5 -99t99.5 -40h151q59 0 99.5 40t40.5 99v582q0 59 -40 99t-100 40h-151q-59 0 -99 -40t-40 -99v-582z" />
<glyph unicode="&#xd3;" horiz-adv-x="1173" d="M121 358v717q0 74 27.5 139.5t76.5 114.5t115 77t139 28h287q74 0 139.5 -28t114.5 -77t76.5 -114.5t27.5 -139.5v-717q0 -74 -27.5 -139t-76.5 -114.5t-114.5 -77t-139.5 -27.5h-287q-74 0 -139.5 27.5t-114.5 77t-76.5 115t-27.5 138.5zM408 426q0 -59 39.5 -99 t99.5 -40h151q59 0 99.5 40t40.5 99v582q0 59 -40 99t-100 40h-151q-59 0 -99 -40t-40 -99v-582zM485 1593.5q0 40.5 29 69.5l182 182q29 29 71 28t71 -30t28.5 -70.5t-28.5 -70.5l-181 -180q-29 -29 -71.5 -28t-71.5 30t-29 69.5z" />
<glyph unicode="&#xd4;" horiz-adv-x="1173" d="M121 358v717q0 74 27.5 139.5t76.5 114.5t115 77t139 28h287q74 0 139.5 -28t114.5 -77t76.5 -114.5t27.5 -139.5v-717q0 -74 -27.5 -139t-76.5 -114.5t-114.5 -77t-139.5 -27.5h-287q-74 0 -139.5 27.5t-114.5 77t-76.5 115t-27.5 138.5zM301 1561q0 41 29 69l180 182 q33 29 72 29t71 -29l181 -182q29 -29 29 -69.5t-29 -69.5t-72 -32t-72 30l-108 127l-109 -127q-29 -33 -72 -30t-71 32q-29 29 -29 70zM408 426q0 -59 39.5 -99t99.5 -40h151q59 0 99.5 40t40.5 99v582q0 59 -40 99t-100 40h-151q-59 0 -99 -40t-40 -99v-582z" />
<glyph unicode="&#xd5;" horiz-adv-x="1173" d="M121 358v717q0 74 27.5 139.5t76.5 114.5t115 77t139 28h287q74 0 139.5 -28t114.5 -77t76.5 -114.5t27.5 -139.5v-717q0 -74 -27.5 -139t-76.5 -114.5t-114.5 -77t-139.5 -27.5h-287q-74 0 -139.5 27.5t-114.5 77t-76.5 115t-27.5 138.5zM208 1676q5 30 25 46 q45 39 89.5 63.5t107.5 24.5q53 0 92 -14t70 -31q29 -14 55.5 -27.5t57.5 -13.5q29 0 51 12.5t26 16.5q16 16 43 15t47 -21l46 -45q29 -29 16.5 -63.5t-37.5 -55.5q-45 -35 -90 -53.5t-100 -18.5q-41 0 -76 13.5t-68 29t-63.5 28.5t-63.5 13q-29 0 -42 -6t-34 -22 q-25 -18 -46 -13t-42 25l-49 49q-20 18 -15 48zM408 426q0 -59 39.5 -99t99.5 -40h151q59 0 99.5 40t40.5 99v582q0 59 -40 99t-100 40h-151q-59 0 -99 -40t-40 -99v-582z" />
<glyph unicode="&#xd6;" horiz-adv-x="1173" d="M121 358v717q0 74 27.5 139.5t76.5 114.5t115 77t139 28h287q74 0 139.5 -28t114.5 -77t76.5 -114.5t27.5 -139.5v-717q0 -74 -27.5 -139t-76.5 -114.5t-114.5 -77t-139.5 -27.5h-287q-74 0 -139.5 27.5t-114.5 77t-76.5 115t-27.5 138.5zM313 1608v12q0 41 30 70.5 t73 29.5h12q41 0 70.5 -29.5t29.5 -70.5v-12q0 -41 -29.5 -72t-70.5 -31h-12q-43 0 -73 31t-30 72zM408 426q0 -59 39.5 -99t99.5 -40h151q59 0 99.5 40t40.5 99v582q0 59 -40 99t-100 40h-151q-59 0 -99 -40t-40 -99v-582zM672 1608v12q0 41 29.5 70.5t72.5 29.5h12 q41 0 71 -29.5t30 -70.5v-12q0 -41 -30 -72t-71 -31h-12q-43 0 -72.5 31t-29.5 72z" />
<glyph unicode="&#xd7;" horiz-adv-x="1036" d="M71.5 184q0.5 47 32.5 80l236 238l-236 235q-33 33 -32.5 80t32.5 82l17 14q35 35 81 35t81 -35l235 -235l236 235q35 35 82 35t79 -35l17 -14q35 -35 35 -82t-35 -80l-236 -235l236 -238q35 -33 35 -80t-35 -82l-17 -14q-33 -35 -80 -35t-81 35l-236 236l-235 -236 q-35 -35 -81 -35t-81 35l-17 14q-33 35 -32.5 82z" />
<glyph unicode="&#xd8;" horiz-adv-x="1189" d="M106 377v680q0 78 30 146.5t81 119.5t121 81t147 30h203q35 0 67.5 -6.5t63.5 -16.5q2 4 6 16q23 45 69 60.5t89 -6.5q43 -23 59.5 -69t-6.5 -89q-4 -12 -14 -31.5t-16 -29.5q27 -45 44 -97.5t17 -107.5v-680q0 -78 -29.5 -146.5t-81 -120t-121 -81t-147.5 -29.5h-203 q-53 0 -96 12q-10 -23 -19.5 -42t-19.5 -40q-23 -43 -68.5 -59t-88.5 6q-43 23 -60.5 69t4.5 89l53 104q-41 49 -62.5 110.5t-21.5 127.5zM389 541q74 152 149.5 305t151.5 307h-209q-41 0 -66.5 -26.5t-25.5 -67.5v-518zM520 281h172q41 0 66.5 26.5t25.5 67.5v436 q-66 -135 -132 -266t-132 -264z" />
<glyph unicode="&#xd9;" horiz-adv-x="1226" d="M147 465v887q0 35 24 58.5t58 23.5h123q35 0 58.5 -24t23.5 -58v-815q0 -51 14.5 -97.5t41 -80t66.5 -53t93 -19.5q51 0 92 19.5t68 53t41 79.5t14 98v815q0 35 23.5 58.5t58.5 23.5h123q35 0 58.5 -24t23.5 -58v-887q0 -96 -42 -181t-111.5 -147.5t-161 -99.5 t-187.5 -37t-187 37t-161 99.5t-112 147.5t-42 181zM395 1768.5q0 41.5 29 70.5t72 30t71 -28l181 -182q29 -29 29 -69.5t-29 -69.5t-71 -30t-71 28l-182 180q-29 29 -29 70.5z" />
<glyph unicode="&#xda;" horiz-adv-x="1226" d="M147 465v887q0 35 24 58.5t58 23.5h123q35 0 58.5 -24t23.5 -58v-815q0 -51 14.5 -97.5t41 -80t66.5 -53t93 -19.5q51 0 92 19.5t68 53t41 79.5t14 98v815q0 35 23.5 58.5t58.5 23.5h123q35 0 58.5 -24t23.5 -58v-887q0 -96 -42 -181t-111.5 -147.5t-161 -99.5 t-187.5 -37t-187 37t-161 99.5t-112 147.5t-42 181zM465 1593.5q0 40.5 29 69.5l182 182q29 29 70.5 28t70.5 -30t29 -70.5t-29 -70.5l-180 -180q-29 -29 -72 -28t-71 30q-29 29 -29 69.5z" />
<glyph unicode="&#xdb;" horiz-adv-x="1226" d="M147 465v887q0 35 24 58.5t58 23.5h123q35 0 58.5 -24t23.5 -58v-815q0 -51 14.5 -97.5t41 -80t66.5 -53t93 -19.5q51 0 92 19.5t68 53t41 79.5t14 98v815q0 35 23.5 58.5t58.5 23.5h123q35 0 58.5 -24t23.5 -58v-887q0 -96 -42 -181t-111.5 -147.5t-161 -99.5 t-187.5 -37t-187 37t-161 99.5t-112 147.5t-42 181zM342 1561q0 41 29 69l180 182q33 29 72 29t71 -29l180 -182q29 -29 29 -69.5t-29 -69.5t-71.5 -32t-71.5 30l-108 127l-109 -127q-29 -33 -72 -30t-71 32q-29 29 -29 70z" />
<glyph unicode="&#xdc;" horiz-adv-x="1226" d="M147 465v887q0 35 24 58.5t58 23.5h123q35 0 58.5 -24t23.5 -58v-815q0 -51 14.5 -97.5t41 -80t66.5 -53t93 -19.5q51 0 92 19.5t68 53t41 79.5t14 98v815q0 35 23.5 58.5t58.5 23.5h123q35 0 58.5 -24t23.5 -58v-887q0 -96 -42 -181t-111.5 -147.5t-161 -99.5 t-187.5 -37t-187 37t-161 99.5t-112 147.5t-42 181zM354 1608v12q0 41 30 70.5t73 29.5h12q41 0 70.5 -29.5t29.5 -70.5v-12q0 -41 -29.5 -72t-70.5 -31h-12q-43 0 -73 31t-30 72zM713 1608v12q0 41 29.5 70.5t72.5 29.5h12q41 0 71 -29.5t30 -70.5v-12q0 -41 -30 -72 t-71 -31h-12q-43 0 -72.5 31t-29.5 72z" />
<glyph unicode="&#xdd;" horiz-adv-x="1116" d="M11.5 1294.5q4.5 32.5 33.5 53.5l100 69q29 20 63 15t52 -33l303 -451l301 451q20 29 53 34t62 -14l100 -71q29 -20 35 -53t-14 -62l-393 -561v-590q0 -35 -24 -58.5t-58 -23.5h-123q-35 0 -58.5 23.5t-23.5 58.5v590l-395 561q-18 29 -13.5 61.5zM407.5 1593.5 q0.5 40.5 28.5 69.5l182 182q29 29 71 28t71 -30t28.5 -70.5t-28.5 -70.5l-180 -180q-29 -29 -72 -28t-72 30t-28.5 69.5z" />
<glyph unicode="&#xde;" horiz-adv-x="1433" d="M90 842q25 43 48.5 87t52 84t62.5 75.5t79 60.5l184 -231l371 368l383 -385q18 -18 18 -47v-338q0 -10 -4 -24.5t-14 -24.5l-164 -164l237 -203q-35 -49 -87 -92t-103 -76q-59 -37 -125 -67q-166 68 -318.5 149.5t-281.5 216.5q-127 131 -204 286t-134 325zM190 834 q29 -78 61 -153t70.5 -146.5t87 -138t109.5 -128.5q111 -104 239 -174.5t269 -126.5q51 27 99.5 55.5t88.5 65.5l-229 193q-33 -29 -53.5 -63t-38.5 -75q-137 80 -233.5 169t-159 169t-94 139.5t-39.5 79.5q92 37 137 86l-191 236q-39 -41 -66.5 -90t-56.5 -98zM492 655 q66 -111 162 -211t204 -172q23 37 56.5 69t78.5 60l41 -36l187 186l-142 141l135 135l-327 330l-312 -313l48 -60q-31 -41 -63 -73.5t-68 -55.5zM657 784l29 31l256 -256l-31 -31zM737 864l29 31l332 -332l-29 -31zM817 944l29 31l217 -217l-29 -29z" />
<glyph unicode="&#xdf;" horiz-adv-x="1271" d="M150 84v1026q0 68 25.5 126t69.5 102t102.5 70t123.5 26h311q68 0 133.5 -24t118.5 -71t86 -117.5t33 -164.5q0 -61 -21.5 -126t-60.5 -108q39 -41 60.5 -96t21.5 -119v-303q0 -66 -22.5 -122t-63.5 -97t-97.5 -63.5t-121.5 -22.5h-184q-41 0 -62.5 25.5t-21.5 66.5v101 q0 43 21.5 68.5t62.5 25.5h112q90 0 90 90v196q0 45 -31.5 76t-74.5 31h-96q-41 0 -62.5 26.5t-21.5 67.5v100q0 41 21.5 67t62.5 26h96q43 0 74.5 22.5t31.5 67.5t-30.5 67.5t-75.5 22.5h-215q-45 0 -77 -31t-32 -78v-954q0 -41 -25.5 -62.5t-66.5 -21.5h-102 q-41 0 -66.5 21.5t-25.5 62.5z" />
<glyph unicode="&#xe0;" d="M72 213v215q0 45 16 85t46 68.5t69 46t84 17.5h358v41q0 35 -23.5 58.5t-64.5 23.5h-332q-35 0 -58.5 23.5t-23.5 58.5v123q0 35 23.5 58.5t58.5 23.5h418q61 0 113.5 -22.5t91.5 -61.5t61.5 -91.5t22.5 -111.5v-676q0 -41 -21.5 -66.5t-64.5 -25.5h-559q-45 0 -84 16.5 t-69 46t-46 68.5t-16 82zM288.5 1390q0.5 42 28.5 70q29 29 72 30t72 -28l180 -182q29 -29 29 -69.5t-29 -69.5t-71 -30t-70 28l-183 180q-29 29 -28.5 71zM358 315q0 -63 56 -63h231v141h-231q-55 0 -56 -63v-15z" />
<glyph unicode="&#xe1;" horiz-adv-x="1069" d="M72 213v215q0 45 16 85t46 68.5t69 46t84 17.5h358v41q0 35 -23.5 58.5t-64.5 23.5h-332q-35 0 -58.5 23.5t-23.5 58.5v123q0 35 23.5 58.5t58.5 23.5h418q61 0 113.5 -22.5t91.5 -61.5t61.5 -91.5t22.5 -111.5v-676q0 -41 -21.5 -66.5t-64.5 -25.5h-559q-45 0 -84 16.5 t-69 46t-46 68.5t-16 82zM325.5 1206.5q0.5 40.5 28.5 69.5l183 182q29 29 70.5 28t70.5 -30t29 -71t-29 -70l-180 -180q-29 -29 -72 -28t-72 30t-28.5 69.5zM358 315q0 -63 56 -63h231v141h-231q-55 0 -56 -63v-15z" />
<glyph unicode="&#xe2;" d="M72 213v215q0 45 16 85t46 68.5t69 46t84 17.5h358v41q0 35 -23.5 58.5t-64.5 23.5h-332q-35 0 -58.5 23.5t-23.5 58.5v123q0 35 23.5 58.5t58.5 23.5h418q61 0 113.5 -22.5t91.5 -61.5t61.5 -91.5t22.5 -111.5v-676q0 -41 -21.5 -66.5t-64.5 -25.5h-559q-45 0 -84 16.5 t-69 46t-46 68.5t-16 82zM207 1194q0 41 29 70l180 182q33 29 71 29q39 0 72 -29l180 -182q29 -29 29 -70t-29 -70t-71.5 -31.5t-71.5 29.5l-109 127l-108 -127q-29 -33 -72 -29.5t-71 31.5q-29 29 -29 70zM358 315q0 -63 56 -63h231v141h-231q-55 0 -56 -63v-15z" />
<glyph unicode="&#xe3;" d="M72 213v215q0 45 16 85t46 68.5t69 46t84 17.5h358v41q0 35 -23.5 58.5t-64.5 23.5h-332q-35 0 -58.5 23.5t-23.5 58.5v123q0 35 23.5 58.5t58.5 23.5h418q61 0 113.5 -22.5t91.5 -61.5t61.5 -91.5t22.5 -111.5v-676q0 -41 -21.5 -66.5t-64.5 -25.5h-559q-45 0 -84 16.5 t-69 46t-46 68.5t-16 82zM114 1262q5 30 25 47q45 39 89 63.5t108 24.5q53 0 92 -14.5t70 -30.5q29 -14 55.5 -27.5t56.5 -13.5q29 0 51.5 12t26.5 16q16 16 43 15.5t47 -21.5l45 -45q29 -29 16.5 -63.5t-36.5 -55.5q-45 -35 -90 -53t-101 -18q-41 0 -75.5 13t-67.5 28.5 t-63.5 29t-63.5 13.5q-29 0 -42 -6.5t-34 -22.5q-25 -18 -46 -13t-42 25l-49 49q-20 18 -15 48zM358 315q0 -63 56 -63h231v141h-231q-55 0 -56 -63v-15z" />
<glyph unicode="&#xe4;" d="M72 213v215q0 45 16 85t46 68.5t69 46t84 17.5h358v41q0 35 -23.5 58.5t-64.5 23.5h-332q-35 0 -58.5 23.5t-23.5 58.5v123q0 35 23.5 58.5t58.5 23.5h418q61 0 113.5 -22.5t91.5 -61.5t61.5 -91.5t22.5 -111.5v-676q0 -41 -21.5 -66.5t-64.5 -25.5h-559q-45 0 -84 16.5 t-69 46t-46 68.5t-16 82zM209 1247v13q0 41 29.5 70.5t72.5 29.5h13q41 0 70.5 -30t29.5 -70v-13q0 -41 -29.5 -71.5t-70.5 -30.5h-13q-43 0 -72.5 30.5t-29.5 71.5zM358 315q0 -63 56 -63h231v141h-231q-55 0 -56 -63v-15zM567 1247v13q0 41 30 70.5t73 29.5h12 q41 0 70.5 -30t29.5 -70v-13q0 -41 -29.5 -71.5t-70.5 -30.5h-12q-43 0 -73 30.5t-30 71.5z" />
<glyph unicode="&#xe5;" d="M72 213v215q0 45 16 85t46 68.5t69 46t84 17.5h358v41q0 35 -23.5 58.5t-64.5 23.5h-332q-35 0 -58.5 23.5t-23.5 58.5v123q0 35 23.5 58.5t58.5 23.5h418q61 0 113.5 -22.5t91.5 -61.5t61.5 -91.5t22.5 -111.5v-676q0 -41 -21.5 -66.5t-64.5 -25.5h-559q-45 0 -84 16.5 t-69 46t-46 68.5t-16 82zM256 1331q0 49 19.5 93t52 76t77 51.5t93.5 19.5t93 -18.5t75.5 -51.5t51 -77t19.5 -93t-19.5 -94t-51 -78t-75.5 -52.5t-93 -19.5t-93.5 19.5t-77 52.5t-52 78t-19.5 94zM358 315q0 -63 56 -63h231v141h-231q-55 0 -56 -63v-15zM385 1331 q0 -47 33 -79.5t80 -32.5t78.5 32.5t31.5 79.5t-31.5 79t-78.5 32t-80 -32t-33 -79z" />
<glyph unicode="&#xe6;" horiz-adv-x="1531" d="M72 240v184q0 51 19.5 95t52 77t76.5 52.5t93 19.5h283v67q0 39 -43 39h-297q-47 0 -82 35t-35 82v49q0 47 35 82t82 35h311q53 0 105.5 -18.5t91.5 -59.5q51 43 107.5 60.5t121.5 17.5h49q86 0 159 -30t125 -82t82 -123.5t30 -157.5v-150q0 -57 -30 -92t-89 -35h-440 v-70q0 -16 11 -26t28 -10h352q55 0 95 -39t40 -97v-12q0 -55 -40 -94t-95 -39h-361q-33 0 -53 6t-37 14q-10 -8 -24.5 -14t-34.5 -6h-447q-51 0 -95 19.5t-76.5 51t-51 75.5t-18.5 94zM352 303q0 -23 15 -22h229v106h-229q-14 0 -15 -20v-64zM796 39q-1 0 3 -2h2q-4 2 -5 2z M879 668h278q-2 51 -32.5 78.5t-82.5 27.5h-49q-53 0 -83.5 -27.5t-30.5 -78.5z" />
<glyph unicode="&#xe7;" horiz-adv-x="868" d="M96 225v543q0 59 22.5 111.5t61.5 91.5t91.5 61.5t111.5 22.5h416q43 0 64.5 -25.5t21.5 -68.5v-101q0 -41 -21.5 -66.5t-64.5 -25.5h-328q-41 0 -64.5 -23.5t-23.5 -58.5v-356q0 -14 14.5 -28.5t28.5 -14.5h373q43 0 64.5 -25.5t21.5 -68.5v-101q0 -41 -21.5 -66.5 t-64.5 -25.5h-486q-90 0 -153.5 60.5t-63.5 164.5zM262 -273q0 42 29 70l182 180q29 29 71 28t70 -30q31 -29 30 -70.5t-30 -70.5l-180 -180q-29 -29 -72 -28t-71 30q-29 29 -29 71z" />
<glyph unicode="&#xe8;" horiz-adv-x="1017" d="M96 287v395q0 82 29 150.5t79 117.5t119.5 77t151.5 28h139q82 0 152 -28t120 -78t78.5 -118.5t28.5 -150.5v-178q0 -41 -22.5 -66.5t-63.5 -25.5h-524v-43q0 -33 23.5 -56.5t58.5 -23.5h391q41 0 70.5 -30t29.5 -73v-84q0 -41 -29.5 -70.5t-70.5 -29.5h-473 q-59 0 -111.5 22.5t-91.5 61.5t-61.5 91t-22.5 112zM329.5 1390q0.5 42 28.5 70q29 29 72 30t72 -28l180 -182q29 -29 29 -69.5t-29 -69.5t-71 -30t-70 28l-183 180q-29 29 -28.5 71zM383 659h322l2 23q0 74 -41 116t-115 42h-12q-74 0 -115 -42t-41 -116v-23z" />
<glyph unicode="&#xe9;" horiz-adv-x="1017" d="M96 287v395q0 82 29 150.5t79 117.5t119.5 77t151.5 28h139q82 0 152 -28t120 -78t78.5 -118.5t28.5 -150.5v-178q0 -41 -22.5 -66.5t-63.5 -25.5h-524v-43q0 -33 23.5 -56.5t58.5 -23.5h391q41 0 70.5 -30t29.5 -73v-84q0 -41 -29.5 -70.5t-70.5 -29.5h-473 q-59 0 -111.5 22.5t-91.5 61.5t-61.5 91t-22.5 112zM383 659h322l2 23q0 74 -41 116t-115 42h-12q-74 0 -115 -42t-41 -116v-23zM387 1206.5q0 40.5 29 69.5l182 182q29 29 71 28t70 -30q29 -29 29 -71t-29 -70l-180 -180q-29 -29 -72 -28t-71 30q-29 29 -29 69.5z" />
<glyph unicode="&#xea;" horiz-adv-x="1017" d="M96 287v395q0 82 29 150.5t79 117.5t119.5 77t151.5 28h139q82 0 152 -28t120 -78t78.5 -118.5t28.5 -150.5v-178q0 -41 -22.5 -66.5t-63.5 -25.5h-524v-43q0 -33 23.5 -56.5t58.5 -23.5h391q41 0 70.5 -30t29.5 -73v-84q0 -41 -29.5 -70.5t-70.5 -29.5h-473 q-59 0 -111.5 22.5t-91.5 61.5t-61.5 91t-22.5 112zM247.5 1194q0.5 41 28.5 70l181 182q33 29 71 29q39 0 72 -29l180 -182q29 -29 29 -70t-29 -70t-71.5 -31.5t-71.5 29.5l-109 127l-108 -127q-29 -33 -72 -29.5t-72 31.5q-29 29 -28.5 70zM383 659h322l2 23q0 74 -41 116 t-115 42h-12q-74 0 -115 -42t-41 -116v-23z" />
<glyph unicode="&#xeb;" horiz-adv-x="1017" d="M96 287v395q0 82 29 150.5t79 117.5t119.5 77t151.5 28h139q82 0 152 -28t120 -78t78.5 -118.5t28.5 -150.5v-178q0 -41 -22.5 -66.5t-63.5 -25.5h-524v-43q0 -33 23.5 -56.5t58.5 -23.5h391q41 0 70.5 -30t29.5 -73v-84q0 -41 -29.5 -70.5t-70.5 -29.5h-473 q-59 0 -111.5 22.5t-91.5 61.5t-61.5 91t-22.5 112zM229 1247v13q0 41 30 70.5t73 29.5h12q41 0 70.5 -30t29.5 -70v-13q0 -41 -29.5 -71.5t-70.5 -30.5h-12q-43 0 -73 30.5t-30 71.5zM383 659h322l2 23q0 74 -41 116t-115 42h-12q-74 0 -115 -42t-41 -116v-23zM588 1247v13 q0 41 29.5 70.5t72.5 29.5h12q41 0 71 -30t30 -70v-13q0 -41 -30 -71.5t-71 -30.5h-12q-43 0 -72.5 30.5t-29.5 71.5z" />
<glyph unicode="&#xec;" horiz-adv-x="538" d="M61 1390q0 42 29 70q29 29 72 30t71 -28l181 -182q29 -29 29 -69.5t-29 -69.5t-71 -30t-71 28l-182 180q-29 29 -29 71zM160 82v891q0 35 23.5 58.5t58.5 23.5h123q35 0 58 -23.5t23 -58.5v-891q0 -35 -23.5 -58.5t-57.5 -23.5h-123q-35 0 -58.5 23.5t-23.5 58.5z" />
<glyph unicode="&#xed;" horiz-adv-x="538" d="M139 1206.5q0 40.5 29 69.5l182 182q29 29 71 28t71 -30t28.5 -71t-28.5 -70l-181 -180q-29 -29 -71.5 -28t-71.5 30t-29 69.5zM160 82v891q0 35 23.5 58.5t58.5 23.5h123q35 0 58 -23.5t23 -58.5v-891q0 -35 -23.5 -58.5t-57.5 -23.5h-123q-35 0 -58.5 23.5t-23.5 58.5z " />
<glyph unicode="&#xee;" horiz-adv-x="538" d="M-6 1194q0 41 29 70l180 182q33 29 71 29q39 0 72 -29l180 -182q29 -29 29 -70t-29 -70t-71.5 -31.5t-71.5 29.5l-109 127l-108 -127q-29 -33 -72 -29.5t-71 31.5q-29 29 -29 70zM160 82v891q0 35 23.5 58.5t58.5 23.5h123q35 0 58 -23.5t23 -58.5v-891 q0 -35 -23.5 -58.5t-57.5 -23.5h-123q-35 0 -58.5 23.5t-23.5 58.5z" />
<glyph unicode="&#xef;" horiz-adv-x="538" d="M4 1247v13q0 41 29.5 70.5t72.5 29.5h13q41 0 70.5 -30t29.5 -70v-13q0 -41 -29.5 -71.5t-70.5 -30.5h-13q-43 0 -72.5 30.5t-29.5 71.5zM162 82v891q0 35 23.5 58.5t58.5 23.5h123q35 0 58.5 -23.5t23.5 -58.5v-891q0 -35 -24 -58.5t-58 -23.5h-123q-35 0 -58.5 23.5 t-23.5 58.5zM362 1247v13q0 41 30 70.5t73 29.5h12q41 0 71 -30t30 -70v-13q0 -41 -30 -71.5t-71 -30.5h-12q-43 0 -73 30.5t-30 71.5z" />
<glyph unicode="&#xf0;" horiz-adv-x="1587" d="M97 747.5q-1 59.5 42 102.5l199 199l-68 69q-8 8 -8 19.5t8 19.5l27 27q18 18 39 0l67 -70l52 51q43 43 102 43t100 -43l785 -782q37 -37 47 -92t-25 -90l-340 -338q-41 -41 -100 -41t-100 41l-785 784q-41 41 -42 100.5zM170 749q0 -28 20 -49l785 -784q20 -20 49 -20 t49 20l316 315q23 23 22.5 50.5t-22.5 48.5l-783 784q-20 20 -49 20.5t-49 -20.5l-318 -317q-20 -20 -20 -48zM248 755.5q0 20.5 14 37.5q16 16 36.5 16t37.5 -16q16 -16 16 -37t-16 -37t-36.5 -16.5t-37.5 16.5q-14 16 -14 36.5zM366.5 651.5q0.5 34.5 24.5 61.5l203 200 q25 25 59.5 25t61.5 -25l133 -133q25 -27 24.5 -61.5t-24.5 -61.5l-201 -200q-25 -25 -60.5 -25t-60.5 25l-135 133q-25 27 -24.5 61.5zM666 317q-14 12 0 27l53 53q12 14 26 0l19 -18q12 -12 0 -27l-55 -53q-12 -12 -27 0zM764 219q-14 12 0 27l53 53q14 12 27 0l18 -18 q10 -14 0 -27l-53 -53q-14 -14 -27 0zM786 438q-14 14 0 27l54 53q12 12 26 0l19 -16q12 -14 0 -27l-54 -53q-14 -14 -26 0zM862 119q-12 14 0 26l56 54q12 14 26 0l17 -17q14 -14 0 -26l-54 -54q-12 -14 -26 0zM885 340q-12 12 0 27l53 53q14 14 27 0l18 -19q14 -12 0 -26 l-53 -53q-14 -10 -27 0zM907 559q-14 14 0 27l54 55q14 12 26 0l19 -18q14 -14 0 -27l-54 -53q-14 -14 -26 0zM963 20q-14 12 0 27l53 53q12 12 26 0l19 -18l2 -4q8 -12 -2 -23l-53 -53q-14 -12 -27 0zM985 240q-14 14 0 26l53 56q12 12 27 0l16 -19q14 -14 0 -27l-53 -53 q-12 -14 -27 0zM1006 461q-10 12 0 26l55 54q12 14 26 0l17 -19q14 -12 0 -26l-53 -54q-12 -12 -27 0zM1083 141q-14 14 0 27l54 53q14 14 26 0l19 -18q12 -12 0 -27l-54 -53q-14 -12 -26 0zM1106 362q-14 12 0 27l53 53q12 10 27 0l18 -18q10 -14 0 -27l-53 -53 q-14 -14 -27 0zM1204 262q-12 14 0 27l53 53q14 14 27 0l19 -16q14 -14 0 -27l-54 -53q-14 -14 -26 0z" />
<glyph unicode="&#xf1;" horiz-adv-x="1075" d="M150 82v891q0 35 23.5 58.5t57.5 23.5h492q59 0 111.5 -22.5t91.5 -61.5t61.5 -91.5t22.5 -111.5v-686q0 -35 -23.5 -58.5t-58.5 -23.5h-123q-35 0 -58.5 23.5t-23.5 58.5v602q0 35 -23.5 59.5t-64.5 24.5h-199v-686q0 -35 -23.5 -58.5t-58.5 -23.5h-123q-35 0 -58 23.5 t-23 58.5zM179.5 1262q4.5 30 25.5 47q45 39 89 63.5t107 24.5q53 0 92 -14.5t70 -30.5q29 -14 55.5 -27.5t57.5 -13.5q29 0 51.5 12t26.5 16q16 16 42.5 15.5t47.5 -21.5l45 -45q29 -29 16.5 -63.5t-37.5 -55.5q-45 -35 -90 -53t-100 -18q-41 0 -76 13t-67.5 28.5t-63.5 29 t-63 13.5q-29 0 -42.5 -6.5t-33.5 -22.5q-25 -18 -46.5 -13t-41.5 25l-49 49q-20 18 -15.5 48z" />
<glyph unicode="&#xf2;" horiz-adv-x="1034" d="M104 375v307q0 82 29 150.5t79 117.5t119.5 77t151.5 28h140q82 0 151.5 -28t119.5 -78t78.5 -118.5t28.5 -150.5v-307q0 -82 -28.5 -150.5t-79.5 -118t-119.5 -77t-150.5 -27.5h-142q-82 0 -150.5 27.5t-118.5 78t-79 119t-29 150.5zM329.5 1390q0.5 42 28.5 70 q29 29 72 30t72 -28l180 -182q29 -29 29 -69.5t-29 -69.5t-71 -30t-70 28l-183 180q-29 29 -28.5 71zM391 444q0 -74 35 -115.5t109 -41.5h32q76 0 112 42t36 115v166q0 74 -36 116t-110 42h-32q-74 0 -110 -42t-36 -116v-166z" />
<glyph unicode="&#xf3;" horiz-adv-x="1034" d="M104 375v307q0 82 29 150.5t79 117.5t119.5 77t151.5 28h140q82 0 151.5 -28t119.5 -78t78.5 -118.5t28.5 -150.5v-307q0 -82 -28.5 -150.5t-79.5 -118t-119.5 -77t-150.5 -27.5h-142q-82 0 -150.5 27.5t-118.5 78t-79 119t-29 150.5zM387 1206.5q0 40.5 29 69.5l182 182 q29 29 71 28t70 -30q29 -29 29 -71t-29 -70l-180 -180q-29 -29 -72 -28t-71 30q-29 29 -29 69.5zM391 444q0 -74 35 -115.5t109 -41.5h32q76 0 112 42t36 115v166q0 74 -36 116t-110 42h-32q-74 0 -110 -42t-36 -116v-166z" />
<glyph unicode="&#xf4;" horiz-adv-x="1034" d="M104 375v307q0 82 29 150.5t79 117.5t119.5 77t151.5 28h140q82 0 151.5 -28t119.5 -78t78.5 -118.5t28.5 -150.5v-307q0 -82 -28.5 -150.5t-79.5 -118t-119.5 -77t-150.5 -27.5h-142q-82 0 -150.5 27.5t-118.5 78t-79 119t-29 150.5zM241.5 1194q0.5 41 28.5 70l181 182 q33 29 71 29q39 0 72 -29l180 -182q29 -29 29 -70t-29 -70t-72 -31.5t-71 29.5l-109 127l-108 -127q-29 -33 -72 -29.5t-72 31.5q-29 29 -28.5 70zM391 444q0 -74 35 -115.5t109 -41.5h32q76 0 112 42t36 115v166q0 74 -36 116t-110 42h-32q-74 0 -110 -42t-36 -116v-166z " />
<glyph unicode="&#xf5;" horiz-adv-x="1034" d="M104 375v307q0 82 29 150.5t79 117.5t119.5 77t151.5 28h140q82 0 151.5 -28t119.5 -78t78.5 -118.5t28.5 -150.5v-307q0 -82 -28.5 -150.5t-79.5 -118t-119.5 -77t-150.5 -27.5h-142q-82 0 -150.5 27.5t-118.5 78t-79 119t-29 150.5zM155 1262q5 30 25 47q45 39 89 63.5 t108 24.5q53 0 92 -14.5t70 -30.5q29 -14 55.5 -27.5t56.5 -13.5q29 0 51.5 12t26.5 16q16 16 43 15.5t47 -21.5l45 -45q29 -29 16.5 -63.5t-36.5 -55.5q-45 -35 -90 -53t-101 -18q-41 0 -75.5 13t-67.5 28.5t-63.5 29t-63.5 13.5q-29 0 -42 -6.5t-34 -22.5q-25 -18 -46 -13 t-42 25l-49 49q-20 18 -15 48zM391 444q0 -74 35 -115.5t109 -41.5h32q76 0 112 42t36 115v166q0 74 -36 116t-110 42h-32q-74 0 -110 -42t-36 -116v-166z" />
<glyph unicode="&#xf6;" horiz-adv-x="1034" d="M104 375v307q0 82 29 150.5t79 117.5t119.5 77t151.5 28h140q82 0 151.5 -28t119.5 -78t78.5 -118.5t28.5 -150.5v-307q0 -82 -28.5 -150.5t-79.5 -118t-119.5 -77t-150.5 -27.5h-142q-82 0 -150.5 27.5t-118.5 78t-79 119t-29 150.5zM250 1247v13q0 41 29.5 70.5 t72.5 29.5h13q41 0 70.5 -30t29.5 -70v-13q0 -41 -29.5 -71.5t-70.5 -30.5h-13q-43 0 -72.5 30.5t-29.5 71.5zM391 444q0 -74 35 -115.5t109 -41.5h32q76 0 112 42t36 115v166q0 74 -36 116t-110 42h-32q-74 0 -110 -42t-36 -116v-166zM608 1247v13q0 41 30 70.5t73 29.5h12 q41 0 70.5 -30t29.5 -70v-13q0 -41 -29.5 -71.5t-70.5 -30.5h-12q-43 0 -73 30.5t-30 71.5z" />
<glyph unicode="&#xf7;" horiz-adv-x="1079" d="M127 649v33q0 47 35 82t82 35h205q-29 18 -46.5 50t-17.5 69v14q0 61 43 103t104 42h13q61 0 104 -42t43 -103v-14q0 -37 -18.5 -69t-46.5 -50h209q47 0 80.5 -35t33.5 -82v-33q0 -47 -33.5 -82t-80.5 -35h-209q29 -20 47 -51.5t18 -68.5v-13q0 -59 -43 -102t-104 -43 h-13q-61 0 -104 43t-43 102v13q0 37 17.5 68.5t46.5 51.5h-205q-47 0 -82 35t-35 82z" />
<glyph unicode="&#xf8;" horiz-adv-x="1034" d="M88 393v271q0 86 29.5 157.5t83 123.5t126 82t158.5 30h64q25 0 48.5 -2t45.5 -8q6 12 10 18q23 45 68 61.5t90 -6.5q43 -23 59.5 -67.5t-6.5 -89.5l-16 -35q45 -53 71.5 -120t26.5 -144v-273q0 -86 -29.5 -157.5t-83 -124t-126 -81t-158.5 -28.5h-66q-23 0 -45 2t-45 6 q-16 -37 -33 -63q-23 -45 -66.5 -60.5t-86.5 6.5q-45 23 -61.5 68t6.5 90l36 76q-47 51 -73.5 119.5t-26.5 148.5zM369 489q35 72 70.5 142.5t70.5 142.5h-25q-53 0 -84.5 -28.5t-31.5 -81.5v-175zM528 281h21q53 0 85 28.5t32 81.5v166q-35 -70 -70 -138.5t-68 -137.5z" />
<glyph unicode="&#xf9;" horiz-adv-x="1075" d="M137 287v686q0 35 23.5 58.5t58.5 23.5h123q35 0 58.5 -23.5t23.5 -58.5v-602q0 -35 23.5 -59.5t64.5 -24.5h199v686q0 35 23.5 58.5t58.5 23.5h122q35 0 58.5 -23.5t23.5 -58.5v-891q0 -35 -23.5 -58.5t-58.5 -23.5h-491q-59 0 -111.5 22.5t-91.5 61.5t-61.5 91 t-22.5 112zM329.5 1390q0.5 42 28.5 70q29 29 72 30t72 -28l180 -182q29 -29 29 -69.5t-29 -69.5t-71 -30t-70 28l-183 180q-29 29 -28.5 71z" />
<glyph unicode="&#xfa;" horiz-adv-x="1075" d="M137 287v686q0 35 23.5 58.5t58.5 23.5h123q35 0 58.5 -23.5t23.5 -58.5v-602q0 -35 23.5 -59.5t64.5 -24.5h199v686q0 35 23.5 58.5t58.5 23.5h122q35 0 58.5 -23.5t23.5 -58.5v-891q0 -35 -23.5 -58.5t-58.5 -23.5h-491q-59 0 -111.5 22.5t-91.5 61.5t-61.5 91 t-22.5 112zM448.5 1206.5q0.5 40.5 28.5 69.5l182 182q29 29 71 28t71 -30t28.5 -71t-28.5 -70l-180 -180q-29 -29 -72 -28t-72 30t-28.5 69.5z" />
<glyph unicode="&#xfb;" horiz-adv-x="1075" d="M137 287v686q0 35 23.5 58.5t58.5 23.5h123q35 0 58.5 -23.5t23.5 -58.5v-602q0 -35 23.5 -59.5t64.5 -24.5h199v686q0 35 23.5 58.5t58.5 23.5h122q35 0 58.5 -23.5t23.5 -58.5v-891q0 -35 -23.5 -58.5t-58.5 -23.5h-491q-59 0 -111.5 22.5t-91.5 61.5t-61.5 91 t-22.5 112zM268 1194q0 41 29 70l180 182q33 29 72 29t72 -29l180 -182q29 -29 29 -70t-29 -70t-72 -31.5t-72 29.5l-108 127l-109 -127q-29 -33 -71.5 -29.5t-71.5 31.5q-29 29 -29 70z" />
<glyph unicode="&#xfc;" horiz-adv-x="1075" d="M137 287v686q0 35 23.5 58.5t58.5 23.5h123q35 0 58.5 -23.5t23.5 -58.5v-602q0 -35 23.5 -59.5t64.5 -24.5h199v686q0 35 23.5 58.5t58.5 23.5h122q35 0 58.5 -23.5t23.5 -58.5v-891q0 -35 -23.5 -58.5t-58.5 -23.5h-491q-59 0 -111.5 22.5t-91.5 61.5t-61.5 91 t-22.5 112zM270 1247v13q0 41 30 70.5t73 29.5h12q41 0 70.5 -30t29.5 -70v-13q0 -41 -29.5 -71.5t-70.5 -30.5h-12q-43 0 -73 30.5t-30 71.5zM629 1247v13q0 41 29.5 70.5t72.5 29.5h12q41 0 71 -30t30 -70v-13q0 -41 -30 -71.5t-71 -30.5h-12q-43 0 -72.5 30.5t-29.5 71.5 z" />
<glyph unicode="&#xfd;" horiz-adv-x="940" d="M29 947.5q12 31.5 43 45.5l110 54q31 16 62.5 4.5t46.5 -43.5l209 -471l12 -62l8 64l131 458q10 33 39 48.5t62 5.5l118 -35q33 -10 48.5 -40t5.5 -63l-314 -1019q-23 -72 -67.5 -125.5t-106 -86t-132.5 -41t-140 14.5l-78 25q-33 10 -49.5 38.5t-5.5 63.5l37 117 q10 33 39.5 49t62.5 6l63 -21q35 -10 63 0.5t46 65.5l45 139l-354 746q-16 31 -4 62.5zM360 1206.5q0 40.5 29 69.5l182 182q29 29 71 28t71 -30t28.5 -71t-28.5 -70l-181 -180q-29 -29 -71.5 -28t-71.5 30t-29 69.5z" />
<glyph unicode="&#xfe;" horiz-adv-x="1904" d="M96 0v1047h1712v-1047h-1712zM176 131l496 397l-496 398v-795zM240 80h1423l-494 395l-131 -104q-37 -37 -86 -37q-47 0 -84 37l-133 104zM258 967l666 -539q10 -10 28.5 -10t28.5 10l666 539h-1389zM1233 526l496 -397v797z" />
<glyph unicode="&#xff;" horiz-adv-x="866" d="M29 947.5q12 31.5 43 45.5l110 54q31 16 62.5 4.5t46.5 -43.5l209 -471l12 -62l8 64l131 458q10 33 39 48.5t62 5.5l118 -35q33 -10 48.5 -40t5.5 -63l-314 -1019q-23 -72 -67.5 -125.5t-106 -86t-132.5 -41t-140 14.5l-78 25q-33 10 -49.5 38.5t-5.5 63.5l37 117 q10 33 39.5 49t62.5 6l63 -21q35 -10 63 0.5t46 65.5l45 139l-354 746q-16 31 -4 62.5zM174 1247v13q0 41 29.5 70.5t72.5 29.5h13q41 0 70.5 -30t29.5 -70v-13q0 -41 -29.5 -71.5t-70.5 -30.5h-13q-43 0 -72.5 30.5t-29.5 71.5zM532 1247v13q0 41 30 70.5t73 29.5h12 q41 0 71 -30t30 -70v-13q0 -41 -30 -71.5t-71 -30.5h-12q-43 0 -73 30.5t-30 71.5z" />
<glyph unicode="&#x152;" horiz-adv-x="1775" d="M123 377v680q0 78 29.5 146.5t81 119.5t121 81t147.5 30h203q47 0 94 -13.5t82 -36.5q37 49 92 50h573q47 0 82 -35t35 -82v-47q0 -49 -35 -83t-82 -34h-469v-233h402q47 0 80.5 -34t33.5 -81v-49q0 -47 -33.5 -82t-80.5 -35h-402v-358h469q47 0 82 -34t35 -83v-47 q0 -47 -35 -82t-82 -35h-573q-29 0 -53.5 14.5t-40.5 36.5q-35 -25 -81 -38t-93 -13h-203q-78 0 -147.5 29.5t-121 81t-81 120t-29.5 146.5zM406 375q0 -41 25.5 -67.5t66.5 -26.5h211q41 0 67.5 26.5t26.5 67.5v684q0 41 -26.5 67.5t-67.5 26.5h-211q-41 0 -66.5 -26.5 t-25.5 -67.5v-684z" />
<glyph unicode="&#x153;" horiz-adv-x="1599" d="M104 393v271q0 86 30 157.5t83 123.5t126 82t157 30h49q76 0 140.5 -21.5t115.5 -74.5q55 53 117.5 74.5t138.5 21.5h47q86 0 158.5 -30t125 -82t82 -123.5t29.5 -157.5v-150q0 -57 -29.5 -92t-89.5 -35h-440v-70q0 -16 11.5 -26t27.5 -10h352q55 0 94 -39t39 -97v-12 q0 -55 -38.5 -94t-94.5 -39h-362q-53 0 -105.5 20.5t-89.5 55.5q-47 -41 -106.5 -58.5t-124.5 -17.5h-49q-86 0 -158 28.5t-124 81t-82 125t-30 158.5zM385 391q0 -53 29.5 -81.5t83.5 -28.5h49q53 0 85 28.5t32 81.5v273q0 53 -31 81.5t-84 28.5h-49q-53 0 -84 -28.5 t-31 -81.5v-273zM944 668h279q-2 51 -32 78.5t-83 27.5h-47q-113 0 -117 -106z" />
<glyph unicode="&#x178;" horiz-adv-x="1085" d="M11.5 1294.5q4.5 32.5 33.5 53.5l100 69q29 20 63 15t52 -33l303 -451l301 451q20 29 53 34t62 -14l100 -71q29 -20 35 -53t-14 -62l-393 -561v-590q0 -35 -24 -58.5t-58 -23.5h-123q-35 0 -58.5 23.5t-23.5 58.5v590l-395 561q-18 29 -13.5 61.5zM256 1608v12 q0 41 29.5 70.5t72.5 29.5h13q41 0 70.5 -29.5t29.5 -70.5v-12q0 -41 -29.5 -72t-70.5 -31h-13q-43 0 -72.5 31t-29.5 72zM614 1608v12q0 41 30 70.5t73 29.5h12q41 0 70.5 -29.5t29.5 -70.5v-12q0 -41 -29.5 -72t-70.5 -31h-12q-43 0 -73 31t-30 72z" />
<glyph unicode="&#x2c6;" horiz-adv-x="1013" d="M127 1292.5q0 40.5 29 69.5l180 182q33 29 72 29t71 -29l180 -182q29 -29 29 -69.5t-29 -69.5t-71.5 -32t-71.5 30l-108 127l-109 -127q-29 -33 -72 -30t-71 32q-29 29 -29 69.5z" />
<glyph unicode="&#x2dc;" horiz-adv-x="966" d="M118 1381q5 30 25 46q45 39 89 64t108 25q53 0 92 -14.5t70 -31.5q29 -14 55.5 -27t56.5 -13q29 0 51.5 12t26.5 16q16 16 43 15.5t47 -21.5l45 -45q29 -29 16.5 -63.5t-36.5 -55.5q-45 -35 -90 -53t-101 -18q-41 0 -75.5 13t-67.5 28.5t-63.5 28.5t-63.5 13 q-29 0 -42 -6t-34 -22q-25 -18 -46 -13t-42 25l-49 49q-20 18 -15 48z" />
<glyph unicode="&#x2000;" horiz-adv-x="966" />
<glyph unicode="&#x2001;" horiz-adv-x="1933" />
<glyph unicode="&#x2002;" horiz-adv-x="966" />
<glyph unicode="&#x2003;" horiz-adv-x="1933" />
<glyph unicode="&#x2004;" horiz-adv-x="644" />
<glyph unicode="&#x2005;" horiz-adv-x="483" />
<glyph unicode="&#x2006;" horiz-adv-x="322" />
<glyph unicode="&#x2007;" horiz-adv-x="322" />
<glyph unicode="&#x2008;" horiz-adv-x="241" />
<glyph unicode="&#x2009;" horiz-adv-x="386" />
<glyph unicode="&#x200a;" horiz-adv-x="107" />
<glyph unicode="&#x2010;" horiz-adv-x="874" d="M61 489v23q0 47 25 81t72 34h559q47 0 71.5 -34t24.5 -81v-23q0 -47 -24.5 -80.5t-71.5 -33.5h-559q-47 0 -72 33.5t-25 80.5z" />
<glyph unicode="&#x2011;" horiz-adv-x="874" d="M61 489v23q0 47 25 81t72 34h559q47 0 71.5 -34t24.5 -81v-23q0 -47 -24.5 -80.5t-71.5 -33.5h-559q-47 0 -72 33.5t-25 80.5z" />
<glyph unicode="&#x2012;" horiz-adv-x="874" d="M61 489v23q0 47 25 81t72 34h559q47 0 71.5 -34t24.5 -81v-23q0 -47 -24.5 -80.5t-71.5 -33.5h-559q-47 0 -72 33.5t-25 80.5z" />
<glyph unicode="&#x2013;" horiz-adv-x="1167" d="M137 530v33q0 47 35 82t82 35h659q47 0 82 -35t35 -82v-33q0 -47 -34.5 -81.5t-82.5 -34.5h-659q-47 0 -82 34.5t-35 81.5z" />
<glyph unicode="&#x2014;" horiz-adv-x="1449" d="M76 530v33q0 47 34.5 82t82.5 35h1064q47 0 82 -35t35 -82v-33q0 -47 -34.5 -81.5t-82.5 -34.5h-1064q-47 0 -82 34.5t-35 81.5z" />
<glyph unicode="&#x2018;" horiz-adv-x="573" d="M125 1100l76 243q16 53 63 77t94 7q6 -2 14.5 -5t14.5 -5q51 -14 74.5 -60t7.5 -97l-78 -242q-16 -49 -62 -74.5t-96 -9.5h3q-6 2 -13.5 4t-13.5 4q-51 16 -75.5 62.5t-8.5 95.5z" />
<glyph unicode="&#x2019;" horiz-adv-x="573" d="M125 1100l76 243q16 53 63 77t94 7q6 -2 14.5 -5t14.5 -5q51 -14 74.5 -60t7.5 -97l-78 -242q-16 -49 -62 -74.5t-96 -9.5h3q-6 2 -13.5 4t-13.5 4q-51 16 -75.5 62.5t-8.5 95.5z" />
<glyph unicode="&#x201a;" horiz-adv-x="573" d="M125 -53l76 246q16 51 63 73.5t94 7.5q6 -2 14.5 -4t14.5 -2q51 -16 74.5 -62t7.5 -97l-78 -244q-16 -49 -61 -73.5t-97 -10.5h3q-6 2 -13.5 4t-13.5 4q-51 16 -75.5 62.5t-8.5 95.5z" />
<glyph unicode="&#x201c;" horiz-adv-x="892" d="M133 1100l76 243q16 53 63 77t95 7q6 -2 14 -5t14 -5q51 -14 75 -60t7 -97l-76 -242q-16 -49 -63 -74.5t-96 -9.5h2q-6 2 -13.5 4t-11.5 4q-53 16 -77.5 62.5t-8.5 95.5zM436 1100l74 243q16 53 62 77t98 7h-2q6 -2 14 -5t14 -5q49 -14 74 -60t8 -97l-76 -242 q-16 -51 -62 -75.5t-95 -8.5q-4 2 -11.5 4t-13.5 4q-51 16 -75.5 62.5t-8.5 95.5z" />
<glyph unicode="&#x201d;" horiz-adv-x="892" d="M133 1100l76 243q16 53 63 77t95 7q6 -2 14 -5t14 -5q51 -14 75 -60t7 -97l-76 -242q-16 -49 -63 -74.5t-96 -9.5h2q-6 2 -13.5 4t-11.5 4q-53 16 -77.5 62.5t-8.5 95.5zM436 1100l74 243q16 53 62 77t98 7h-2q6 -2 14 -5t14 -5q49 -14 74 -60t8 -97l-76 -242 q-16 -51 -62 -75.5t-95 -8.5q-4 2 -11.5 4t-13.5 4q-51 16 -75.5 62.5t-8.5 95.5z" />
<glyph unicode="&#x201e;" horiz-adv-x="892" d="M133 -53l76 246q16 51 63 73.5t95 7.5q6 -2 14 -4t14 -2q51 -16 75 -62t7 -97l-76 -244q-16 -49 -62 -73.5t-97 -10.5h2q-6 2 -13.5 4t-11.5 4q-53 16 -77.5 62.5t-8.5 95.5zM436 -53l74 246q16 51 62 73.5t98 7.5l32 -8q47 -18 70 -63t6 -94l-76 -244q-16 -51 -61 -74.5 t-96 -9.5q-4 2 -11.5 4t-13.5 4q-51 16 -75.5 62.5t-8.5 95.5z" />
<glyph unicode="&#x2022;" horiz-adv-x="1191" d="M211 645q0 78 29.5 146.5t81 120t120 81t146.5 29.5h16q78 0 146.5 -29.5t120 -81t81 -120t29.5 -146.5t-29.5 -146.5t-81 -119.5t-120 -81t-146.5 -30h-16q-78 0 -146.5 30t-120 81t-81 119.5t-29.5 146.5z" />
<glyph unicode="&#x2026;" horiz-adv-x="1482" d="M133 147v13q0 59 43 102t105 43h12q59 0 102 -43t43 -102v-13q0 -61 -43 -104t-102 -43h-12q-61 0 -104.5 43t-43.5 104zM588 147v13q0 59 43 102t104 43h13q61 0 104 -43t43 -102v-13q0 -61 -43 -104t-104 -43h-13q-61 0 -104 43t-43 104zM1044 147v13q0 59 43 102 t103 43h12q61 0 104.5 -43t43.5 -102v-13q0 -61 -43 -104t-105 -43h-12q-59 0 -102.5 43t-43.5 104z" />
<glyph unicode="&#x202f;" horiz-adv-x="386" />
<glyph unicode="&#x2039;" horiz-adv-x="770" d="M57 561q0 47 35 82l322 322q35 35 82 34q41 0 77 -30l10.5 -10.5t12.5 -10.5q39 -43 39 -86q0 -23 -8.5 -44t-26.5 -40l-217 -217l217 -217q35 -35 35 -80q0 -49 -35 -84l-27 -24q-33 -31 -77 -31q-47 0 -82 35l-322 321q-35 35 -35 80z" />
<glyph unicode="&#x203a;" horiz-adv-x="770" d="M135 264q0 45 35 80l217 217l-217 217q-18 18 -26.5 40t-8.5 44q0 47 35 82l20 21q18 18 40 26t44 8q47 0 82 -34l322 -322q35 -35 35 -82q0 -45 -35 -80l-322 -321q-35 -35 -82 -35q-23 0 -44 8t-40 27l-20 20q-35 35 -35 84z" />
<glyph unicode="&#x205f;" horiz-adv-x="483" />
<glyph unicode="&#x20ac;" horiz-adv-x="1339" d="M96 590q0 35 23.5 59.5t58.5 24.5h96v104h-96q-35 0 -58.5 23.5t-23.5 58.5t23.5 59.5t58.5 24.5h96v23q0 96 37 181t100.5 148.5t148.5 100.5t181 37q86 0 153 -26t118 -63.5t87 -85t58 -90.5q16 -29 6 -59.5t-41 -46.5l-43 -21q-31 -16 -62.5 -7t-47.5 40 q-31 55 -84.5 99.5t-143.5 44.5q-53 0 -98 -19.5t-80 -54.5t-54.5 -81t-19.5 -97v-23h314q35 0 58.5 -23.5t23.5 -58.5t-23.5 -59.5t-58.5 -24.5h-314v-104h314q35 0 58.5 -23.5t23.5 -58.5t-23.5 -59.5t-58.5 -24.5h-314v-43q0 -51 19.5 -97t54.5 -80t80 -53.5t98 -19.5 q90 0 152.5 49t91.5 148q10 33 41 49t64 4l47 -19q33 -12 49 -40.5t6 -61.5q-23 -68 -62.5 -130t-97 -110.5t-131.5 -76t-160 -27.5q-96 0 -181 37t-148.5 99.5t-100.5 147.5t-37 181v43h-96q-35 0 -58.5 23.5t-23.5 58.5z" />
<glyph unicode="&#x2122;" horiz-adv-x="1646" d="M92 1346v8q0 35 24.5 57.5t59.5 22.5h524q35 0 58.5 -22.5t23.5 -57.5v-8q0 -35 -23.5 -57.5t-58.5 -22.5h-176v-510q0 -35 -23.5 -57.5t-58.5 -22.5h-8q-35 0 -59.5 22.5t-24.5 57.5v510h-174q-35 0 -59.5 22.5t-24.5 57.5zM825 756v598q0 35 23.5 57.5t58.5 22.5h11 q29 0 46 -16.5t27 -28.5l180 -275l179 275q10 12 27.5 28.5t45.5 16.5h11q35 0 58.5 -22.5t23.5 -57.5v-598q0 -35 -24 -57.5t-58 -22.5h-11q-35 0 -58.5 22.5t-23.5 57.5v303l-88 -133q-6 -10 -28.5 -32t-55.5 -22q-31 0 -53 21.5t-29 32.5l-88 135v-305q0 -35 -23.5 -57.5 t-57.5 -22.5h-11q-35 0 -58.5 22.5t-23.5 57.5z" />
<glyph unicode="&#xe000;" horiz-adv-x="1054" d="M0 0v1055h1055v-1055h-1055z" />
</font>
</defs>
</svg>
