<?xml version="1.0" encoding="utf-8"?>
<!-- Generator: Adobe Illustrator 19.1.0, SVG Export Plug-In . SVG Version: 6.00 Build 0)  -->
<svg version="1.1" id="Layer_1" xmlns="http://www.w3.org/2000/svg" xmlns:xlink="http://www.w3.org/1999/xlink" x="0px" y="0px"
	 width="40px" height="40px" viewBox="90 110 40 40" style="enable-background:new 90 110 40 40;" xml:space="preserve">
<path d="M110,110c-11,0-20,9-20,20s9,20,20,20s20-9,20-20S121,110,110,110z M112.4,137.9v0.8c-1.2,0.2-0.8,0.4-1.2,0.5
	c-0.4,0.1-0.8,0.4-1.2,0.5c-0.4,0.1-0.8,0.2-1.2,0.2c-0.4,0.1-0.8,0.1-1.2,0.1c-0.7,0-1.3-0.1-1.6-0.5c-0.2-0.2-0.5-0.6-0.5-1
	s0-0.8,0.1-1.2c0-0.4,0.1-0.8,0.2-1.2l1.6-9.3l-2.3-0.4v-1c1.2-0.1,1.1-0.2,1.7-0.4c0.5-0.1,1.2-0.2,1.8-0.4
	c0.6-0.1,1.2-0.2,1.8-0.2c0.6-0.1,1.1-0.1,1.5-0.1l0.6,0.5l-2.8,13H112.4z M112.8,121.3c-0.5,0.4-1.1,0.6-1.8,0.6s-1.3-0.2-1.7-0.6
	c-0.5-0.4-0.7-0.8-0.7-1.5c0-0.7,0.2-1.2,0.7-1.6s1.1-0.6,1.7-0.6c0.7,0,1.3,0.2,1.8,0.6s0.7,1,0.7,1.6
	C113.5,120.4,113.3,120.9,112.8,121.3z"/>
</svg>
