<?xml version="1.0" encoding="utf-8"?>
<!-- Generator: Adobe Illustrator 21.0.0, SVG Export Plug-In . SVG Version: 6.00 Build 0)  -->
<svg version="1.1" id="Layer_1" xmlns="http://www.w3.org/2000/svg" xmlns:xlink="http://www.w3.org/1999/xlink" x="0px" y="0px"
	 viewBox="0 0 40 40" enable-background="new 0 0 40 40" xml:space="preserve">
<g>
	<path fill="#FFFFFF" d="M20,0C9,0,0,9,0,20s9,20,20,20s20-9,20-20S31,0,20,0z"/>
</g>
<g>
	<path fill="#201E1F" d="M22.4,27.9v0.8c-1.2,0.2-0.8,0.4-1.2,0.5c-0.4,0.1-0.8,0.4-1.2,0.5c-0.4,0.1-0.8,0.2-1.2,0.2
		C18.4,30,18,30,17.6,30c-0.7,0-1.3-0.1-1.6-0.5c-0.2-0.2-0.5-0.6-0.5-1s0-0.8,0.1-1.2c0-0.4,0.1-0.8,0.2-1.2l1.6-9.3l-2.3-0.4v-1
		c1.2-0.1,1.1-0.2,1.7-0.4c0.5-0.1,1.2-0.2,1.8-0.4c0.6-0.1,1.2-0.2,1.8-0.2c0.6-0.1,1.1-0.1,1.5-0.1l0.6,0.5l-2.8,13L22.4,27.9
		L22.4,27.9z"/>
</g>
<g>
	<path fill="#201E1F" d="M22.8,11.3c-0.5,0.4-1.1,0.6-1.8,0.6s-1.3-0.2-1.7-0.6c-0.5-0.4-0.7-0.8-0.7-1.5s0.2-1.2,0.7-1.6
		s1.1-0.6,1.7-0.6c0.7,0,1.3,0.2,1.8,0.6c0.5,0.4,0.7,1,0.7,1.6S23.3,10.9,22.8,11.3z"/>
</g>
</svg>
