<?xml version="1.0" encoding="utf-8"?>
<!-- Generator: Adobe Illustrator 18.1.1, SVG Export Plug-In . SVG Version: 6.00 Build 0)  -->
<svg version="1.1" id="Layer_1" xmlns="http://www.w3.org/2000/svg" xmlns:xlink="http://www.w3.org/1999/xlink" x="0px" y="0px"
	 viewBox="0 0 180 180" enable-background="new 0 0 180 180" xml:space="preserve">
<path fill="#287EFF" d="M90,5C44.5,5,7.5,42,7.5,87.5S44.5,170,90,170s82.5-37,82.5-82.5S135.5,5,90,5z M100,120v3.5
	c-5,1-3.5,1.5-5,2s-3.5,1.5-5,2s-3.5,1-5,1c-1.5,0.5-3.5,0.5-5,0.5c-3,0-5.5-0.5-6.5-2c-1-1-2-2.5-2-4c0-1.5,0-3.5,0.5-5
	c0-1.5,0.5-3.5,1-5l6.5-38.5L70,73v-4c5-0.5,4.5-1,7-1.5c2-0.5,5-1,7.5-1.5s5-1,7.5-1c2.5-0.5,4.5-0.5,6-0.5l2.5,2L89,120H100z
	 M101.5,51.5C99.5,53,97,54,94,54c-3,0-5.5-1-7-2.5c-2-1.5-3-3.5-3-6c0-3,1-5,3-6.5s4.5-2.5,7-2.5c3,0,5.5,1,7.5,2.5
	c2,1.5,3,4,3,6.5S103.5,50,101.5,51.5z"/>
</svg>
